<?xml version="1.0" encoding="UTF-8"?><svg id="Layer_2" xmlns="http://www.w3.org/2000/svg" viewBox="0 0 108.36 47.74"><defs><style>.cls-1{fill:#fff;}</style></defs><g id="Layer_1-2"><path class="cls-1" d="m2.05,25.28c0-.26.03-.43.1-.52.07-.09.12-.11.16-.06l-.2,2.08c.04.22.06.36.06.42s.01.11.03.13c.02.02.05-.05.1-.23l-.13.84.07-.06c.08,1.65.04,3.23-.14,4.75-.18,1.52-.16,3.1.06,4.75v-.06s-.2,1.95-.2,1.95c0,.17.03.31.1.42.07.11.12.32.16.62-.09-.13-.12.03-.1.49.02.46-.01.79-.1,1.01.04.22.07.26.1.13.02-.13.05-.22.1-.26.04.91.04,1.78,0,2.6v.65c0,.22-.02.43-.07.65v.2c-.09.04-.16.11-.23.19-.06.09-.08.11-.03.06,0-.04.06-.13.2-.26v-.07s0-.06,0-.06c0-.04-.01-.08-.03-.1-.02-.02-.03-.05-.03-.1v-.39c0-.22,0-.42-.03-.62-.02-.2-.03-.47-.03-.81-.09.74-.11,1.33-.07,1.79.04.46.11.6.19.42h-.13s-.06,0-.06,0v.19s.06-.02.06-.06.02-.09.07-.13c-.04.04-.07.09-.07.13s-.02.06-.06.06v-.39s.07,0,.07,0h.13c.13,0,.27.01.42.03.15.02.31.03.49.03.3,0,.56.01.78.03.22.02.37,0,.46-.1.52,0,1.03.05,1.53.13.5.09,1.07.13,1.72.13l-.58-.26h1.17s.06.13.06.13c.3.04.5.02.59-.06.39.09.86.13,1.4.13s1.07.05,1.59.13l.13-.06c.13,0,.22.02.26.07.09-.09.29-.13.62-.13s.49-.04.49-.13c-.17,0-.41-.01-.71-.03-.3-.02-.43-.01-.39.03-.22-.04-.28-.08-.2-.1.09-.02.25-.03.49-.03h.78c.28,0,.49,0,.62,0-.3.09-.34.13-.1.13h.68s-.13-.06-.13-.06c.3,0,.53.01.68.03.15.02.29.03.42.03.26.09.5.02.72-.19l.2.07c.26-.17.46-.32.59-.45.13.13.31.07.55-.19.24-.26.42-.37.55-.32.26-.3.3-.39.13-.26-.17.13-.22.15-.13.06.26-.35.53-.77.81-1.27.28-.5.4-.83.36-1.01.09-.43.13-.78.13-1.04v-.58c0-.17.02-.35.07-.52l-.13-.07c0-.22.01-.41.03-.59.02-.17.03-.35.03-.52h-.07s0,.13,0,.13c.04-.69.07-1.31.07-1.85s.02-1.12.07-1.72c-.09.04-.14.1-.16.16-.02.06-.03.25-.03.55-.09-.52-.08-1.17,0-1.95.09-.78.13-1.56.13-2.34l-.07.13.07-.91c0,.09-.01.12-.03.1-.02-.02-.05-.03-.1-.03,0-.74.01-1.52.04-2.34.02-.82.1-1.43.23-1.82,0,.09-.01.11-.03.06-.02-.04-.05-.1-.1-.16-.04-.07-.08-.09-.1-.07-.02.02-.03.14-.03.36.09-.78.13-1.63.14-2.54s.02-1.8.07-2.67v.06s.07-.72.07-.72l-.07-.07v.52c0-.35.01-.68.03-1.01s.06-.62.1-.88c-.04-.09-.09-.16-.13-.23-.04-.07-.06-.21-.06-.42.04-.04.03-.42-.03-1.14-.06-.72-.05-1.29.04-1.72-.04-.04-.06,0-.03.13.02.13.01.11-.03-.06,0-1.04.04-2.28.1-3.71.07-1.43.06-2.77-.03-4.03.09-.04.15-.19.2-.45s.07-.56.07-.91c.04-.35.05-.7.03-1.07-.02-.37-.07-.73-.16-1.07-.13-.13-.14-.03-.03.29s.12.58.03.75c0-.17-.02-.28-.06-.33-.04-.04-.08-.09-.1-.13-.02-.04-.05-.12-.1-.23-.04-.11-.09-.31-.13-.62-.04.04-.04.15,0,.33-.09-.17-.12-.27-.1-.29s.05-.04.1-.06.05-.07.03-.13c-.02-.06-.1-.21-.23-.42h-.13c-.04-.09-.08-.2-.1-.33-.02-.13-.05-.24-.1-.33-.74-.95-1.56-1.56-2.47-1.82-.22-.09-.44-.14-.68-.16-.24-.02-.49-.03-.75-.03h-.78c-.26,0-.52.02-.78.06-.22,0-.15-.04.2-.13-.48,0-.99-.03-1.53-.1-.54-.07-1.09-.06-1.66.03l.33.07h-1.04c-.26,0-.51-.02-.75-.07-.24-.04-.51-.09-.81-.13-.3-.04-.72-.07-1.24-.07.22,0,.53.01.94.03.41.02.64,0,.68-.1-.09-.04-.33-.07-.71-.07s-.67.02-.85.06l.2-.19c.13.09.36.13.68.13s.64.02.94.07c-.13-.04-.22-.09-.26-.13.26.04.56.07.91.07s.69.02,1.04.07h-1.04c.22.09.57.11,1.07.07.5-.04.86-.04,1.07,0,0-.09-.09-.13-.26-.13s-.09-.04.26-.13c.43,0,.74.01.91.03.17.02.33.04.45.07.13.02.27.06.42.1.15.04.44.09.88.13l-.33.06c.26,0,.52.02.78.07.26.04.56.04.91,0,0-.09-.11-.13-.32-.13s-.39-.02-.52-.07c.09-.04.28-.02.58.07.3.09.58.15.84.2-.22-.17-.58-.28-1.1-.33-.52-.04-1-.07-1.43-.07.13,0,.11-.04-.07-.13.35,0,.68.01,1.01.03.33.02.66.06,1.01.1.65.09,1.26.33,1.82.72.61.35,1.1.79,1.49,1.34.39.54.69,1.1.91,1.66-.09-.3-.12-.46-.1-.46s.07.07.13.2c.06.13.13.26.19.39.07.13.1.15.1.07-.04.13-.01.36.1.68.11.33.14.68.1,1.07.04.09.08.06.1-.1.02-.15.03-.31.03-.49s-.01-.3-.03-.39c-.02-.09,0-.06.1.07.04.74,0,1.53-.13,2.37-.13.84-.18,1.72-.14,2.63.04-.09.07-.19.07-.32s.02-.22.07-.26c-.04.61-.12,1.24-.23,1.89-.11.65-.1,1.17.03,1.56.09-.26.14-.54.16-.84.02-.3.08-.63.16-.98,0,.26.02.48.06.65l.07-.39c0,.35-.01.6-.03.75-.02.15-.06.28-.1.39-.04.11-.09.21-.13.29-.04.09-.09.22-.13.39l.19.91c.04.78.04,1.52,0,2.21-.05.69-.13,1.3-.26,1.82,0,.13,0,.38.03.75.02.37.07.45.16.23.09-.39.16-.74.23-1.04.06-.3.1-.87.1-1.69-.04-.04-.08-.01-.1.1-.02.11-.03.23-.03.36s-.01.24-.03.33c-.02.09-.03.07-.03-.06.04-.35.04-.76,0-1.24-.04-.48-.02-.85.07-1.11v1.69c.08,0,.11-.13.06-.39-.04-.26-.02-.46.07-.58.09.22.1.53.03.94-.07.41-.06.79.03,1.14v-.13c0,.35-.01.61-.03.78-.02.17-.03.34-.03.49v.49c0,.17,0,.43,0,.78-.09.04-.13-.04-.13-.26s-.02-.5-.06-.85c-.05,1.13-.11,2.35-.2,3.67-.09,1.32-.05,2.55.12,3.67l.2-1.3c0,.39-.02.86-.07,1.4-.04.54,0,.79.13.75-.04-.43-.04-.65,0-.65s.09-.13.13-.39v-.29c0-.11.02-.1.06.03-.09.35-.14.77-.16,1.27-.02.5-.06.94-.1,1.33.04-.17.08-.15.1.07.02.22.05.37.1.46-.04.35-.08.43-.1.26-.02-.17-.05-.28-.1-.32,0,.22-.03.46-.1.71-.06.26-.06.5.03.72.04.13.07.16.1.1.02-.06.03-.16.03-.29s.01-.27.03-.42c.02-.15.05-.25.1-.29l-.2,2.28.07-.06c-.09.3-.11.56-.07.78.04.09.08.04.1-.13.02-.17.01-.35-.03-.52.08.61.07,1.15-.04,1.63-.11.48-.1.97.03,1.5l-.07.65s0,.09.03.13c.02.04.03.02.03-.07l-.07.65c-.04.3-.06.5-.03.59.02.09.04.12.06.1.02-.02.05-.04.1-.06.04-.02.07.03.07.16v-.06c.04.22.07.37.1.46.02.09.03.06.03-.06l-.13,1.3c-.04.13-.08.32-.1.58-.02.26-.06.52-.1.78-.04.26-.09.5-.13.72-.04.22-.11.33-.2.32,0,.39.02.54.06.46-.09.26-.12.4-.1.42.02.02.04.04.06.07.02.02.02.08,0,.16-.02.09-.1.33-.23.71.04.04.11-.09.2-.39-.09.35-.17.56-.26.65v.19s-.13.04-.26.26c-.13.22-.24.41-.33.58.09-.09.16-.15.23-.19.07-.04.14-.11.23-.19-.13.17-.25.32-.36.45-.11.13-.29.32-.55.58.09-.04.16-.09.23-.13.07-.04.14-.09.23-.13-.22.22-.36.34-.42.36-.07.02-.11.03-.13.03s-.08.02-.16.07c-.09.04-.26.19-.52.45.39-.3.67-.61.85-.91-.26.26-.46.42-.59.49-.13.06-.23.11-.29.13-.07.02-.14.03-.23.03s-.2.02-.33.06c-.74.39-1.45.6-2.15.65-.35.04-.69.05-1.04.03-.35-.02-.65-.08-.91-.16-.09.09-.12.13-.1.13s-.08.04-.29.13c.43.04.78.08,1.04.1.26.02.5.08.71.16.48.04.77.04.88,0,.11-.04.21-.11.29-.19.04-.09.13-.15.26-.19.13-.04.43-.13.91-.26,0,.09-.12.18-.36.29-.24.11-.51.16-.81.16-.04.09.07.12.36.1.28-.02.53-.08.75-.16-.61.3-1.26.45-1.95.45-.35.04-.64.06-.88.06h-.62c-.17-.05-.43-.08-.78-.1-.35-.02-.61-.03-.78-.03-.35-.04-.61-.09-.78-.13s-.32-.09-.42-.13c-.11-.04-.1-.09.03-.13-.3,0-.51,0-.62.03-.11.02-.21.04-.29.06-.09.02-.2.04-.33.06-.13.02-.33-.01-.58-.1.09.04.1.08.03.1-.07.02-.14.04-.23.07-.09.02-.15.03-.2.03s0,.02.13.07c.22-.09.56-.09,1.04,0,.48.09.87.15,1.17.2l-1.69.13c.22-.04.23-.09.03-.13-.19-.04-.34-.07-.42-.07l-.26.13c-.09-.09-.29-.12-.62-.1-.33.02-.69.04-1.11.06-.41.02-.81.03-1.2.03s-.69-.04-.91-.13c.3,0,.56-.01.78-.03.22-.02.37.01.45.1.26,0,.4-.02.42-.06.02-.04,0-.08-.06-.1-.07-.02-.13-.05-.2-.1-.06-.04-.03-.09.1-.13-.35-.04-.76-.06-1.24-.03-.48.02-.95.03-1.43.03h-1.5c-.3,0-.54-.13-.71-.39-.13-.17-.19-.41-.19-.72-.04.17,0,.41.13.72.09.13.18.23.29.29.11.07.18.12.23.16-.22-.04-.4-.15-.55-.33-.15-.17-.25-.37-.29-.59-.09-.22-.11-.41-.06-.59.04-.17.07-.35.07-.52.09-.35.14-.7.16-1.07.02-.37.05-.73.1-1.07l-.2.26c.04-.3.07-.5.07-.59s-.01-.16-.03-.23c-.02-.06-.03-.15-.03-.26v-.68s.08.08.1.1c.02.02.03-.03.03-.16,0-.26-.01-.41-.03-.46-.02-.04-.04-.07-.07-.07s-.04-.01-.06-.03c-.02-.02-.03-.12-.03-.29.04-.3.07-.52.07-.65s-.02-.24-.06-.33c-.04-.09-.08-.22-.1-.39-.02-.17-.01-.48.03-.91l-.07.13c.09-.65.09-1.35,0-2.11-.09-.76-.15-1.51-.19-2.24,0,.04,0,.13.03.26.02.13.03.26.03.39s.01.24.03.33c.02.09.05.11.1.07l.07-1.76c-.04-.09-.07-.23-.06-.42s-.04-.18-.13.03c0,.13.01.25.03.36.02.11.03.21.03.29l-.13-.26c.04-.39.09-.61.13-.65.04-.04.08,0,.1.1.02.11.05.25.1.42.04.17.09.26.13.26-.04-.48-.03-.82.03-1.04.07-.22.1-.48.1-.78-.04-.04-.08-.02-.1.06-.02.09-.06.19-.1.33-.04.13-.08.22-.1.26-.02.04-.05-.04-.1-.26-.04-.26-.04-.72,0-1.37s.11-1.13.2-1.43c-.09-.22-.14-.51-.16-.88-.02-.37-.03-.75-.03-1.14s0-.73-.03-1.01c-.02-.28-.08-.42-.16-.42.09.09.13-.13.13-.65l-.07.26c-.09-.61-.06-.99.07-1.14.13-.15.17-.42.13-.81-.04,0-.07.04-.07.13s-.02.17-.06.26c-.09-.82-.06-1.53.07-2.11.13-.59.15-1.27.07-2.05v.06s0,.19,0,.19c-.09.09-.09-.17,0-.78l.13.59c.17-.43.2-.98.07-1.63-.13-.65-.17-1.3-.13-1.95-.04.04-.06.22-.07.52s-.02.32-.07.06c0-.43.04-.72.13-.85.09-.13.11-.45.07-.97-.04.22-.1.35-.16.39-.07.04-.1.17-.1.39-.04-.35-.08-.64-.1-.88-.02-.24.01-.42.1-.55,0-.17-.04-.26-.13-.26.09-.22.12-.49.1-.81s-.05-.6-.1-.81l-.07.13c.22-.43.27-.81.16-1.14s-.14-.77-.09-1.33l-.13.13c.04-.22.08-.5.1-.85.02-.35,0-.72-.1-1.11l-.07.39c.04-.35.04-.76,0-1.24-.04-.48-.02-.87.07-1.17-.04-.09-.09-.05-.13.1-.04.15-.09-.03-.13-.55.04-.09.09-.29.13-.62.04-.33.02-.55-.06-.68-.13,0-.15.13-.07.39,0,.09,0,.12,0,.1s.02-.05.07-.1l-.13.32c-.04-.39-.03-.63.03-.72.06-.09.08-.35.03-.78-.04-.09-.08-.05-.1.1-.02.15-.06.25-.1.29l.13-1.56c0-.09.01-.27.03-.55.02-.28.11-.43.26-.46.15-.02.25.03.29.16l.19-.13.07-.06c.43.22.54.29.32.23-.22-.07-.09-.16.39-.29l.06.33c-.22,1.26-.31,2.04-.26,2.34-.09.74-.06,1.34.09,1.82.15.48.23.91.23,1.3s-.01.58-.03.55c-.02-.02-.04-.09-.06-.19-.02-.11-.04-.2-.06-.26-.02-.06-.05.01-.1.23,0,.43.02.64.06.62.04-.02.09.1.13.36l-.26.32c0,.26,0,.41.03.46.02.04.04.05.07.03.02-.02.03-.04.03-.06s0,.03,0,.16c.04.22.06.32.06.29,0-.02,0-.08.03-.16.02-.09.04-.18.06-.29.02-.11.05-.18.1-.23-.04.09-.08.28-.1.59-.02.3-.01.54.03.71.04,0,.06-.13.07-.39s0-.24,0,.07v1.5c0,.39,0,.76.03,1.11.02.35.04.71.06,1.07.02.37.03.81.03,1.33l.07-.2c0,.13-.01.25-.03.36-.02.11-.01.21.03.29l.07-.13c0,.17-.02.67-.07,1.5-.05.82-.07,1.6-.07,2.34l.13-.72-.13,1.24.2-.13c-.09.22-.12.63-.1,1.24.02.61,0,1.21-.04,1.82h.13s-.07.72-.07.72l.06-.26c0,.35-.03.72-.1,1.11-.07.39-.08.8-.03,1.24ZM.5,14.03l.07-.13c0,.09-.02.13-.07.13Zm.33-5.79c-.09.09-.15.16-.2.23-.04.07-.04.36,0,.88.09.04.13.03.13-.03s.04.01.13.23c.04-.22.06-.39.03-.52-.02-.13-.03-.24-.03-.33-.04.13-.06.25-.03.36.02.11.01.19-.03.23-.09-.43-.09-.78,0-1.04l.13-.26-.13.26Zm-.19-.72v.46s.2-.46.2-.46h-.2Zm.32,4.62c.04-.09.07-.2.07-.33-.04-.04-.07-.09-.07-.13v-.06c-.04-.35-.07-.64-.1-.88-.02-.24-.08-.16-.16.23v.58s0-.19,0-.19l.06-.07c.04.22.04.41,0,.59-.04.17-.07.35-.07.52.04-.09.08-.26.1-.52.02-.26.08-.35.16-.26v.52c0,.13.02.24.06.33v-.07s0-.06,0-.06c0-.04-.01-.08-.03-.1-.02-.02-.03-.05-.03-.1Zm-.13,1.89c-.09-.09-.13-.01-.13.23v.49s.13-.72.13-.72Zm-.07,3.25l-.07,1.3v-.49c0-.06,0-.12,0-.16s0-.1.03-.16c.02-.06.03-.23.03-.49Zm-.04,25.56s.08,0,.1.13c.02.13.03.29.03.49v.59c0,.19,0,.36,0,.49-.09-.17-.1-.43-.03-.78.07-.35.03-.65-.1-.91Zm.28-11.51c-.04-.09-.06-.27-.06-.55v-.94c-.09.13-.11.42-.07.88s.09.66.13.62Zm.09-17.82v-.33s-.2.39-.2.39l.2-.07Zm-.01,7.28c-.04-.09-.05-.2-.03-.33.02-.13-.01-.15-.1-.07.04.26.04.55,0,.88-.04.33-.02.53.06.62l.07-1.11ZM.98,1.35s0-.06.03-.06.03-.02.03-.07l-.07.13Zm.28,26.6c-.09-.22-.12-.39-.1-.52.02-.13-.01-.15-.1-.07v.65c0,.35-.05.52-.13.52l.19.26c-.04-.26-.04-.49,0-.68.04-.2.09-.25.13-.16Zm-.29,18.27c.09.3.28.52.58.65h-.13c-.26-.22-.43-.46-.52-.72l.07.07ZM1.23,7c-.04-.26-.08-.3-.1-.13-.02.17-.03.37-.03.58,0-.04.01-.05.03-.03.02.02.05-.01.1-.1v-.33ZM14.9,1.17c.69,0,1.35.18,1.98.52.63.35,1.17.78,1.62,1.3.45.52.81,1.11,1.07,1.76s.39,1.3.39,1.95l-.06,34.33c0,1.47-.48,2.79-1.44,3.93-.96,1.15-2.17,1.72-3.64,1.72l-12.94-.02c-.52,0-.78-.35-.78-1.04.05-29.26.15-43.99.3-44.18.15-.2.34-.29.55-.29l12.94.02ZM1.44,39.19l.06.72-.2.52.13-1.24Zm.12,6.05l-.07.2-.06-.2v.65c-.09-.39-.1-.76-.03-1.11.07-.35.12-.63.16-.84,0,.22-.03.51-.1.88-.07.37-.03.51.1.42Zm.14-8.65c0-.22-.01-.33-.03-.33s-.04.03-.07.1c-.02.06-.04.13-.06.2-.02.06-.03.03-.03-.1v.46c-.09-.39-.09-.61,0-.65.09-.04.11-.19.07-.45l.06.39c.04.13.06.08.06-.16s.02-.38.07-.42c.04.22.04.48,0,.78-.04.3-.07.37-.07.19Zm-.06-4.68v.65s-.07-.26-.07-.26c-.09,0-.13.02-.13.06v.33s0-.33,0-.33v-.68c0-.24.04-.38.13-.42-.04.09-.07.28-.07.58s.04.43.13.39v-.32Zm.09-13.98c-.04-.26-.05-.43-.03-.52.02-.09.03-.22.03-.39.04.04.07.16.06.36s-.02.38-.07.55Zm.13-.84c-.09-.43-.1-.68-.03-.75.07-.06.12-.23.16-.49.04.35.03.55-.03.62-.06.06-.1.27-.1.62Zm-.1,21.13v.13s0-.13,0-.13c.09-.3.1-.53.03-.68-.07-.15-.05-.34.03-.55.09.26.11.49.06.68-.04.2-.09.38-.13.55ZM1.96,1.09h1.43c.56,0,1.04.03,1.43.07-.17,0-.41.01-.72.03-.3.02-.6.03-.88.03s-.55-.01-.81-.03c-.26-.02-.41-.05-.45-.1Zm.15,29.26l.06.07-.07.72-.07-.07.07-.72ZM5.21,1.48l-.98-.07c.3,0,.48.01.52.03.04.02.2.03.46.03Zm.2-.19l-.52-.07-.06.07h.58Zm.12,44.74h.52c-.09-.04-.19-.09-.32-.13-.13-.04-.11-.07.07-.06.13.04.35.08.65.1.3.02.45.05.45.1-.35-.09-.64-.09-.88,0-.24.09-.4.09-.49,0Zm1.62.52c.09.09.38.12.88.1.5-.02.81,0,.94.03-.17,0-.38,0-.62.03-.24.02-.47.03-.68.03s-.39-.01-.52-.03c-.13-.02-.13-.08,0-.16Zm.15-9.49v-.06s-.07,0-.07,0l.07.07Zm0-1.95s-.01.08-.03.1-.01.08.03.16v-.26Zm.15-9.62v-.13s-.07.13-.07.13h.07Zm0,2.02l-.07.26c0-.17.02-.26.07-.26l.06-.2c.04.26.05.37.03.33-.02-.04-.06-.09-.1-.13Zm.05,7.61c.09-.09.08-.12-.03-.1-.11.02-.12-.08-.03-.29,0-.22.02-.41.07-.58.04-.17.11-.22.2-.13-.04.17-.07.37-.07.59s-.04.39-.13.52Zm0-4.16c0,.09.01.21.03.36.02.15-.01.23-.1.23l.07-.59Zm-.07,1.04v.19c.04.13.1.23.16.29.07.07.03.21-.1.42l-.06-.72v-.19Zm.06,4.55l-.07.39v-.13s.07-.26.07-.26Zm-.08,10.4l.39.07.26-.13-.65.06Zm.11-28.42v.46s.01-.12.03-.23c.02-.11,0-.12-.03-.03v-.19Zm.05,9.1c.04.13.06.33.06.59s0,.37,0,.33c-.09-.04-.12-.18-.1-.42.02-.24.03-.4.03-.49Zm.38,3.77c-.04.3-.09.49-.13.55s-.11.21-.2.42c-.09-.26-.09-.43,0-.52.09-.09.17-.11.26-.06.04-.22.04-.33,0-.33s-.07-.04-.07-.13l.13.07Zm-.39,0c.04-.09.07-.17.07-.26s.02-.23.07-.42c.04-.2.11-.29.2-.29-.09-.04-.14.06-.16.32-.02.26-.08.48-.16.65Zm.4-8.71s-.06.02-.06.06l-.07.13c0-.09.02-.13.07-.13,0-.3-.02-.5-.06-.59-.04.04-.06.12-.06.23v.23c-.09-.22-.08-.47.03-.75.11-.28.05-.38-.16-.29.04-.09.08-.22.1-.39.02-.17.08-.22.16-.13-.04.22-.06.5-.03.85.02.35.05.61.1.78.04.04.07.09.07.13-.04-.04-.07-.09-.07-.13Zm-.22-21.65c.17,0,.28.01.33.03.04.02.09.03.13.03-.22,0-.37-.02-.45-.07Zm.11,12.75v.39s-.13-.2-.13-.2l.13-.2Zm.22,25.04c-.04-.13-.11-.29-.19-.49-.09-.19-.06-.34.07-.42v.39s.01-.15.03-.33c.02-.17.03-.35.03-.52.17.22.2.33.1.33s-.12.2-.03.59c0-.43.03-.63.1-.59.06.04.14.07.23.07-.09.17-.13.39-.13.65v.26c0,.09-.07.11-.19.06Zm-.16-20.74v.26s.06.07.06.07l-.06-.32Zm.18,10.4c0,.09-.01.13-.03.13s-.03.02-.03.06v.06c0,.22-.04.28-.13.2.04-.17.06-.23.06-.16s.02.05.07-.03c0-.04,0-.08.03-.1.02-.02.03-.08.03-.16Zm.09-13.72c-.09.04-.12.02-.1-.07.02-.09.01-.17-.03-.26,0,.13-.02.26-.07.39-.04.13-.04.28,0,.46.04-.09.08-.15.1-.19.02-.04.05-.15.1-.33Zm.66-6.11c-.52,0-.78.35-.78,1.04l-.05,28.61c0,.22.06.42.19.62.13.2.32.29.58.29h3.25c.26,0,.48-.09.65-.29.17-.2.26-.4.26-.62l.05-28.61c0-.69-.3-1.04-.91-1.04h-3.25Zm-.79,5.79s.04-.13,0-.26v.26Zm.22-13.53c-.22-.09-.21-.12.03-.1.24.02.44.03.62.03-.17,0-.3.02-.39.06-.09.04-.17.04-.26,0Zm-.14,8.91c0-.09.01-.15.03-.19.02-.04.03-.11.03-.2,0,.13-.02.26-.07.39Zm0,3.51s.06-.17.07-.39v-.26c0,.22.01.34.03.36.02.02.04-.01.06-.1.02-.09.05-.24.1-.45,0,.26-.02.42-.07.49-.04.07-.11.18-.19.36Zm-.03,16.19c.09-.04.15-.17.19-.39.04-.22.04-.43,0-.65l-.2.78.06-.26-.07.52Zm.06,1.04l.07-.91-.07.06v-.06s-.06.13-.06.13l.06-.06v.85Zm-.09,15.28h.46s.33,0,.33,0h-.33s-.46,0-.46,0Zm.32-36.93s-.11.22-.2.52c0-.22.07-.39.2-.52Zm-.08,10.79l.2-.59c0,.22-.01.35-.03.39-.02.04-.08.11-.16.2Zm.06,5.98c0,.22.02.31.06.29.04-.02.06.01.06.1h-.2s.07-.39.07-.39Zm.36,20.03c.17,0,.04-.04-.39-.13.17.09.3.13.39.13Zm-.07-36.74c.09.04.09.06,0,.03-.09-.02-.13.01-.13.1,0-.13.04-.17.13-.13Zm-.17,24.32s.01-.08.03-.1c.02-.02.01-.07-.03-.16v.19s0,.06,0,.06Zm.37-24.51c-.13,0-.22-.02-.26-.07.04,0,.09.01.13.03.04.02.09.03.13.03Zm-.29,18.86l.19-.32c-.04.22-.09.34-.13.36-.04.02-.06.01-.06-.03Zm.06,3.32v.06s-.07.52-.07.52l.07-.59Zm.05-29.91h1.17c-.13,0-.27.01-.42.03-.15.02-.4.01-.75-.03Zm-.04,22.82c0-.13.02-.19.07-.19v.46c0,.09-.01.09-.03,0-.02-.09-.03-.17-.03-.26Zm-.02,11.51c.09-.09.13-.11.13-.06l-.13.06Zm.08-6.24l.06-.26-.07.78v-.52Zm.82,17.36c.3,0,.43.02.39.07.09.04.2.05.33.03.13-.02.24-.01.33.03-.35.04-.55.04-.62,0-.06-.04-.21-.09-.42-.13h-.33s.33,0,.33,0ZM10.54,1.1c-.09,0-.18-.01-.29-.03-.11-.02-.25-.03-.42-.03.26,0,.5.02.71.07Zm-.4,7.41l.26.07.07-.06h-.33Zm.13-.2c.13,0,.21.02.23.07.02.04.12.04.29,0l-.52-.07Zm1.82.39c-.09-.09-.32-.12-.71-.1-.39.02-.69.03-.91.03.22.04.49.07.81.07h.81Zm-.52,38.56s.08-.01.1-.03c.02-.02.08-.03.16-.03-.04,0-.08.01-.1.03-.02.02-.08.03-.16.03Zm.21-7.22c.09,0,.11-.02.07-.06l-.07.06Zm.19,5.79h-.2s.07.06.07.06l.13-.06Zm.01-7.22s-.02.06-.07.06c0-.04.02-.06.07-.06Zm.36-23.02l.06-.06s-.02.06-.06.06Zm.33-3.25l-.2.1s-.04.21,0,.55c.09,0,.13-.02.13-.06s.04,0,.13.13c.04-.09.05-.17.03-.26-.02-.09-.03-.15-.03-.19-.04.09-.05.15-.03.19.02.04,0,.09-.03.13-.09-.26-.09-.46,0-.59l.13-.13-.13.13Zm-.19-.46v.26s.2-.19.2-.19l-.2-.07Zm.12,5.53l-.07.78c-.04-.3-.05-.43-.03-.39.02.04.05-.09.1-.39Zm.2-2.93s.06-.09.06-.13c-.04-.04-.06-.09-.06-.13-.04-.22-.08-.39-.1-.52-.02-.13-.08-.09-.16.13v.39c0-.09.02-.15.06-.19.04.13.04.25,0,.36-.04.11-.06.21-.06.29.04-.09.08-.19.1-.32.02-.13.08-.17.16-.13v.26c0,.13.02.22.06.26v-.07s0-.06,0-.06l-.06-.13Zm-.13,1.11c-.09-.09-.13-.05-.13.1v.29s.13-.39.13-.39Zm-.09,16.26c.09-.04.13.08.13.36v.62c-.09-.09-.1-.23-.03-.42.07-.19.03-.38-.1-.55Zm-.01,7.15c.17-.09.28-.22.33-.39-.04.13-.15.28-.33.45v-.06Zm.14-5.33l-.07.39.06.07.07-.39-.07-.07Zm0,3.71l-.06.2.13.2-.06-.39Zm.39,1.24c-.09.22-.15.28-.2.19-.04.04-.08.1-.1.16-.02.06-.08.1-.16.1.13-.17.22-.26.26-.26s.11-.06.2-.19c.04-.04.06-.13.06-.26,0,.13-.02.22-.06.26Zm-.24-13.27s-.06-.14-.06-.29v-.55c-.09.09-.11.26-.07.52s.09.37.13.33Zm.08-10.01v-.19s-.2.19-.2.19h.2Zm0,4.1c-.04-.09-.05-.16-.03-.23.02-.06-.01-.08-.1-.03.04.17.04.35,0,.52-.04.17-.02.28.06.33l.07-.59Zm.19,4.03c-.04-.09-.09-.07-.13.06-.04.13-.04.26,0,.39l-.2-.13c.09,0,.13-.1.13-.29v-.36c.09-.09.12-.07.1.03-.02.11,0,.21.1.29Zm-.05-11.84v.2c-.09.09-.13.11-.13.06,0-.13.01-.24.03-.33.02-.09.05-.06.1.07Zm.02,25.62c-.09.04-.12.21-.1.49.02.28,0,.47-.03.55-.04-.22-.06-.48-.06-.78s.07-.39.2-.26Zm.21-7.48l.06.46-.2.26.13-.72Zm.12,3.45l-.07.13-.06-.13-.07.39c-.09-.26-.09-.48,0-.65.09-.17.15-.35.2-.52,0,.13-.03.31-.1.55-.07.24-.03.31.1.23Zm.14-4.88c-.04-.26-.09-.29-.13-.1-.04.2-.07.21-.07.03v.26c-.09-.22-.09-.34,0-.36.09-.02.11-.12.07-.29l.06.19c.04.09.07.07.07-.06s.02-.22.07-.26c.04.13.04.28,0,.46-.04.17-.07.22-.07.13Zm-.06-2.67v.39s-.06-.13-.06-.13h-.13s0,.19,0,.19v-.19c0-.13,0-.26,0-.39s.04-.2.13-.2c-.04.04-.07.15-.07.33s.04.24.13.2v-.19Zm.08-7.87c-.04-.17-.05-.28-.03-.33.02-.04.03-.11.03-.2.09.09.09.26,0,.52Zm.03,18.53v.26s.09-.1.13-.16c.04-.06.06-.05.06.03-.04.09-.08.21-.1.36-.02.15-.06.23-.1.23.09-.22.09-.38,0-.49-.09-.11-.09-.18,0-.23Zm.1-18.99c-.09-.26-.1-.4-.03-.42.06-.02.12-.12.16-.29.04.22.03.34-.03.36-.07.02-.1.14-.1.36Zm-.08,11.9v.07s0-.07,0-.07c.09-.17.1-.3.03-.39-.07-.09-.05-.19.03-.32.09.17.11.32.06.42-.04.11-.09.21-.13.29Zm.18,8.45v.33s0,.19,0,.19v-.19s0-.33,0-.33Zm.15-12.87h.07s-.07.39-.07.39h-.06s.07-.39.07-.39Zm-.02,13.27s.04-.02.13-.19c-.09.09-.13.15-.13.19ZM16.72,1.5c-.13-.13-.34-.23-.62-.29-.28-.07-.4-.1-.36-.1l.59.13c-.26-.13-.49-.23-.68-.29-.19-.07-.31-.1-.36-.1.52.09.83.18.94.26.11.09.27.22.49.39Zm.58.65c.26.17.43.3.52.39-.04,0-.09-.01-.13-.03-.04-.02-.11-.03-.2-.03-.09-.17-.15-.28-.19-.33Zm1.04.59c-.09-.09-.15-.14-.2-.16-.04-.02-.09-.05-.13-.1.09.04.2.13.32.26Zm-.07,42.33c-.04.3.15.24.59-.19.17-.17.33-.36.46-.55.13-.19.24-.33.33-.42-.04-.04-.06-.1-.06-.16s-.02-.1-.07-.1-.11.06-.2.19c-.09.13-.24.37-.46.71.13-.3.24-.51.33-.62.09-.11.16-.19.23-.26.07-.06.11-.13.13-.19.02-.06.03-.21.03-.42-.09.3-.22.59-.39.85-.17.26-.3.41-.39.45.17-.26.3-.48.39-.65-.22.13-.37.35-.46.65-.09.3-.24.54-.46.71Zm.46-41.94c.17.22.27.39.29.52.02.13.05.26.1.39-.22-.26-.37-.49-.45-.68-.09-.2-.19-.4-.32-.62.13.13.24.25.32.36.09.11.11.12.06.03Zm.26,38.95s.07.11.07.19c0-.04.02-.09.06-.13-.04,0-.06-.01-.06-.03,0-.02-.02-.03-.07-.03Zm.2-3.12s-.01.11-.03.2c-.02.09-.01.19.03.33v-.52Zm.06,2.93c0-.13.04-.28.13-.45l-.2.59.07-.13Zm.1-19.96v-.2s-.06.2-.06.2h.06Zm0,3.58l-.07.39c0-.3.02-.43.07-.39l.07-.32c.04.43.05.61.03.52-.02-.09-.05-.15-.1-.2Zm.04,13.4c.09-.17.08-.22-.03-.13-.11.09-.12-.09-.03-.52,0-.39.02-.73.07-1.01.04-.28.11-.38.2-.29-.04.35-.07.72-.07,1.11s-.05.67-.13.84Zm.01-7.35c0,.17,0,.39.03.65.02.26-.01.41-.1.46l.07-1.11Zm-.07,1.89v.39c.04.22.1.38.16.49.06.11.03.34-.1.68l-.06-1.17v-.39Zm.11-23.8v.78c0-.09,0-.22.03-.39.02-.17.01-.22-.03-.13v-.26Zm.04,16.13c.04.22.06.54.06.98s0,.61,0,.52c-.09-.04-.12-.27-.1-.68.02-.41.03-.68.03-.81Zm.38,6.7c-.04.48-.09.79-.13.94-.04.15-.11.4-.2.75-.09-.48-.09-.79,0-.94.09-.15.17-.18.26-.1.04-.35.04-.53,0-.55-.04-.02-.06-.14-.06-.36l.13.26Zm-.39-.07c.04-.13.07-.3.07-.52,0-.13.02-.37.07-.71.04-.35.11-.5.2-.46-.09-.09-.14.09-.16.52-.02.43-.08.82-.17,1.17Zm.42-15.41s-.07.02-.07.06c0,.09-.01.14-.03.16-.02.02-.03.05-.03.1,0-.13.02-.22.06-.26v-.55c0-.2-.02-.34-.06-.42-.04.09-.07.22-.07.39v.39c-.04-.17-.05-.39-.03-.65.02-.26.04-.5.07-.71.02-.22.03-.38.03-.49s-.07-.1-.2.03c.04-.13.08-.36.1-.68.02-.33.08-.4.16-.23-.04.39-.06.89-.03,1.5.02.61.05,1.06.1,1.37.04.04.06.13.06.26,0-.04-.01-.08-.03-.1-.02-.02-.03-.08-.03-.16Zm.01-7.61l-.07-.13v-.46s.07.59.07.59Zm.1,17.88c0,.09-.01.16-.03.23-.02.06-.03.14-.03.23-.04.09-.06.09-.06,0s-.02.02-.07.33c.04.09.08.09.1,0,.02-.09.03-.19.03-.33,0-.04.01-.1.03-.16.02-.06.03-.16.03-.29Zm0,1.76c.09-.04.15-.26.2-.65.04-.39.04-.78,0-1.17l-.2,1.37.07-.46-.07.91Zm.06,1.89l.07-1.56-.06.06v-.13s-.07.33-.07.33l.07-.19v1.5Zm.05,10.86c0,.09-.01.16-.03.23-.02.06-.03.14-.03.23,0-.09.01-.16.03-.23.02-.06.03-.14.03-.23Zm.12-30.11c.04-.39.11-.72.2-.97,0,.35-.01.57-.03.68-.02.11-.08.21-.16.29Zm.05,10.66c0,.35.02.5.06.46.04-.04.07.02.07.2h-.2s.07-.65.07-.65Zm.11,13.4s0-.1.03-.16c.02-.06.01-.14-.03-.23v.33s0,.06,0,.06Zm.08-10.01l.2-.52c-.04.3-.09.48-.13.52-.04.04-.07.04-.07,0Zm.06,5.85v.13s-.07.91-.07.91l.07-1.04Zm.02-12.49v-.26c0-.09.02-.15.07-.19v.91c0,.17-.01.16-.03-.03-.02-.2-.03-.34-.03-.42Zm-.03,20.35c.09-.17.13-.22.13-.13l-.13.13Zm.08-11.05l.07-.45-.07,1.3v-.85Z"/><path class="cls-1" d="m25.33,21.48c0-.26.03-.42.1-.49.07-.06.12-.1.16-.1l-.2,2.02c.04.22.06.36.06.42s0,.11.03.13c.02.02.05-.05.1-.23l-.13.78.06-.06c.08,1.6.04,3.12-.14,4.55-.18,1.43-.16,2.93.06,4.49v-.06s-.2,1.89-.2,1.89c0,.17.03.3.1.39.06.09.12.28.16.59-.09-.13-.12.02-.1.45.02.43-.01.74-.1.91.04.22.07.27.1.16.02-.11.06-.2.1-.29.04.87.04,1.71,0,2.54v.62c0,.2-.02.4-.07.62,0,.35.06.72.19,1.11-.17-.39-.26-.69-.26-.91s-.02-.43-.06-.65c0-.22-.01-.42-.03-.62-.02-.2-.03-.47-.03-.81-.05.69-.05,1.26,0,1.69,0,.35.06.87.19,1.56,0-.13-.01-.25-.03-.36-.02-.11-.03-.21-.03-.29.09.17.16.37.23.59.07.22.14.43.23.65.09.22.18.41.29.59.11.17.2.26.29.26.22.35.45.68.71,1.01s.63.6,1.1.81c-.09-.09-.14-.15-.16-.2-.02-.04-.08-.11-.16-.2.22.09.5.17.85.26l-.07.2c.3.09.45.09.46,0,.13.09.31.13.55.13h.68c.26.05.52.07.78.07s.52.02.78.07l.13-.06c.09,0,.15.02.19.07.09-.09.28-.13.59-.13s.48-.04.52-.13c-.22,0-.47-.01-.75-.03-.28-.02-.4-.01-.36.03-.22-.04-.28-.08-.19-.1.09-.02.25-.03.49-.03h.75c.26,0,.46,0,.58,0-.3.09-.34.13-.1.13h.62s-.09-.02-.13-.06c.52-.04.92,0,1.2.13s.6.11.94-.06l.2.13c.09,0,.21,0,.36-.03.15-.02.27-.03.36-.03.04.17.22.2.52.07.3-.13.5-.15.59-.06.17-.09.26-.14.26-.16s-.02-.03-.07-.03-.1.01-.16.03c-.06.02-.05.01.03-.03.35-.17.74-.42,1.17-.75s.67-.57.72-.75c.22-.22.41-.49.59-.81.17-.32.3-.64.39-.94l-.13-.07c.17-.35.26-.63.26-.85-.04,0-.07.02-.07.06.09-.56.12-1.12.1-1.66-.02-.54,0-1.07.03-1.59-.09.04-.14.09-.16.13-.02.04-.03.22-.03.52-.09-.48-.09-1.09,0-1.85.09-.76.13-1.51.13-2.24l-.07.06.07-.85c0,.09-.01.12-.03.1-.02-.02-.05-.03-.1-.03,0-.74.01-1.48.04-2.24.02-.76.1-1.33.23-1.72,0,.13-.01.17-.03.13-.02-.04-.06-.1-.1-.16-.04-.07-.08-.1-.1-.1s-.03.11-.03.33c.09-.74.13-1.54.13-2.41s.02-1.71.07-2.54v.07s.07-.72.07-.72h-.07s0,.45,0,.45c0-.35.01-.66.03-.94.02-.28.05-.55.1-.81-.04-.09-.09-.16-.13-.23s-.06-.21-.06-.42c.04,0,.05-.1.03-.29-.02-.19-.04-.44-.06-.75-.02-.3-.03-.6-.03-.88s.02-.53.07-.75c-.04-.09-.05-.07-.03.06.02.13.01.13-.03,0,0-1,.04-2.18.1-3.54.07-1.37.06-2.63-.03-3.8.09-.04.15-.2.2-.45.04-.26.08-.56.1-.91.02-.35.03-.7.04-1.07s.02-.73.07-1.07c-.09-.17-.12-.09-.1.26.02.35-.01.63-.1.85,0-.17-.01-.29-.03-.36-.02-.06-.04-.13-.06-.2-.02-.06-.04-.15-.06-.26-.02-.11-.01-.34.03-.68v.33c0-.17,0-.27,0-.29s.02-.03.07-.03.07-.04.07-.13v-.52s-.13-.07-.13-.07l.2-.65c0-.61-.02-1.14-.06-1.59-.04-.46-.17-.92-.39-1.4-.43-.95-1.02-1.65-1.75-2.08-.04-.04-.04-.08,0-.1.04-.02.11.01.2.1-.3-.26-.67-.51-1.1-.75-.43-.24-.91-.32-1.43-.23l.26.07h-.94c-.24,0-.48-.02-.72-.07-.24-.04-.5-.09-.78-.13-.28-.04-.66-.07-1.14-.07.22,0,.51.01.88.03.37.02.6,0,.68-.1-.09-.04-.31-.07-.68-.07s-.64.02-.81.06l.13-.2c.13.09.35.13.65.13s.61.02.91.07l-.26-.13c.26.04.55.07.88.07s.66.02,1.01.07h-1.04c.22.09.56.12,1.04.1.48-.02.8.01.97.1.04-.09-.01-.15-.16-.2-.15-.04-.08-.07.23-.06.43.09.73.19.88.29.15.11.27.21.36.29.09.09.17.2.26.33s.26.35.52.65l-.19-.2c.17.22.31.42.42.62.11.2.27.4.49.62.04-.04.01-.15-.1-.33-.11-.17-.21-.3-.29-.39.09.04.18.2.29.46.11.26.25.5.42.72,0-.22-.14-.54-.42-.98-.28-.43-.6-.78-.94-1.04.09,0,.13-.04.13-.13.91.83,1.51,1.91,1.82,3.25.08.65.11,1.29.06,1.92-.04.63-.02,1.25.06,1.85l.07-.45c0,.26,0,.47.03.62.02.15.05.18.1.1-.09.09-.11.29-.07.62.04.33.04.66,0,1.01.04.09.08.07.1-.06.02-.13.04-.27.07-.42.02-.15.03-.27.03-.36s.02-.07.07.07c-.05.65-.12,1.39-.23,2.21-.11.82-.14,1.65-.1,2.47.04-.09.06-.19.07-.33s.02-.22.07-.26c-.04.61-.12,1.22-.23,1.85-.11.63-.1,1.12.03,1.46.09-.26.14-.53.16-.81.02-.28.08-.57.16-.88,0,.22.02.43.06.65l.07-.45c0,.35-.01.6-.03.75-.02.15-.06.27-.1.36-.04.09-.09.17-.13.26-.04.09-.09.22-.13.39l.19.85c.04.74.04,1.44,0,2.11-.04.67-.13,1.25-.26,1.72,0,.17,0,.43.03.78.02.35.07.41.16.2.09-.39.16-.74.23-1.04.06-.3.1-.82.1-1.56-.04-.04-.08,0-.1.1-.02.11-.03.22-.03.33s-.01.21-.03.29c-.02.09-.03.07-.03-.06.04-.3.04-.68,0-1.14-.04-.46-.02-.81.07-1.07v1.63c.08,0,.1-.12.06-.36-.04-.24-.02-.44.07-.62.09.22.1.52.03.91-.07.39-.06.76.03,1.11v-.13c0,.35-.01.6-.03.75-.02.15-.03.3-.03.46v.49c0,.17,0,.41,0,.72-.09.04-.13-.04-.13-.26s-.02-.48-.06-.78c-.05,1.04-.11,2.2-.2,3.48-.09,1.28-.05,2.44.12,3.48l.2-1.24c0,.39-.02.85-.07,1.37-.04.52,0,.76.13.72-.04-.43-.04-.65,0-.65s.09-.11.13-.32v-.06c0-.09,0-.17,0-.26s.02-.06.06.07c-.09.35-.14.76-.16,1.24-.02.48-.06.89-.1,1.24.04-.17.08-.15.1.07.02.22.05.35.1.39-.04.35-.08.43-.1.26-.02-.17-.05-.28-.1-.33,0,.22-.03.46-.1.72-.06.26-.06.48.03.65.04.13.07.17.1.13.02-.04.03-.13.03-.26s.01-.27.03-.42c.02-.15.05-.25.1-.29l-.2,2.15h.07c-.13.22-.15.45-.07.72.04.09.08.04.1-.13.02-.17.01-.35-.03-.52.08.61.07,1.14-.04,1.59s-.1.92.03,1.4l-.07.65s.01.08.03.1c.02.02.03.01.03-.03l-.07.59c-.04.3-.06.49-.03.55.02.06.04.1.06.1s.05-.01.1-.03c.04-.02.07.01.07.1v-.06c.04.22.07.37.1.46.02.09.03.06.03-.06,0,.48-.07.93-.2,1.36-.09.09-.17.27-.26.55-.09.28-.22.53-.39.75-.3.56-.54.8-.72.71-.13.35-.17.5-.13.45-.17.17-.26.28-.26.32s.01.08.03.1c.02.02,0,.08-.07.16-.06.09-.23.26-.49.52l.39-.26c-.26.26-.43.39-.52.39,0,.09-.02.15-.07.2-.04-.04-.15.01-.33.16-.17.15-.35.27-.52.36.13,0,.33-.04.59-.13-.22.09-.39.16-.52.23s-.37.18-.72.36c.09-.04.16-.06.23-.06s.14-.02.23-.06c-.26.13-.42.19-.49.19s-.12-.02-.16-.07c-.04,0-.1.01-.16.03-.06.02-.27.07-.62.16.22-.04.41-.11.59-.19.17-.09.37-.17.59-.26-.35.13-.6.19-.75.19h-.36c-.09-.04-.15-.08-.19-.1-.04-.02-.13-.05-.26-.1-.69-.09-1.41-.1-2.15-.04-.74.06-1.37,0-1.89-.17-.09.09-.12.13-.1.13s-.08.04-.29.13c.43.04.77.08,1.01.1.24.02.47.08.68.16.39.04.65.04.78,0,.13-.04.23-.09.29-.13.07-.04.16-.08.29-.1.13-.02.41-.01.84.03-.04.09-.18.14-.42.16-.24.02-.49,0-.75-.03,0,.09.11.14.32.16.22.02.43.05.65.1-.52-.04-1.08-.05-1.69,0-.61.04-1.08.06-1.43.06-.17-.04-.42-.08-.75-.1-.33-.02-.58-.03-.75-.03-.3-.04-.54-.09-.71-.13s-.32-.09-.42-.13c-.11-.04-.1-.09.03-.13-.26,0-.46,0-.59.03-.13.02-.23.04-.29.06-.06.02-.16.04-.29.06-.13.02-.33-.01-.59-.1.09.04.1.08.03.1-.07.02-.14.03-.23.03s-.16,0-.23.03c-.06.02-.03.05.1.1.22-.09.56-.09,1.04,0,.48.09.87.15,1.17.2-.26.04-.52.06-.78.06s-.54.02-.84.06c.22-.04.23-.08.03-.1-.2-.02-.36-.06-.49-.1-.04,0-.09.01-.13.03-.04.02-.09.03-.13.03-.09-.09-.29-.16-.62-.23-.33-.07-.68-.21-1.07-.42-.43-.22-.8-.48-1.1-.78-.3-.3-.5-.56-.58-.78.22.22.4.39.55.52.15.13.27.28.36.46.22.13.33.2.36.2s.02-.03,0-.1c-.02-.07-.04-.13-.07-.2s.03-.08.16-.03c-.3-.26-.61-.55-.91-.88-.3-.33-.58-.71-.84-1.14-.22-.43-.39-.89-.52-1.37-.13-.48-.17-.91-.13-1.3-.04.13-.04.34,0,.62.04.28.02.45-.07.49-.09-.3-.13-.62-.13-.94s.02-.66.07-1.01c.09-.35.14-.68.16-1.01.02-.32.05-.66.1-1.01l-.19.26c.04-.3.07-.5.07-.59s-.01-.16-.03-.23c-.02-.06-.03-.15-.03-.26v-.62s.08.08.1.1c.02.02.03-.03.03-.16,0-.26-.01-.41-.03-.46-.02-.04-.04-.07-.07-.07h-.07s-.03-.09-.03-.26c.04-.3.07-.51.07-.62s-.02-.22-.06-.33c-.04-.11-.08-.24-.1-.39-.02-.15-.01-.42.03-.81l-.06.13c.09-.61.09-1.29,0-2.05-.09-.76-.15-1.46-.19-2.11.04.26.06.46.06.59s0,.24.03.33c.02.09.05.11.1.07l.07-1.69s-.06-.17-.06-.39-.04-.22-.13,0c0,.13,0,.25.03.36.02.11.03.21.03.29l-.13-.26c.04-.39.09-.61.13-.65.04-.04.08,0,.1.13.02.13.05.27.1.42.04.15.09.23.13.23-.04-.43-.03-.76.03-.98.06-.22.1-.46.1-.72-.04-.04-.08-.02-.1.06-.02.09-.06.17-.1.26-.04.09-.08.15-.1.2-.02.04-.05-.02-.1-.2-.04-.22-.04-.64,0-1.27.04-.63.11-1.09.2-1.4-.09-.17-.14-.44-.16-.81-.02-.37-.03-.73-.03-1.07s-.01-.66-.03-.94c-.02-.28-.08-.42-.16-.42.09.09.13-.11.13-.59l-.06.2c-.09-.56-.06-.92.07-1.07.13-.15.17-.4.13-.75l-.13.32c-.09-.78-.06-1.44.07-1.98.13-.54.15-1.2.07-1.98,0,.04-.01.08-.03.1s-.01.08.03.16c-.09.09-.09-.15,0-.72l.13.59c.17-.43.2-.96.07-1.59-.13-.63-.17-1.25-.13-1.85-.04.04-.07.21-.07.49s-.02.29-.06.03c0-.39.05-.65.16-.78.11-.13.12-.43.03-.91-.04.22-.1.34-.16.36-.06.02-.1.14-.1.36-.09-.74-.08-1.19,0-1.37,0-.09-.04-.17-.13-.26.09-.22.12-.47.1-.75-.02-.28-.05-.53-.1-.75l-.06.13c.22-.39.27-.76.16-1.11-.11-.35-.14-.78-.1-1.3l-.13.2c.04-.39.11-1.06.2-2.02l-.2.39c.09-.35.21-.78.36-1.3.15-.52.36-.89.62-1.1.04-.04.03-.05-.03-.03-.06.02-.11.04-.13.06s-.03,0-.03-.06.09-.23.26-.49c.09-.09.26-.25.52-.49.26-.24.43-.42.52-.55-.09-.09-.22,0-.39.26-.09.09-.11.12-.06.1.04-.02.09-.05.13-.1-.09.04-.2.13-.33.26.26-.35.45-.54.55-.58.11-.04.36-.22.75-.52.09-.09.04-.1-.13-.03-.17.06-.3.12-.39.16C27.08.22,28.27-.1,29.53.03c.04.04,0,.08-.13.1-.13.02-.11.05.07.1-.22.04-.41.06-.59.06s-.37.04-.59.13c-.26.13-.2.16.2.1.39-.06.71-.07.98-.03.26.43.34.69.26.78-.09.09-.43-.15-1.04-.72l.71.72c0,.13-.25.13-.75,0-.5-.13-.77-.16-.81-.1-.04.06-.02.09.06.07.09-.02.03-.02-.16,0-.2.02-.53.28-1.01.78-.48.5-.77.96-.88,1.4-.11.43-.21.78-.29,1.04-.13.3-.21.45-.23.45s-.03-.05-.03-.16v-.26c0-.07-.04-.01-.13.16-.09.35-.11.52-.07.52s.04.11,0,.33l-.26.26v.39s0,.05.03.03.04-.04.07-.06,0,.03-.03.16c.09.35.13.4.13.16s.04-.4.13-.49c0,.04-.01.11-.03.2-.02.09-.03.19-.03.32v.72s.06-.14.06-.42,0-.27,0,.03v1.43c0,.39,0,.75.03,1.07.02.33.04.66.06,1.01.02.35.03.78.03,1.3l.07-.19c0,.13-.01.24-.03.32-.02.09-.01.2.03.33l.06-.13c0,.13-.02.6-.07,1.4-.05.8-.07,1.55-.07,2.24l.13-.72-.13,1.17.2-.13c-.09.22-.12.62-.1,1.2.02.59,0,1.16-.04,1.72h.13s-.07.65-.07.65l.07-.19c0,.35-.03.71-.1,1.07-.07.37-.08.75-.03,1.14Zm-1.48-10.86c0,.09-.02.15-.06.19v-.13s.06-.06.06-.06Zm.4-5.4c-.09.04-.16.1-.23.16-.07.06-.1.38-.1.94.09.04.13.03.13-.03s.04.01.13.23c.04-.22.05-.39.03-.52-.02-.13-.01-.24.03-.33-.04.13-.07.25-.07.36s-.02.18-.07.23c-.04-.22-.04-.42,0-.62.04-.2.09-.34.13-.42.04,0,.11-.06.19-.19-.09,0-.15.06-.19.19Zm0,3.77c.04-.09.06-.19.07-.33-.04-.04-.06-.09-.06-.13v-.06c-.04-.35-.08-.63-.1-.85-.02-.22-.08-.15-.16.19v.65s0-.26,0-.26l.07-.06c.04.22.04.41,0,.58-.04.17-.07.35-.07.52.04-.09.08-.26.1-.52.02-.26.08-.35.16-.26v.52c0,.13.02.24.06.33v-.06c0-.09-.02-.17-.06-.26Zm-.13,1.82c-.09-.13-.13-.08-.13.16v.49s.13-.65.13-.65Zm-.07,3.06l-.07,1.24v-.49c0-.06,0-.11,0-.13,0-.02.01-.06.03-.13.02-.06.03-.23.03-.49Zm-.04,24.32s.08,0,.1.13c.02.13.03.28.03.46v.55c0,.19,0,.34,0,.42-.09-.13-.1-.36-.03-.68.07-.33.03-.62-.1-.88Zm.25-33.75c-.04.09-.07.16-.07.23s-.02.14-.07.23c.09-.09.14-.15.16-.19.02-.04.08-.11.16-.2l-.19-.07Zm.03,22.82c-.04-.09-.06-.27-.06-.55v-.94c-.09.17-.11.48-.07.91.04.43.08.63.13.59Zm.09-16.97v-.33s-.2.39-.2.39l.2-.06Zm-.01,6.96c-.04-.09-.05-.19-.03-.33.02-.13-.01-.15-.1-.07.04.22.04.49,0,.81-.04.33-.02.53.06.62l.07-1.04Zm.18,6.83c-.09-.22-.12-.4-.1-.55.02-.15-.01-.18-.1-.1v.62c0,.33-.05.51-.13.55l.19.26c-.04-.26-.04-.49,0-.68.04-.19.09-.23.13-.1Zm-.35,17.3c0,.3.02.52.06.65h-.06s0-.72,0-.72v.06ZM37.26.95c.65,0,1.28.14,1.89.43.61.28,1.14.67,1.59,1.17.46.5.81,1.09,1.07,1.76.26.67.39,1.4.39,2.18l-.06,34.33c0,.74-.15,1.45-.46,2.15-.31.69-.7,1.3-1.17,1.82-.48.52-1.01.93-1.59,1.23-.59.3-1.16.45-1.72.45h-7.74c-.65-.01-1.29-.18-1.92-.5-.63-.33-1.17-.75-1.62-1.27-.45-.52-.82-1.12-1.1-1.79-.28-.67-.42-1.38-.42-2.11l.06-34.33c0-1.47.49-2.76,1.47-3.87.98-1.1,2.18-1.65,3.61-1.65h7.74Zm-12.54,33.79l.06.72-.2.45.13-1.17Zm.12,5.72l-.06.2-.07-.13v.65c-.09-.43-.1-.81-.03-1.14s.12-.6.16-.81c0,.22-.03.5-.1.85-.07.35-.03.48.1.39Zm.13-36.28c0,.09-.04.17-.13.26-.04.09-.07.12-.07.1s-.02-.01-.06.03c.09-.22.17-.39.26-.52s.09-.09,0,.13Zm.02,28.09c0-.22-.01-.31-.03-.29s-.04.06-.06.13c-.02.06-.04.11-.07.13s-.03-.03-.03-.16v.46c-.09-.35-.09-.54,0-.58.09-.04.11-.17.07-.39l.06.32c.04.13.07.08.07-.16s.02-.38.07-.42c.04.22.04.48,0,.78-.04.3-.07.37-.06.19Zm-.06-4.49v.65s-.07-.26-.07-.26c-.09,0-.13.02-.13.06v.33s0-.33,0-.33v-.65c0-.22.04-.35.13-.39-.04.09-.06.27-.07.55s.04.4.13.36v-.33Zm.09-13.27c-.04-.26-.05-.43-.03-.52.02-.09.03-.22.03-.39.09.17.09.48,0,.91Zm.13-.78c-.09-.43-.1-.68-.03-.75.06-.06.12-.23.16-.49.04.35.03.55-.03.62-.07.06-.1.27-.1.62Zm-.1,20.03v.13s0-.13,0-.13c.09-.26.1-.47.03-.62-.07-.15-.06-.34.03-.55.09.26.11.49.06.68-.04.19-.09.36-.13.49Zm.34-7.41h.07s-.07.72-.07.72l-.06-.07.07-.65Zm1.4,18.27c.09.09.15.15.19.2.04.04.09.09.13.13,0-.09-.03-.17-.1-.26-.06-.09-.03-.09.1,0,.04.09.16.21.36.36.2.15.27.25.23.29-.22-.22-.43-.36-.65-.42s-.3-.16-.26-.29Zm.91,1.3c-.13,0-.15.03-.06.1.09.07.23.13.42.2.19.07.41.13.65.2s.44.08.62.03c-.17,0-.48-.04-.91-.13-.43-.09-.67-.22-.72-.39Zm.06.39c.09.04.14.08.16.1s.08.05.16.1h.26s-.58-.2-.58-.2Zm.85-.84s.13.07.39.07c.04.04.13.07.26.07-.13,0-.22-.02-.26-.07-.17,0-.3-.02-.39-.07Zm.52,0l-.26-.2c.04.13.13.2.26.2Zm.4-44.61h1.37c.52,0,.98.03,1.37.07-.17,0-.4.01-.68.03-.28.02-.56.03-.85.03s-.54-.01-.78-.03c-.24-.02-.38-.05-.42-.1Zm.25,45.39c.3,0,.43.02.39.07.09.04.19.05.33.03.13-.02.24-.01.32.03-.35.04-.55.04-.62,0-.07-.04-.21-.09-.42-.13h-.33s.33,0,.33,0Zm.6-9.43v-.07s-.02-.06-.06-.07l.06.13Zm0-1.95s-.01.09-.03.13c-.02.04-.01.11.03.19v-.33Zm.15-9.36v-.13s-.07.13-.07.13h.07Zm0,1.95l-.07.26c0-.17.02-.26.07-.26l.06-.13c.04.22.05.3.03.26-.02-.04-.05-.09-.1-.13Zm.05,7.41c.09-.09.08-.11-.03-.06-.11.04-.12-.07-.03-.33,0-.22.02-.4.07-.55.04-.15.11-.2.2-.16-.04.22-.07.43-.07.65s-.04.37-.13.45Zm0-4.1c0,.13.01.26.03.39.02.13-.01.22-.1.26l.07-.65Zm-.07,1.04v.26c.04.13.1.22.16.26.07.04.03.17-.1.39l-.06-.65v-.26Zm.06,4.49l-.07.33v-.06s.07-.26.07-.26Zm.03-17.56v.46c0-.09.01-.18.03-.29.02-.11.01-.12-.03-.03v-.13Zm.05,8.84c.04.13.06.33.06.59s0,.35,0,.26c-.09-.04-.12-.17-.1-.39.02-.22.03-.37.03-.46Zm.38,3.71c-.04.26-.09.43-.13.52-.04.09-.11.24-.2.45-.09-.26-.09-.43,0-.52.09-.09.17-.11.26-.06.04-.22.04-.34,0-.36-.04-.02-.07-.08-.07-.16l.13.13Zm-.39,0c.04-.09.06-.2.07-.33,0-.09.02-.22.07-.39.04-.17.11-.26.2-.26-.09-.04-.14.05-.16.29-.02.24-.08.47-.16.68Zm.4-8.52s-.06.02-.06.06l-.07.13c0-.09.02-.13.07-.13,0-.3-.02-.48-.06-.52-.04.04-.07.11-.07.19v.2c-.09-.22-.08-.47.03-.75.11-.28.05-.36-.16-.23.04-.09.08-.22.1-.39.02-.17.08-.22.16-.13-.04.22-.06.49-.03.81.02.32.05.57.1.75.04.04.07.09.07.13-.04-.04-.07-.09-.07-.13Zm-.12-8.71v.39s-.13-.2-.13-.2l.13-.19Zm.22,24.45c.13.04.2.02.2-.06v-.26c0-.09.01-.19.03-.33.02-.13.06-.22.1-.26-.09-.04-.16-.09-.23-.13-.06-.04-.1.15-.1.59-.09-.35-.08-.53.03-.55.11-.02.08-.14-.1-.36,0,.22-.01.4-.03.55-.02.15-.03.25-.03.29v-.39c-.13.09-.16.23-.1.42.07.2.14.36.23.49Zm-.16-20.22v.26s.06.07.06.07l-.06-.33Zm.18,10.14c0,.09-.01.14-.03.16s-.03.06-.03.1c0,.22-.04.28-.13.19.04-.17.06-.24.06-.19s.02.04.07,0c0-.04,0-.09.03-.13.02-.04.03-.09.03-.13Zm.09-13.4c-.09.04-.12.02-.1-.07.02-.09.01-.17-.03-.26,0,.13-.02.26-.07.39-.04.13-.04.28,0,.46.09-.17.15-.35.2-.52Zm.86-6.63c-.65,0-.98.35-.98,1.04l-.05,28.61c0,.22.09.42.26.62.17.2.41.29.72.29h2.34c.26,0,.46-.09.59-.29.13-.19.2-.4.2-.62l.05-28.61c0-.69-.26-1.04-.78-1.04h-2.34Zm-.99,6.31s.04-.11,0-.19v.19Zm.07-4.49c0-.09.01-.15.03-.19.02-.04.03-.11.03-.2,0,.13-.02.26-.07.39Zm0,3.38s.07-.17.07-.39v-.19c0,.22,0,.33.03.33s.04-.03.07-.1c.02-.06.05-.2.1-.42,0,.26-.02.42-.07.49-.04.06-.11.16-.2.29Zm-.03,15.8c.09-.04.15-.17.2-.39.04-.22.04-.43,0-.65l-.2.78.07-.26-.07.52Zm.06,1.04l.07-.85h-.07s0-.07,0-.07l-.07.2.07-.13v.85Zm.04-21.26v.65c0-.09-.01-.17-.03-.26-.02-.09-.01-.22.03-.39Zm.2-.39c-.09.09-.15.13-.2.13.09-.09.15-.13.2-.13Zm-.08,11.05c.09-.26.15-.43.2-.52,0,.22-.01.34-.03.36-.02.02-.08.08-.16.16Zm.06,5.85c0,.22.02.31.06.29.04-.02.07.01.07.1h-.2s.07-.39.07-.39Zm.09-16.61c-.04.06-.06.14-.06.23v-.26c.09-.04.11-.03.06.03Zm.02,24.03s0-.08.03-.1.01-.08-.03-.16v.2s0,.06,0,.06Zm1.03-31.86l-.91-.07c.26,0,.42.01.49.03.07.02.21.03.42.03Zm-.95,26.33l.19-.26c-.04.17-.09.27-.13.29s-.06.01-.06-.03Zm.06,3.25v.06s-.07.45-.07.45l.07-.52Zm.01-6.89c0-.17.02-.26.07-.26v.52c0,.09-.01.08-.03-.03-.02-.11-.03-.18-.03-.23Zm.11,11.12l-.13.06.13-.06Zm-.05-6.05l.06-.2-.07.72v-.52Zm.03,18.01h.07s.09-.06.13-.06l-.07.06h-.13Zm.33-1.43h-.2s.13.06.13.06l.06-.06Zm.73-44.54l-.52-.07-.06.06h.58Zm-.27,7.22l.26.07.07-.06h-.33Zm.06-.19c.17,0,.27.02.29.07.02.04.12.04.29,0l-.59-.07Zm1.82.39c-.09-.09-.32-.12-.68-.1-.37.02-.66.03-.88.03.22.04.48.07.78.07h.78Zm.12,6.83l.07-.06s-.02.06-.07.06Zm.33-3.19c-.09.04-.15.08-.2.1-.04.02-.04.18,0,.49.09.04.13.04.13,0s.04,0,.13.13c.04-.09.05-.17.03-.26-.02-.09-.03-.15-.03-.2-.04.09-.05.15-.03.2.02.04.01.09-.03.13-.09-.26-.09-.46,0-.58l.13-.13s-.09.04-.13.13Zm-.19-.46v.26s.2-.19.2-.19l-.2-.07Zm.12,5.4l-.07.72c-.04-.26-.05-.37-.03-.33.02.04.05-.09.1-.39Zm.2-2.86s.07-.04.07-.13c-.04-.04-.07-.09-.07-.13-.04-.22-.08-.38-.1-.49-.02-.11-.08-.05-.16.16v.32c0-.09.02-.15.06-.19.04.13.04.25,0,.36-.04.11-.06.21-.06.29.04-.09.08-.2.1-.33.02-.13.08-.17.16-.13v.26c0,.13.02.22.06.26v-.06s0-.07,0-.07l-.07-.13Zm-.13,1.11c-.09-.09-.13-.07-.13.06v.33s.13-.39.13-.39Zm-.09,15.8c.09-.04.13.08.13.36v.62c-.09-.09-.1-.23-.03-.42.07-.19.03-.38-.1-.55Zm.13,1.82l-.07.39.06.07.07-.39-.07-.07Zm0,3.64l-.06.19.13.13-.06-.33Zm.15-11.77s-.07-.14-.06-.29v-.55c-.09.09-.11.26-.07.52.04.26.09.37.13.32Zm.08-9.75v-.19s-.2.19-.2.19h.2Zm0,3.97s-.05-.11-.03-.2c.02-.09-.01-.09-.1,0,.04.13.04.28,0,.46-.04.17-.02.28.06.33l.07-.59Zm-.1-18.21c.13,0,.22.01.26.03.04.02.09.03.13.03-.22,0-.35-.02-.39-.07Zm.29,22.17c-.04-.09-.09-.08-.13.03-.04.11-.04.25,0,.42l-.19-.2c.09,0,.13-.1.13-.29v-.36c.09-.04.12-.02.1.07-.02.09.01.19.1.33Zm-.05-11.57v.19s-.06.06-.06.06h-.07c0-.09.01-.18.03-.29.02-.11.05-.1.1.03Zm.02,24.97c-.09.09-.12.26-.1.52.02.26.01.43-.03.52-.04-.22-.06-.48-.06-.78s.07-.39.2-.26Zm-.2,1.89c.04-.09.07-.26.07-.52v.59s-.07-.07-.07-.07Zm.06,1.37l.2-.13h-.13s-.06.13-.06.13Zm.2-1.95c0,.17-.02.26-.07.26-.04.04-.05.1-.03.16.02.06,0,.12-.03.16-.04-.22-.04-.35,0-.39.04-.04.09-.11.13-.19v-.2s0,.2,0,.2Zm.13-37c-.17-.09-.15-.12.07-.1.22.02.41.03.58.03-.17,0-.29.02-.36.06-.07.04-.16.04-.29,0Zm.14,31.8l-.07.13-.06-.13-.07.39c-.09-.26-.09-.48,0-.65.09-.17.15-.32.2-.45,0,.09-.03.25-.1.49-.07.24-.03.31.1.23Zm-.12-3.32l.06.39-.19.26.13-.65Zm.26-1.43c-.04-.26-.09-.3-.13-.13-.04.17-.07.17-.07,0v.26c-.09-.22-.09-.33,0-.33s.11-.09.07-.26l.07.2c.04.09.06.07.06-.07s.02-.22.07-.26c.04.13.04.28,0,.46-.04.17-.07.22-.07.13Zm-.06-2.6v.39s-.07-.13-.07-.13h-.13s0,.2,0,.2v-.2c0-.13,0-.26,0-.39s.04-.2.13-.2c-.04.04-.07.15-.07.33s.04.24.13.2v-.2Zm.08-7.67c-.04-.17-.05-.28-.03-.33.02-.04.03-.11.03-.2.09.09.09.26,0,.52Zm.03,18.08v.26s.09-.1.13-.16c.04-.06.06-.05.06.03-.04.09-.08.21-.1.36-.02.15-.06.23-.1.23.09-.22.09-.38,0-.49-.09-.11-.09-.18,0-.23Zm.1-18.53c-.09-.26-.1-.4-.03-.42.07-.02.12-.12.16-.29.04.22.03.34-.03.36-.06.02-.1.14-.1.36Zm-.08,11.57v.13s0-.13,0-.13c.09-.13.1-.24.03-.33-.07-.09-.05-.2.03-.33.09.17.11.3.06.39-.04.09-.09.17-.13.26Zm.05-27.77h1.11c-.13,0-.27.01-.42.03-.15.02-.38.01-.68-.03Zm.13,36.09v.26s0,.19,0,.19v-.19s0-.26,0-.26Zm.15-12.61h.06s-.07.39-.07.39h-.07s.07-.39.07-.39Zm-.02,12.94c0,.13.04.07.13-.2-.09.09-.13.15-.13.2ZM37.72.95c-.22-.09-.45-.13-.71-.13.22,0,.46.04.71.13Zm.77,45.19c-.09.13-.07.19.06.19s.3-.04.52-.13c.22-.09.43-.19.65-.32.22-.13.37-.22.46-.26-.04-.09-.05-.17-.03-.26.02-.09-.27.09-.88.52.26-.22.44-.36.55-.42.11-.06.2-.11.26-.13.07-.02.12-.06.16-.13.04-.06.11-.18.19-.36-.22.22-.45.41-.68.58-.24.17-.4.26-.49.26l.59-.39c-.22.04-.43.17-.65.39-.22.22-.46.37-.72.45Zm1.82-2.21l.07-.07s-.02-.06-.07-.07v.13Zm.26-.26l-.07.13c.17-.17.3-.32.39-.45-.09.13-.19.24-.32.32Zm.91.26c-.09.13-.2.26-.33.39.04-.09.09-.15.13-.2.04-.04.11-.11.2-.19Zm-.06-2.67l-.13.46c.04-.09.07-.16.07-.23s.02-.14.06-.23Zm.16-16.13v-.19s-.06.19-.06.19h.06Zm0,3.45l-.07.32c0-.26.02-.37.07-.32l.07-.33c.04.39.05.55.03.49-.02-.06-.05-.12-.1-.16Zm.04,12.68c.09-.17.08-.22-.03-.13-.11.09-.12-.07-.03-.46,0-.35.02-.66.07-.94.04-.28.11-.38.2-.29-.04.35-.07.7-.07,1.07s-.04.62-.13.75Zm.39-36.67c-.04-.09-.08-.18-.1-.29-.02-.11-.05-.21-.1-.29-.04-.13-.11-.24-.19-.33.17.35.27.51.29.49s.02-.1,0-.23c-.02-.13-.08-.28-.16-.46-.09-.17-.13-.28-.13-.32.22.43.32.72.32.85s.02.33.06.59Zm-.38,29.72c0,.17,0,.38.03.62.02.24-.01.38-.1.42l.07-1.04Zm-.07,1.82v.33c.04.22.1.38.16.49.06.11.03.31-.1.62l-.06-1.11v-.33Zm.1-22.69v.78c0-.09,0-.22.03-.39.02-.17.01-.19-.03-.06v-.33Zm.04,15.35c.04.22.06.53.06.94s0,.58,0,.49c-.09-.04-.12-.25-.1-.62.02-.37.03-.64.03-.81Zm.38,6.37c-.04.48-.09.78-.13.91-.04.13-.11.37-.2.71-.09-.43-.09-.73,0-.88.09-.15.17-.18.26-.1.04-.35.04-.53,0-.55-.04-.02-.06-.12-.06-.29l.13.2Zm-.39,0c.04-.17.07-.35.07-.52,0-.13.02-.36.07-.68.04-.32.11-.47.2-.42-.09-.09-.14.08-.16.49-.02.41-.08.79-.16,1.14Zm.41-14.7s-.07.02-.07.06c0,.09-.01.14-.03.16s-.03.05-.03.1c0-.13.02-.22.06-.26v-.52c0-.17-.02-.3-.06-.39-.04.04-.07.15-.07.32v.39c-.04-.17-.05-.38-.03-.62.02-.24.04-.46.07-.65.02-.2.03-.35.03-.46s-.07-.1-.2.03c.04-.17.08-.41.1-.72.02-.3.08-.37.16-.2-.04.35-.06.81-.03,1.4.02.58.05,1.03.1,1.33.04.04.07.13.06.26,0-.04-.01-.07-.03-.1-.02-.02-.03-.08-.03-.16Zm-.17-15.02c0,.09.01.19.03.32.02.13.03.24.03.33-.04-.09-.07-.14-.07-.16,0-.02-.02-.08-.06-.16,0-.04,0-.09.03-.13.02-.04.03-.11.03-.19Zm.12,7.28v.33s.06.19.06.19l-.06-.52Zm.17,17.49c0,.09-.01.16-.03.23-.02.06-.03.14-.03.23-.04.09-.07.09-.07,0s-.02.02-.07.33c.09.09.13-.02.13-.32,0-.04,0-.1.03-.16.02-.06.03-.16.03-.29Zm.1-23.15c-.04.26-.08.44-.1.55-.02.11-.06.23-.1.36-.04-.35-.04-.62,0-.81.04-.2.07-.4.07-.62.04.17.05.32.03.46-.02.13,0,.15.1.07Zm-.13-.52c.04-.09.05-.16.03-.23-.02-.06-.03-.14-.03-.23v.46Zm.02,25.36c.09-.04.15-.25.2-.62.04-.37.04-.75,0-1.14l-.2,1.36.07-.45-.07.85Zm.06,1.82l.07-1.5h-.06s0-.07,0-.07l-.07.26.07-.2v1.5Zm.16-18.34c.04-.17.08-.35.1-.52.02-.17.05-.33.1-.45,0,.35-.01.57-.03.68-.02.11-.08.21-.16.29Zm.05,10.14c0,.35.02.5.06.46.04-.04.07.02.07.19l-.2-.07.07-.59Zm.11,12.62v-.26s0,.33,0,.33v-.06Zm.08-9.43l.2-.45c-.04.3-.09.48-.13.52-.04.04-.07.02-.07-.07Zm.06,5.59v.13s-.07.85-.07.85l.07-.97Zm-.08,7.61c.04-.13.09-.17.13-.13l-.13.13Zm.1-19.51v-.23c0-.11.02-.16.07-.16v.85c0,.17-.01.16-.03-.03-.02-.2-.03-.34-.03-.42Zm.05,8.84l.07-.39-.07,1.24v-.85Z"/><path class="cls-1" d="m47.56,25.22c0-.3.03-.5.1-.59.06-.09.12-.11.16-.06l-.2,2.34c.04.22.06.37.06.46s.01.13.03.13.05-.09.1-.26l-.13.91.07-.06c.08,1.78.04,3.49-.14,5.14-.18,1.65-.16,3.36.06,5.14v-.07s-.2,2.15-.2,2.15c0,.17.03.33.1.46.07.13.12.33.16.59-.13-.13-.15,0-.07.39s.15.67.19.85c.13.22.18.26.16.13-.02-.13-.03-.24-.03-.33.43.82.86,1.5,1.3,2.02.3.26.62.51.94.75.32.24.68.4,1.07.49-.39-.09-.7-.18-.94-.29-.24-.11-.44-.23-.62-.36-.17-.09-.34-.2-.49-.33s-.34-.33-.55-.59c.22.35.42.6.62.75.2.15.4.29.62.42.22.13.44.25.68.36.24.11.53.21.88.29-.26-.09-.48-.17-.65-.26.09,0,.3.04.65.13.13,0,.25.01.36.03.11.02.25.03.42.03.35,0,.64.01.88.03.24.02.4-.01.49-.1.61,0,1.17.05,1.69.13.52.09,1.13.13,1.82.13l-.58-.26h1.3s0,.13,0,.13c.35.04.56.02.65-.06.48.09,1,.13,1.56.13s1.15.04,1.76.13v.06s0-.06,0-.06c-.09-.04-.12-.1-.1-.16.02-.06-.01-.16-.1-.29v.13s0,.06,0,.06l-.06.06c.09.04.15.1.19.16s.04.08,0,.03c0,.04.02.06.07.07v-.06s-.02-.06-.07-.07c-.09,0-.13-.02-.13-.07-.09-.09-.13-.12-.13-.1,0,.02,0,0,0-.03v-.13s0-.72,0-.72c.09.35.13.39.13.13v-.72s-.02.09-.06.13c-.04-.61,0-1.06.1-1.37.11-.3.1-.65-.03-1.04l.13-.19-.06-.98c.09-.04.13-.28.13-.72v-.39s.04-.09.13-.13l-.06-.07v.07s-.07,0-.07,0v.06s-.2,0-.2,0c-.17-.04-.34-.07-.49-.07h-.42c-.69-.09-1.15-.09-1.37,0-.43-.09-.88-.12-1.33-.1-.46.02-.86,0-1.2-.03l-.07.13c-.22,0-.41-.01-.58-.03-.17-.02-.37-.03-.58-.03l.13.07c-.22,0-.4-.01-.55-.03-.15-.02-.32-.03-.49-.03s-.4-.03-.68-.1-.51-.23-.68-.49c-.17-.26-.26-.5-.26-.72s-.02-.39-.06-.52c0-.43.02-.74.07-.91-.09.04-.14.09-.16.13-.02.04-.03.24-.03.58-.09-.56-.08-1.27,0-2.11.09-.85.13-1.7.13-2.57l-.06.13.07-.98c0,.09-.01.12-.03.1-.02-.02-.05-.03-.1-.03,0-.82.01-1.67.04-2.54.02-.87.1-1.52.23-1.95,0,.13-.01.16-.03.1-.02-.06-.05-.13-.1-.19-.04-.07-.08-.1-.1-.1s-.03.13-.03.39c.09-.87.13-1.79.13-2.76s.02-1.92.07-2.83l.07-.78-.06-.07v.58c0-.39.01-.75.03-1.07.02-.33.05-.64.1-.94-.04-.09-.09-.18-.13-.29-.04-.11-.06-.27-.06-.49.04,0,.05-.12.03-.36-.02-.24-.04-.52-.06-.85-.02-.33-.03-.66-.03-1.01s.02-.63.07-.85c-.04-.09-.05-.05-.03.1.02.15,0,.14-.03-.03,0-.56.01-1.19.04-1.89.02-.69.03-1.41.04-2.15.04-.35.07-.7.07-1.07v-1.14c-.04-.22,0-.48.13-.78.13-.3.35-.52.65-.65.22-.09.48-.13.78-.13l.52-.06c.04.09.2.15.49.2.28.04.62.08,1.01.1.39.02.8.03,1.24.03s.85.02,1.24.07c.09-.04.1-.08.03-.1-.07-.02-.19-.03-.36-.03h-.52c-.17,0-.3-.02-.39-.07.22,0,.36,0,.42-.03.07-.02.13-.04.2-.06.06-.02.16-.04.29-.06.13-.02.37,0,.72.03h-.26c.17,0,.27,0,.29,0s.03.02.03.06.04.07.13.07h.58s.07-.13.07-.13l.78.2h.46s.26,0,.26,0c0-.04,0-.05.03-.03.02.02.03.01.03-.03.09,0,.17-.13.26-.39.04-.22.05-.49.03-.81-.02-.33-.03-.62-.03-.88v-1.76c0-.56-.02-1.13-.06-1.69,0-.22.04-.15.13.2-.04-.22-.04-.47,0-.75.04-.28.02-.51-.06-.68-.04-.17-.19-.26-.45-.26-.39,0-.69.02-.91.06l.33.07h-1.14c-.28,0-.55-.02-.81-.07-.26-.04-.55-.09-.88-.13-.33-.04-.77-.07-1.33-.07.26,0,.61.01,1.04.03.43.02.69,0,.78-.1-.09-.04-.35-.07-.78-.07s-.76.02-.97.06l.19-.19c.17.09.43.13.78.13s.67.02.98.07l-.26-.13c.3.04.63.07.98.07s.74.02,1.17.07h-1.17c.22.09.61.11,1.17.06.56-.04.95-.02,1.17.07.04-.09-.03-.15-.23-.2-.2-.04-.1-.07.29-.06.26.09.43.22.52.39.09.17.13.33.13.46s-.01.23-.03.29c-.02.06-.03.14-.03.23-.04.13-.09.27-.13.42-.04.15-.09.47-.13.94l-.06-.33c0,.3-.03.59-.1.85-.07.26-.06.61.03,1.04.09,0,.13-.12.13-.36s.02-.44.07-.62c.04.09.02.3-.07.65-.09.35-.11.67-.07.98.09-.26.15-.68.2-1.27.04-.59.07-1.12.07-1.59,0,.17.04.17.13,0-.04.74-.08,1.46-.1,2.18-.02.71-.06,1.44-.1,2.18,0,.17-.01.35-.03.52-.02.17-.08.33-.16.45-.13.26-.44.35-.91.26h-1.07c-.37,0-.73.02-1.07.06.39.04.57.08.55.1s-.11.03-.26.03h-.46c-.15,0-.19.02-.1.06-.13-.09-.38-.11-.75-.07-.37.04-.75.04-1.14,0-.09.04-.05.08.1.1.15.02.31.04.49.07.17.02.31.03.42.03s.08.02-.1.06c-.65-.04-1.47-.11-2.47-.2-.22,0-.46-.02-.72-.07-.26-.04-.5-.04-.71,0-.26.09-.41.26-.46.52-.04.26-.07.5-.07.72.04-.09.07-.2.07-.36s.02-.25.06-.29c-.04.61-.12,1.27-.23,1.98s-.1,1.31.03,1.79c.09-.35.14-.67.16-.97.02-.3.08-.63.16-.98v.26c0,.09.02.24.06.46l.07-.45c0,.39-.01.67-.03.85-.02.17-.06.3-.1.39-.04.09-.09.17-.13.26-.04.09-.09.24-.13.45l.19.98c.04.87.04,1.68,0,2.44-.05.76-.13,1.4-.26,1.92,0,.17,0,.47.03.88.02.41.07.49.16.23.09-.43.16-.82.23-1.17.07-.35.1-.95.1-1.82-.04-.04-.08,0-.1.13-.02.13-.03.26-.03.39s-.01.24-.03.33c-.02.09-.03.06-.03-.07.04-.35.04-.78,0-1.3-.04-.52-.02-.93.07-1.24v1.89c.08-.04.1-.2.06-.46-.04-.26-.02-.48.07-.65.09.22.1.55.03,1.01-.07.45-.06.88.03,1.27v-.13c0,.35-.01.62-.03.81-.02.2-.03.37-.03.52v.52c0,.19,0,.49,0,.88-.09.04-.13-.05-.13-.29s-.02-.53-.06-.88c-.04,1.17-.11,2.48-.2,3.93-.09,1.45-.05,2.79.12,4l.2-1.43c0,.48-.02,1-.07,1.56-.04.56,0,.82.13.78-.04-.48-.04-.72,0-.72s.09-.13.13-.39v-.06c0-.09,0-.17,0-.26s.02-.09.07,0c-.09.39-.14.86-.16,1.4-.02.54-.06,1.03-.1,1.46.04-.22.08-.19.1.07.02.26.05.41.1.46,0,.22-.01.34-.03.36s-.04,0-.06-.07c-.02-.06-.06-.18-.1-.36,0,.22-.03.48-.1.78-.07.3-.06.56.03.78.04.17.07.23.1.16.02-.06.03-.17.03-.32s.01-.31.03-.49c.02-.17.05-.28.1-.33l-.2,2.47.06-.06c-.09.3-.11.59-.07.85.04.13.08.1.1-.1.02-.2.01-.4-.03-.62.09.65.07,1.24-.04,1.76-.11.52-.1,1.08.03,1.69l-.07.72s0,.08.03.1c.02.02.03.01.03-.03-.04.17-.04.33,0,.46.09.17.17.25.26.23.09-.02.11-.05.06-.1,0-.09.02-.13.07-.13.13,0,.26-.02.39-.06.13-.04.11-.06-.06-.07l1.43.13c.13.04.33.08.62.1.28.02.57.06.88.1.3.04.55.09.75.13.2.04.29.09.29.13.22,0,.38,0,.49-.03.11-.02.12-.05.03-.1h.42s.03-.02.03-.06.05-.06.16-.06h.81s-.15-.06-.45-.06c.22-.04.38-.05.49-.03.11.02.18.03.23.03l.13-.13c0,.09.13.13.39.13h.39c.26,0,.43.04.52.13-.13-.13-.27-.21-.42-.23-.15-.02-.27-.05-.36-.1.09,0,.18.01.29.03.11.02.27.08.49.16.39.17.65.52.78,1.04,0-.26-.06-.52-.19-.78.13.26.2.46.23.59.02.13.03.22.03.26s-.02.09-.07.13v.06c-.04.09-.06.16-.06.23s.02.27.06.62c-.04-.22-.06-.42-.06-.62s-.06-.47-.19-.81c.09.17.13.39.13.65-.04.09-.06.2-.07.33s-.04.24-.13.32c-.04.09-.08.15-.1.19-.02.04-.06.15-.1.33-.09.74-.1,1.53-.04,2.37.06.85,0,1.57-.17,2.18.04.09.09.13.13.13s.07.11.06.33c.09-.48.14-.87.16-1.17.02-.3.08-.56.16-.78.04-.43.04-.71,0-.85-.04-.13-.09-.24-.13-.33-.04-.09-.09-.21-.13-.36-.04-.15-.02-.49.07-1.01.09.09.14.26.16.52.02.26,0,.54-.03.85.09.04.14-.07.16-.36.02-.28.05-.53.1-.75-.04.61-.05,1.27,0,1.98s.06,1.25.06,1.59c0,.13-.02.26-.07.39,0,.26-.07.48-.2.65-.09.22-.23.41-.42.58-.2.17-.4.26-.62.26-.39-.04-.68-.09-.88-.13-.19-.04-.35-.09-.45-.13-.11-.04-.1-.09.03-.13-.3,0-.52,0-.65.03-.13.02-.25.04-.36.06-.11.02-.23.04-.36.06-.13.02-.35-.01-.65-.1.13.04.16.08.1.1-.06.02-.15.04-.26.06-.11.02-.19.03-.23.03s0,.02.13.07c.22-.09.59-.09,1.11,0,.52.09.95.15,1.3.2l-1.82.13c.22-.04.23-.09.03-.13-.2-.04-.36-.07-.49-.07l-.26.13c-.09-.09-.3-.12-.65-.1-.35.02-.74.04-1.17.06-.43.02-.87.03-1.3.03s-.78-.05-1.04-.13c.3,0,.57-.01.81-.03.24-.02.42.01.55.1.26,0,.4-.02.42-.06.02-.04,0-.08-.06-.1-.07-.02-.13-.05-.2-.1-.07-.04-.03-.09.1-.13-.39-.04-.85-.06-1.37-.03-.52.02-1.04.03-1.56.03h-.78c-.26,0-.54-.05-.84-.13-.56-.13-1.02-.35-1.37-.65.13.17.34.31.62.42.28.11.44.21.49.29-.74-.18-1.39-.56-1.95-1.14-.56-.59-1.02-1.23-1.36-1.92v.33c-.17-.3-.28-.5-.32-.59-.04-.09-.09-.15-.13-.2-.09-.09-.16-.17-.23-.26-.06-.09-.14-.3-.23-.65.04,0,.09.02.13.07.04.04.02-.02-.06-.19-.09-.26-.14-.42-.16-.49s-.04-.09-.06-.07-.04.03-.07.03-.05-.11-.1-.33c.04-.39.07-.65.07-.78s-.02-.25-.06-.36c-.04-.11-.08-.25-.1-.42-.02-.17,0-.48.03-.91l-.07.13c.09-.74.09-1.53,0-2.37-.09-.85-.15-1.64-.19-2.37,0,.04.01.13.03.26.02.13.03.26.03.39s0,.25.03.36c.02.11.05.14.1.1l.07-1.89c-.04-.09-.07-.25-.06-.49s-.04-.23-.13.03c0,.13,0,.26.03.39.02.13.03.24.03.33l-.13-.26c.04-.43.09-.67.13-.72.04-.04.08,0,.1.13s.05.27.1.42c.04.15.09.23.13.23-.04-.48-.03-.82.03-1.04.06-.22.1-.5.1-.85-.04-.09-.08-.08-.1.03-.02.11-.06.23-.1.36-.04.13-.08.22-.1.26-.02.04-.05-.04-.1-.26v-.62c0-.28.01-.57.03-.88.02-.3.04-.6.07-.88.02-.28.05-.51.1-.68-.09-.22-.14-.53-.16-.94-.02-.41-.03-.82-.03-1.24s0-.77-.03-1.07c-.02-.3-.08-.46-.16-.46.09.09.13-.15.13-.72l-.07.26c-.09-.65-.06-1.06.07-1.24.13-.17.17-.45.13-.84-.04,0-.07.04-.07.13s-.02.17-.06.26c-.09-.87-.06-1.63.07-2.28s.15-1.41.07-2.28c0,.04-.01.09-.03.13-.02.04-.01.11.03.2-.09.09-.09-.2,0-.85l.13.65c.17-.48.2-1.06.07-1.76-.13-.69-.17-1.41-.13-2.15-.04.09-.06.28-.07.58s-.02.33-.07.06c0-.48.04-.79.13-.94.09-.15.11-.51.07-1.07-.04.26-.1.41-.16.45-.06.04-.1.17-.1.39-.09-.82-.09-1.32,0-1.5,0-.22-.04-.33-.13-.33.09-.22.12-.5.1-.85-.02-.35-.05-.63-.1-.85l-.06.13c.22-.48.27-.9.16-1.27-.11-.37-.14-.86-.1-1.46l-.13.19c.04-.3.08-.63.1-.97.02-.35.01-.78-.03-1.3-.09.26-.13.46-.13.59,0-.48.08-1.02.23-1.63.15-.61.36-1.02.62-1.23.04-.04.04-.05,0-.03-.04.02-.09.04-.13.06-.04.02-.05-.01-.03-.1.02-.09.12-.26.29-.52.09-.13.27-.32.55-.58s.47-.48.55-.65c-.13-.09-.28.02-.46.32-.09.09-.11.12-.06.1.04-.02.09-.05.13-.1-.09.09-.15.14-.2.16-.04.02-.09.08-.13.16.13-.22.24-.37.33-.45.09-.09.17-.16.26-.23s.18-.14.29-.23c.11-.09.27-.22.49-.39.09-.09.04-.09-.13,0-.17.09-.3.15-.39.19.52-.43,1.03-.67,1.53-.71.5-.04.77-.06.81-.06s.22-.02.52-.06c0,.04.02.06.07.07-.17,0-.21.01-.1.03.11.02.49.08,1.14.16.65.09.16.51-1.47,1.27-1.63.76-2.51,1.37-2.64,1.85-.13.48-.26.89-.39,1.23-.13.35-.2.51-.2.49v-.16c0-.09,0-.17,0-.26s-.04-.02-.13.2c-.09.39-.11.59-.07.59s.07.11.06.32c-.09.04-.13.1-.13.16s-.04.14-.13.23c0,.26,0,.4.03.42.02.02.05.01.1-.03v.19s.06.33.06.33c.04-.22.08-.39.1-.52.02-.13.05-.22.1-.26-.04.09-.08.3-.1.65-.02.35-.01.63.03.85.04-.22.07-.37.07-.45v-.16s0,.05,0,.23v1.63c0,.43,0,.84.03,1.2.02.37.04.76.06,1.17.02.41.03.9.03,1.46l.07-.19c0,.13-.01.25-.03.36-.02.11-.01.21.03.29l.07-.13c0,.09-.01.28-.03.59-.02.3-.03.66-.03,1.07s-.01.84-.03,1.27c-.02.43-.03.85-.04,1.24l.13-.78-.13,1.37.2-.19c-.09.26-.12.73-.1,1.4.02.67,0,1.31-.04,1.92h.13s-.07.78-.07.78l.06-.26c0,.39-.03.8-.1,1.24-.07.43-.08.87-.03,1.3Zm-1.48-12.36c0,.09-.02.15-.06.2v-.13s.06-.07.06-.07Zm.27-6.11c-.09.04-.15.11-.2.19-.04.09-.04.43,0,1.04.09.04.13.02.13-.06s.04-.02.13.2c.04-.22.06-.39.03-.52-.02-.13-.03-.24-.03-.33-.04.13-.06.25-.03.36.02.11,0,.19-.03.23-.09-.43-.09-.8,0-1.11.09-.09.13-.19.13-.32-.04,0-.07.02-.07.06s-.01.09-.03.13c-.02.04-.03.09-.03.13Zm-.06-.91c0,.09-.01.17-.03.26-.02.09-.03.17-.03.26.04-.09.09-.16.13-.23.04-.06.09-.14.13-.23l-.2-.07Zm.19,5.14c.04-.09.07-.22.07-.39-.04-.04-.07-.09-.07-.13v-.06c-.04-.39-.07-.7-.1-.94-.02-.24-.08-.16-.16.23v.72s0-.26,0-.26l.06-.06c.04.22.04.42,0,.62-.04.2-.07.38-.07.55.04-.09.08-.27.1-.55.02-.28.08-.38.16-.29v.58c0,.17.02.3.06.39v-.06c0-.13-.02-.24-.06-.33Zm-.13,2.08c-.09-.13-.13-.05-.13.23v.55s.13-.78.13-.78Zm-.07,3.45l-.07,1.5v-.58c0-.09,0-.14,0-.16s0-.08.03-.16c.02-.09.03-.28.03-.59Zm.33-4.03v-.39s-.2.46-.2.46l.2-.07Zm-.16,18.7v-1.01c-.04.09-.06.22-.06.39s.01.36.03.55c.02.19.05.42.1.68-.04-.09-.06-.29-.06-.62Zm.15-10.83c-.04-.09-.05-.19-.03-.32.02-.13-.01-.15-.1-.07.04.26.04.56,0,.91-.04.35-.02.58.06.72l.07-1.24Zm.18,7.8c-.09-.22-.12-.4-.1-.55.02-.15-.01-.18-.1-.1v.68c0,.37-.05.55-.13.55l.19.33c-.04-.3-.04-.56,0-.78.04-.22.09-.26.13-.13ZM61.91,1.45c.22,0,.4.1.55.29.15.2.23.4.23.62v5.79c-.01.69-.27,1.04-.79,1.04h-7.28c-.61-.01-.91.29-.91.9l-.05,28.03c0,.69.3,1.04.91,1.04h7.28c.52.01.78.32.78.92v5.85c-.01.69-.27,1.04-.79,1.04l-9.88-.02c-.65,0-1.29-.18-1.92-.52-.63-.35-1.2-.8-1.72-1.37-.52-.56-.93-1.17-1.23-1.82-.3-.65-.45-1.3-.45-1.95l.06-34.33c0-.61.15-1.24.46-1.88.3-.65,1.03-1.42,2.18-2.3,1.15-.89,2.05-1.33,2.7-1.33l9.88.02Zm-14.83,4.01c.09-.26.08-.3-.03-.13-.11.17-.21.37-.29.58.04-.04.07-.05.07-.03,0,.02.02-.01.06-.1.04-.09.08-.14.1-.16.02-.02.05-.08.1-.16Zm-.19,36.22c0-.22.01-.44.03-.68.02-.24.03-.47.03-.68l.06.85c-.09.26-.13.43-.13.52Zm.33-4.16c0-.26-.01-.38-.03-.36s-.04.08-.07.16c-.02.09-.04.15-.06.19-.02.04-.03,0-.03-.13v.46c-.09-.39-.09-.61,0-.65.09-.04.11-.2.07-.46l.06.33c.04.17.07.12.07-.16s.02-.44.07-.49c.04.22.04.51,0,.88-.04.37-.07.45-.07.23Zm-.06-5.07v.72s-.07-.26-.07-.26c-.04,0-.08-.01-.1-.03-.02-.02-.03.01-.03.1v.33s0-.33,0-.33v-.78c0-.26.04-.41.13-.45-.04.09-.07.3-.07.65s.04.5.13.46v-.39Zm.09-15.15c-.04-.3-.05-.5-.03-.59.02-.09.03-.24.03-.46.04.09.07.23.06.42s-.02.4-.07.62Zm-.05,26.99s.05,0,.16.1c.11.11.23.25.36.42.13.17.27.35.42.52.15.17.29.28.42.33-.22-.04-.43-.23-.65-.55s-.45-.6-.71-.81Zm.18-27.9c-.09-.48-.1-.75-.03-.81.06-.06.12-.25.16-.55.04.39.03.63-.03.72-.07.09-.1.3-.1.65Zm-.1,22.89v.13s0-.13,0-.13c.09-.3.1-.54.03-.72-.07-.17-.05-.37.03-.58.09.3.11.55.06.75-.04.2-.09.38-.13.55Zm.34-8.52l.06.07-.07.78-.07-.07.07-.78Zm1.99,14.89l.13.2-.2-.13c.13.13.32.28.58.46-.48-.17-.81-.4-1.01-.68-.19-.28-.36-.53-.49-.75.09.17.27.41.55.72.28.3.42.37.42.2Zm.39,1.04c.13.09.37.22.72.39h.06c-.13-.09-.25-.15-.36-.2-.11-.04-.23-.11-.36-.2h-.07Zm1.05-45.52s.11-.06.2-.06c-.04,0-.08.01-.1.03-.02.02-.05.03-.1.03Zm.98.2h1.56c.61,0,1.13.03,1.56.07-.22,0-.49.01-.81.03-.33.02-.65.03-.98.03s-.62-.01-.88-.03c-.26-.02-.41-.05-.45-.1Zm1.07,21.07v-.26s-.07.2-.07.2l.07.07Zm0,3.84l-.07.39c0-.3.02-.43.07-.39l.07-.33c.04.48.05.66.03.55-.02-.11-.05-.18-.1-.23Zm.05,6.57c0,.22,0,.46.03.72.02.26-.01.43-.1.52l.07-1.24Zm-.07,2.02v.46c.04.22.1.4.16.55.07.15.03.4-.1.75l-.06-1.3v-.46Zm.5-25.81c.09-.09.21-.17.36-.26.15-.09.18-.09.1,0-.22.09-.4.24-.55.45-.15.22-.25.43-.29.65,0-.17.09-.39.26-.65.09-.13.15-.22.2-.26.04-.04.02-.02-.07.06Zm-.35,17.49c0,.13,0,.29.03.49.02.19.03.39.03.59v.49c0,.13,0,.17,0,.13-.09-.09-.12-.35-.1-.78.02-.43.03-.74.03-.91Zm.38,7.28c-.04.52-.09.87-.13,1.04-.04.17-.11.45-.2.85-.09-.52-.09-.87,0-1.04.09-.17.17-.22.26-.13.04-.35.04-.54,0-.58-.04-.04-.07-.17-.06-.39l.13.26Zm-.39-.07c.04-.13.07-.3.07-.52,0-.17.02-.44.07-.81.04-.37.11-.53.2-.49-.04-.04-.08,0-.1.13-.02.13-.04.29-.07.49-.02.19-.04.4-.07.62-.02.22-.06.41-.1.58Zm.42-16.71s-.07.02-.07.06-.01.08-.03.1c-.02.02-.03.05-.03.1v.06c0-.13.02-.22.07-.26v-.59c0-.22-.02-.37-.06-.46-.04.09-.06.23-.07.42v.42c-.04-.17-.05-.4-.03-.68.02-.28.04-.54.07-.78.02-.24.03-.42.03-.55s-.06-.13-.19,0c.04-.13.08-.37.1-.72.02-.35.08-.43.16-.26-.04.43-.06.98-.03,1.63.02.65.05,1.15.1,1.5.04.04.06.13.06.26,0-.04-.01-.08-.03-.1-.02-.02-.03-.08-.03-.16Zm2.04,22.63c-.09-.04-.13-.05-.13-.03v.06s-.03.04-.1.06c-.06.02-.23.01-.49-.03h-.65c-.35-.09-.58-.22-.71-.39-.13-.22-.19-.37-.19-.46s.02-.09.06,0c.09.26.28.43.59.52.17.09.41.13.71.13.35,0,.65.04.91.13Zm-1.93-11.51c0,.09-.01.17-.03.26-.02.09-.03.17-.03.26-.04.09-.06.09-.06,0s-.02.04-.07.39c.09.09.13-.04.13-.39,0-.04.01-.1.03-.16s.03-.18.03-.36Zm0,1.95c.09-.09.15-.34.2-.75.04-.41.04-.83,0-1.27l-.2,1.5.07-.52-.07,1.04Zm.06,2.02l.07-1.69-.07.07v-.13s-.06.33-.06.33l.06-.19v1.63Zm.17-20.87c.04-.22.08-.41.1-.58.02-.17.05-.35.1-.52,0,.43-.01.71-.03.81-.02.11-.08.21-.16.29Zm.05,11.57c0,.35.02.5.06.46.04-.04.06.04.06.26l-.2-.07.07-.65Zm.11,14.5s.01-.1.03-.16c.02-.06.01-.14-.03-.23v.39Zm.08-10.86l.2-.52c-.04.35-.09.54-.13.59-.04.04-.06.02-.06-.07Zm.05,6.37v.13s-.07.98-.07.98l.07-1.11Zm.02-13.53v-.29c0-.11.02-.16.07-.16v.91c0,.22-.01.22-.03,0-.02-.22-.03-.37-.03-.46Zm.05,10.08l.07-.46-.07,1.37v-.91Zm-.02,9.1s.07.01.07.03.04.03.13.03c-.09,0-.15-.02-.2-.07Zm1.23-36.74l-1.11-.07c.35,0,.54.01.58.03.04.02.22.03.52.03Zm-1.12,7.35c.09,0,.15-.02.19-.06h.46c-.13.04-.35.07-.65.06Zm1.38-7.54l-.58-.07-.07.06h.65Zm-.73,44.74h.58c-.09-.04-.21-.09-.36-.13-.15-.04-.12-.07.1-.07.13.04.36.08.68.1.33.02.49.05.49.1-.39-.09-.72-.09-.98,0-.26.09-.43.09-.52,0Zm.66-6.44c.09,0,.17.01.26.03.09.02.2.01.33-.03h-.58Zm.52-1.3c-.17-.09-.22-.13-.13-.13l.13.13Zm.57,8.26c.13.09.45.12.98.1.52-.02.87,0,1.04.03-.22,0-.46,0-.71.03-.26.02-.51.03-.75.03s-.42-.01-.55-.03c-.13-.02-.13-.08,0-.16Zm.32.39l.39.07.26-.13-.65.06Zm.65-1.1h.52s.39,0,.39,0h-.39s-.52,0-.52,0Zm.72-.13c.17,0,.04-.04-.39-.13.17.09.3.13.39.13Zm-.18-44.67c.17,0,.28.01.33.03.04.02.09.03.13.03-.22,0-.37-.02-.45-.07Zm.13,38.37l.71.07h-.2s-.52-.07-.52-.07Zm.39-38.5c-.22-.09-.19-.12.07-.1.26.02.48.03.65.03-.17,0-.3.02-.39.06-.09.04-.19.04-.33,0Zm.51,45.58c.35,0,.5.02.45.07.09.04.2.05.36.03.15-.02.27-.01.36.03-.39.04-.63.04-.71,0-.09-.04-.24-.09-.45-.13h-.39s.39,0,.39,0Zm-.05-45.45h1.24c-.13,0-.28.01-.46.03-.17.02-.43.01-.78-.03Zm0,38.63l.2-.06h-.13s-.07.06-.07.06Zm1.22,7.03h-.97s1.04,0,1.04,0h-.07Zm2.03-7.15c.09.09.15.07.19-.06,0-.22-.11-.43-.32-.65-.13-.09-.28-.14-.45-.16-.17-.02-.3-.05-.39-.1-.3,0-.48-.02-.52-.07-.04.09-.11.16-.2.23s.3.1,1.17.1c-.39.04-.66.05-.81.03-.15-.02-.27-.04-.36-.07-.09-.02-.16-.03-.23-.03s-.21.04-.42.13c.35,0,.69.01,1.04.03.35.02.54.03.58.03h-.78c.22.13.5.15.85.07.35-.09.56.09.65.52Zm-1.05-30.5c-.3,0-.52-.02-.65-.07-.13-.04-.26-.09-.39-.13.35-.04.64-.03.88.03s.49.08.75.03c-.22.04-.39.05-.52.03-.13-.02-.15.01-.06.1Zm-.18-7.93c-.09,0-.2-.01-.33-.03-.13-.02-.28-.03-.46-.03.3,0,.56.02.78.07Zm.38,46.17s.09-.01.13-.03c.04-.02.09-.03.13-.03-.04,0-.08.01-.1.03-.02.02-.05.03-.1.03h-.06Zm.39-38.36c.13-.04.26-.13.39-.26-.13.13-.26.22-.39.26Zm.39-1.04c0,.3-.04.5-.13.58v-.33c.09-.09.13-.17.13-.26Zm.26-.91c.04-.13.07-.37.07-.72v-.46c0,.39.01.6.03.62.02.02.04-.04.06-.19.02-.15.04-.33.07-.52.02-.19.03-.31.03-.36,0,.52-.02.85-.07.98-.04.13-.11.35-.2.65Zm.52,38.3v.06s0,.06,0,.06v-.13Z"/><path class="cls-1" d="m68.36,32.48c0-.35.03-.57.1-.68.07-.11.12-.14.16-.1l-.2,2.73c.04.26.06.44.06.55s.01.16.03.16.05-.11.1-.33l-.13,1.04.07-.06c.04,1.08.04,2.11,0,3.09-.05.98-.09,1.96-.13,2.96-.04.52-.07,1.03-.07,1.53v1.46s0,.78,0,.78v.59s.03,0-.03.03c-.07.02-.1.05-.1.1-.04,0-.04-.04,0-.13.04-.09.09-.13.13-.13h.13c.09,0,.15-.02.2-.06h-.06s2.47.2,2.47.2c.22,0,.4-.03.55-.1.15-.06.4-.12.75-.16-.09.04-.06.08.1.1.15.02.34.03.55.03h.68c.24,0,.42.02.55.07.3-.04.37-.08.19-.1-.17-.02-.3-.05-.39-.1,1.21-.08,2.34-.08,3.38,0,1.04.09,2.21.09,3.51,0-.65.09-1.16.14-1.53.16-.37.02-.69.03-.98.03s-.55,0-.81.03c-.26.02-.61.03-1.04.03.52.04.95.07,1.3.07s.68-.01,1.01-.03c.33-.02.66-.03,1.01-.03h1.37s-1.04-.06-1.04-.06c.3-.04.65-.06,1.04-.06h1.17c.39,0,.72.01,1.01.04.28.02.46-.01.55-.1.48-.09.74,0,.78.23.04.24-.02.23-.2-.03.04-.3.08-.64.1-1.01.02-.37.03-.75.03-1.14l-.26.71v-1.5s.13-.06.13-.06c0-.48-.02-.74-.06-.78.09-.26.13-.53.13-.81v-.94s0-.2,0-.2v-.13c-.09,0-.17-.01-.26-.03-.09-.02-.17-.03-.26-.03l-.2.06c-.17,0-.26-.02-.26-.07-.13.09-.4.13-.81.13s-.64.04-.68.13c.22,0,.52.02.91.07.39.04.56.02.52-.06.3.04.39.08.26.1-.13.02-.34.03-.62.03h-.98c-.37,0-.64,0-.81,0,.22-.04.33-.07.33-.1s-.05-.03-.16-.03h-.42c-.17,0-.3,0-.39,0s-.1,0-.03,0,.12.02.16.07c-.74.04-1.28,0-1.63-.1-.35-.11-.76-.1-1.24.03l-.26-.13-1.11.06c0-.09-.28-.13-.85-.13h-.52c-.3-.09-.48-.15-.52-.2-.26-.09-.45-.18-.55-.29-.11-.11-.18-.18-.23-.23-.04-.04-.05-.04-.03,0,.02.04.05.09.1.13.09.13.19.24.32.33.13.09.09.09-.13,0-.3-.22-.5-.48-.58-.78-.09-.3-.13-.56-.13-.78.04-.22.07-.41.07-.59v-.52c.09-.82.09-1.34,0-1.56.09-.52.12-1.04.1-1.56-.02-.52,0-1,.04-1.43l-.13-.07c0-.22.01-.46.03-.72.02-.26.03-.5.03-.72l-.07.06v.13c.04-.43.07-.85.07-1.24v-1.11s0-1.11,0-1.11c.04-.17.08-.39.1-.65.02-.26.14-.52.36-.78-.09,0-.17.07-.26.19-.09.09-.16.22-.23.39-.07.17-.1.39-.1.65,0-.3.02-.56.07-.78.17-.43.46-.74.85-.91.17-.09.36-.13.55-.13h.42s.71,0,.71,0c.48.04.98.08,1.5.1.52.02,1.02.03,1.5.03l-.13-.07,1.11.07c-.09,0-.12-.01-.1-.03.02-.02.03-.05.03-.1h1.5c.35,0,.55,0,.62,0s.1-.02.1-.06c.04.09.07,0,.07-.26v-.65c.04-.39.11-.72.2-.97,0,.13-.01.16-.03.1s-.05-.13-.1-.19c-.04-.07-.08-.09-.1-.07-.02.02-.03.16-.03.42.04-.48.08-.99.1-1.53.02-.54.04-1.12.04-1.72v-.78c0-.09-.04-.17-.13-.26,0-.09-.15-.12-.45-.1-.3.02-.58.01-.84-.03h.06s-.91-.07-.91-.07l-.07.06h.65c-.48,0-.91-.01-1.3-.03-.39-.02-.76-.05-1.11-.1-.09.04-.19.09-.29.13-.11.04-.29.06-.55.06,0-.04-.14-.05-.42-.03-.28.02-.62.03-1.01.03-.22,0-.41.01-.59.03-.17.02-.43-.01-.78-.1-.22-.04-.38-.13-.49-.26-.11-.13-.21-.26-.29-.39-.09-.17-.14-.31-.16-.42-.02-.11-.03-.21-.03-.29-.04-.13-.04-.08,0,.16.04.24.02.23-.07-.03,0-.78.01-1.56.04-2.34.02-.78.03-1.63.04-2.54.04-.43.07-.86.07-1.27v-1.33s0-1.24,0-1.24c0-.78.35-1.3,1.04-1.56.22,0,.48.02.78.07.3.04.69.07,1.17.07.48.04.96.07,1.46.07s.99.02,1.46.07c.09-.04.09-.08,0-.1-.09-.02-.22-.03-.39-.03h-.55c-.19,0-.36-.02-.49-.07.22,0,.36,0,.42-.03.06-.02.14-.04.23-.06.09-.02.21-.04.36-.06.15-.02.44,0,.88.03h-.39c.26,0,.4,0,.42,0s.03.02.03.07.04.07.13.07h.71s.07-.13.07-.13l.91.2c.26,0,.43-.11.52-.32.04-.09.06-.22.07-.39v-.52s0-2.08,0-2.08v-2.08s0-.46,0-.46c0-.26-.02-.39-.06-.39,0-.09-.11-.2-.32-.33-.04,0-.05-.02-.03-.06.02-.04.08-.04.16,0-.04,0-.08-.01-.1-.03-.02-.02-.08-.03-.16-.03h-.46c-.22-.04-.54-.07-.98-.07-.65-.09-1.34-.09-2.08,0l.39.07h-1.33c-.32,0-.64-.02-.94-.07-.3-.04-.65-.09-1.04-.13-.39-.04-.91-.07-1.56-.07.3,0,.7.01,1.2.03.5.02.79,0,.88-.1-.09-.04-.39-.07-.91-.07s-.89.02-1.11.06l.2-.19c.22.09.53.13.94.13s.81.02,1.2.07c-.22-.04-.33-.09-.32-.13.35.04.73.07,1.14.07s.86.02,1.33.07h-1.37c.3.09.78.11,1.43.07.65-.04,1.11-.04,1.37,0,0-.04-.04-.08-.13-.1-.09-.02-.15-.03-.19-.03s-.06-.01-.03-.03c.02-.02.14-.05.36-.1.56-.04.95-.05,1.17-.03.22.02.39.06.52.1.09.04.17.07.26.07s.17.04.26.13c.09.04.2.12.32.23.13.11.22.27.26.49,0-.09-.04-.17-.13-.26.04.09.06.19.06.32-.04.13-.06.3-.07.52-.09.35-.09.74,0,1.17.09,0,.13-.14.13-.42s.02-.51.07-.68c.04.09.02.34-.07.75-.09.41-.11.81-.07,1.2.09-.17.13-.39.13-.65s.02-.56.07-.91c0-.3.01-.62.03-.94.02-.33-.12-.57-.42-.75.09.04.14.05.16.03s-.01-.08-.1-.16c.26.17.41.35.45.52.04.13.05.25.03.36-.02.11-.03.21-.03.29v1.3c-.05.43-.07.86-.07,1.27s-.02.86-.07,1.33c-.04.39-.06.81-.03,1.27.02.46-.19.77-.62.94-.35.04-.74.05-1.17.03-.43-.02-.87-.01-1.3.03.43.04.64.08.62.1-.02.02-.12.03-.29.03h-.52c-.17,0-.22.02-.13.06-.13-.09-.41-.11-.85-.07-.43.04-.87.04-1.3,0-.09.04-.05.08.1.1.15.02.33.04.52.07.2.02.36.03.49.03s.11.02-.06.06c-.43-.04-.9-.08-1.4-.1-.5-.02-1.01-.06-1.53-.1-.26-.09-.5-.04-.72.13-.22.17-.35.39-.39.65-.04.3-.07.6-.07.88v.81c.04-.09.06-.22.06-.39s.02-.28.07-.33c-.05.74-.12,1.53-.23,2.37-.11.85-.1,1.53.03,2.05.09-.35.14-.73.17-1.14.02-.41.08-.81.16-1.2v.32c0,.13.02.3.06.52l.07-.52c0,.48-.01.81-.03,1.01-.02.19-.06.36-.1.49-.04.13-.09.24-.13.32-.04.09-.09.26-.13.52l.19,1.11v1.5c0,.56.15.89.45.98.35.04.73.08,1.14.1.41.02.77.08,1.07.16h.46c.22,0,.41,0,.59-.03.17-.02.29-.04.36-.06.07-.02.03-.05-.1-.1-.48-.09-.93-.16-1.36-.23-.43-.07-1.11-.1-2.02-.1-.09.04-.08.08.03.1.11.02.25.04.42.07.17.02.3.03.39.03s.07,0-.06,0h-.72c-.26,0-.41-.09-.45-.26-.09-.13-.12-.32-.1-.59s.03-.48.03-.65v1.04c.04.26.19.39.45.39,0-.09-.08-.15-.23-.2-.15-.04-.19-.17-.1-.39.09.13.13.22.13.26s.07.09.2.13c.43.09.89.09,1.37,0h-.13c.43,0,.76.01.98.03.22.02.42.03.62.03h.62c.22,0,.54,0,.98,0,.09.09-.02.13-.33.13s-.65.02-1.04.06c.35,0,.7.01,1.07.03.37.02.75.03,1.14.03.22.04.42.07.62.07h.62c.17,0,.38.01.62.03.24.02.42.14.55.36.17.17.27.36.29.55.02.19.03.4.03.62v1.24c0,.39,0,.77.03,1.14.02.37.05.73.1,1.07l.2-1.63c0,.26-.01.55-.03.88-.02.33-.03.63-.03.91v.72c0,.19.04.27.13.23v-.62c0-.11.01-.18.03-.23.02-.04.04-.09.06-.13.02-.04.03-.15.03-.33v-.06c0-.09,0-.19,0-.33s.02-.13.06,0c-.04.22-.08.47-.1.75-.02.28-.03.6-.03.94-.04.17-.06.33-.03.46.02.13-.01.3-.1.52-.13.39-.41.67-.85.84.13-.09.17-.11.13-.06-.04.04-.13.11-.26.19-.09.04-.22.06-.39.06-.09,0-.14.01-.16.03s-.05.03-.1.03c-.48-.04-.6-.08-.36-.1.24-.02.38-.05.42-.1-.26,0-.56-.02-.91-.07-.35-.04-.63-.02-.85.06-.22,0-.28.01-.2.03.09.02.22.03.39.03s.36.01.55.03c.2.02.31.06.36.1l-2.93-.2.06.07c-.09-.04-.23-.08-.42-.1-.19-.02-.38-.01-.55.03-.13.04-.08.08.16.1.24.02.46.01.68-.03-.39.04-.75.05-1.07.03-.33-.02-.66-.06-1.01-.1-.17,0-.34-.01-.49-.03-.15-.02-.32-.01-.49.03-.22,0-.33.09-.33.26-.09.17-.13.39-.13.65,0,.09.01.14.03.16.02.02.03-.01.03-.1l-.07.85c-.04.39-.06.64-.03.75.02.11.04.16.07.16.02,0,.05-.02.1-.06.04-.04.07,0,.07.13v-.06c.04.22.07.4.1.55.02.15.03.12.03-.1l-.13,1.69c-.04.17-.08.42-.1.75-.02.33-.06.66-.1,1.01-.04.35-.09.65-.13.91-.04.26-.09.39-.13.39,0,.22,0,.39.03.52.02.13.05.15.1.07v.49s.02.04.06.07c.04.02.06.09.06.19v.94s.06-.17.06-.52c.04.26.05.44.03.55-.02.11-.03.19-.03.23l.06.07s.02.09.07.13c-.09-.04-.13.1-.13.42s.04.51.13.55c0-.04,0-.11.03-.19.02-.09.03-.17.03-.26v.39s.06.08.06.1.07.03.2.03c-.17-.09-.22-.13-.13-.13.04.04.09.07.13.07l.13.07h.07s.11.07.2.07.35-.02.78-.06l-.78.06c-.13,0-.25.01-.36.03-.11.02-.18.03-.23.03h.39c.13.04.26.07.39.07.17,0,.3.04.39.13.09.04.15.08.2.1.04.02.17.05.39.1.91.09,1.86.1,2.86.04,1-.06,1.84,0,2.54.17.13-.09.18-.13.16-.13s.1-.04.36-.13c-.56-.04-1.02-.08-1.37-.1-.35-.02-.65-.08-.91-.16-.56-.04-.92-.04-1.07,0-.15.04-.26.09-.33.13-.06.04-.19.09-.39.13-.2.04-.6.02-1.2-.07.09-.09.28-.14.59-.16.3-.02.63,0,.98.03.04-.09-.09-.14-.39-.16-.3-.02-.61-.05-.91-.1.74.05,1.52.05,2.34,0,.82-.04,1.47-.06,1.95-.06.22.04.54.09.98.13.43.04.76.05.98,0,0,.04.02.07.06.07h.26c.13,0,.24.02.33.07.13,0,.28.04.45.13.3.22.46.41.49.59.02.17-.03.17-.16,0,.13.17.19.34.19.49v.36c.04.09.06.15.06.19s.02.11.07.2c0,.13,0,.27.03.42.02.15-.01.4-.1.75.04-.13.08-.15.1-.06.02.09.04.19.06.29.02.11.03.2.03.26s.02.01.06-.16c-.09-.3-.09-.74,0-1.3.04-.13.07-.27.07-.42s.02-.29.07-.42c0-.43-.11-.8-.32-1.11.22.26.34.54.39.85.04.22.06.36.06.42v.23s.06,1.11.06,1.11c-.04-.26-.09-.28-.13-.07-.04.22-.07.41-.07.59l.13.26c-.09.09-.12.34-.1.75.02.41.03.88.03,1.4.04.17.06.43.06.78v.39c0,.26-.02.46-.07.59-.09.48-.35.8-.78.97-.39.09-.65.09-.78,0h.33c.13,0,.24-.04.33-.13.26-.04.48-.22.65-.52.09-.22.14-.4.16-.55.02-.15.05-.27.1-.36,0-.3-.02-.47-.06-.49-.04-.02-.08,0-.1.07-.02.06-.06.13-.1.19-.04.06-.09.03-.13-.1v.33c0,.13-.02.3-.07.52-.09.43-.35.65-.78.65-.35.04-.66.06-.94.06h-.94c-.61,0-1.23,0-1.85,0s-1.2-.05-1.72-.13c.22.04.5.07.84.07s.54.04.58.13c-.78.09-1.63.07-2.54-.04-.91-.11-1.82-.21-2.73-.3l.32.2c-.39-.04-.64-.07-.75-.07s-.21,0-.29.03c-.09.02-.21.03-.36.03h-.81s.09-.08.13-.1c.04-.02-.04-.03-.26-.03-.35,0-.54,0-.59.03-.04.02-.06.04-.06.06,0,.02-.01.04-.03.06-.02.02-.14.03-.36.03-.39-.04-.66-.07-.81-.07s-.29.02-.42.06c-.13.04-.3.07-.52.1-.22.02-.59,0-1.11-.03l.13.07c-.39-.09-.82-.09-1.3,0-.09,0-.22-.01-.39-.03-.17-.02-.32-.08-.45-.16-.35-.13-.56-.39-.65-.78-.09-.56-.13-1.07-.13-1.53s-.02-.92-.06-1.4c.04.09.06.35.06.78s.04.61.13.52l.07-2.21c-.04-.09-.06-.27-.06-.55s-.04-.27-.13.03c0,.17.01.32.03.46.02.13.03.26.03.39l-.13-.33c.04-.52.09-.8.13-.84.04-.04.08,0,.1.13.02.13.05.3.1.52.04.22.09.33.13.33-.04-.61-.03-1.05.03-1.33.07-.28.1-.6.1-.94-.04-.09-.08-.07-.1.06-.02.13-.06.26-.1.39-.04.13-.08.23-.1.29-.02.06-.05-.03-.1-.29v-.71c0-.3.01-.64.04-1.01.02-.37.04-.72.07-1.04.02-.33.05-.6.1-.81-.09-.26-.14-.64-.16-1.14-.02-.5-.03-.98-.03-1.43s0-.87-.03-1.24c-.02-.37-.08-.55-.16-.55.04.04.08-.02.1-.19.02-.17.03-.39.03-.65l-.07.33c-.04-.39-.05-.69-.03-.91.02-.22.05-.4.1-.55.04-.15.08-.3.1-.45.02-.15.03-.33.03-.55l-.13.45c-.09-1.04-.06-1.93.07-2.67.13-.74.15-1.63.07-2.67,0,.04-.01.09-.03.13-.02.04-.01.13.03.26-.09.09-.09-.24,0-.98l.13.72c.17-.56.2-1.26.07-2.08-.13-.82-.17-1.67-.13-2.54,0,.04-.01.14-.03.29-.02.15-.03.29-.03.42s-.01.22-.03.26c-.02.04-.03-.02-.03-.2,0-.3.01-.53.03-.68.02-.15.05-.29.1-.42.04-.13.08-.28.1-.45.02-.17.01-.43-.03-.78-.04.3-.1.47-.16.49-.07.02-.1.18-.1.49-.04-.43-.07-.8-.1-1.11-.02-.3.01-.54.1-.72,0-.22-.04-.33-.13-.33.09-.3.12-.64.1-1.01-.02-.37-.05-.7-.1-1.01l-.07.13c.22-.52.27-1,.17-1.43-.11-.43-.14-1.02-.09-1.76l-.13.2c.04-.3.08-.67.1-1.11.02-.43,0-.91-.09-1.43l-.07.59c.04-.43.04-.98,0-1.63-.04-.65-.02-1.15.07-1.5,0-.04-.01-.04-.03,0-.02.04-.05.09-.1.13-.04.04-.08.02-.1-.07-.02-.09-.03-.3-.03-.65.04-.13.09-.39.13-.78s.02-.69-.06-.91c-.09,0-.11.17-.07.52,0,.13,0,.17,0,.13s.02-.09.07-.13l-.13.45v-.59c0-.13.01-.25.03-.36.02-.11.03-.24.03-.39v-.62c-.04-.09-.08-.04-.1.13-.02.17-.06.3-.1.39l.13-2.02v-.52c0-.22.04-.5.13-.84,1.04-.43,1.43-.31,1.17.36-.26.67-.38,1.06-.36,1.17.02.11.05-.1.1-.62,0,.26.03.64.1,1.14.06.5.11.75.13.75s.02.34,0,1.01c-.02.67.04,1.31.19,1.92.15.61.23,1.15.22,1.63s-.01.71-.03.71c-.02,0-.04-.08-.07-.23-.02-.15-.04-.27-.06-.36-.02-.09-.05.02-.1.33,0,.26,0,.43.03.52.02.09.04.15.06.2.02.04.04.09.07.13.02.04.03.15.03.33l-.26.45c0,.3,0,.49.03.55.02.06.05.05.1-.03v.26s.06.33.06.33c.04-.22.08-.4.1-.55.02-.15.05-.27.1-.36-.04.13-.08.4-.1.81-.02.41-.01.73.03.94.04-.26.07-.44.07-.55v-.19s0,.08,0,.29v1.89c0,.52,0,1,.03,1.43.02.43.04.89.06,1.37.02.48.03,1.04.03,1.69l.06-.19c0,.13-.01.26-.03.39-.02.13-.01.26.03.39l.07-.13c0,.09-.01.3-.03.65-.02.35-.03.76-.04,1.24s-.01.99-.03,1.53c-.02.54-.03,1.03-.03,1.46l.13-.91-.13,1.56.19-.13c-.09.26-.12.79-.1,1.59.02.8,0,1.57-.04,2.31l.13-.06-.07.91.06-.26c0,.43-.03.91-.1,1.43-.07.52-.08,1.04-.04,1.56Zm-1.47-14.57c0,.09-.02.15-.07.19v-.13s.07-.06.07-.06Zm.27-7.22c-.09.09-.15.17-.2.26-.04.09-.04.48,0,1.17.09.04.13.02.13-.06s.04,0,.13.26c.04-.22.05-.41.03-.59-.02-.17-.03-.33-.03-.46-.04.17-.06.33-.03.46.02.13.01.24-.03.33-.09-.56-.09-1.02,0-1.37l.13-.32-.13.32Zm-.19-.98v.65s.2-.59.2-.59l-.2-.07Zm.32,5.92c.04-.09.07-.22.07-.39-.04-.04-.07-.11-.07-.2v-.06c-.04-.43-.07-.8-.1-1.11-.02-.3-.08-.22-.16.26v.85s0-.33,0-.33l.06-.06c.04.3.04.56,0,.78-.04.22-.07.43-.07.65.04-.13.08-.36.1-.68.02-.32.08-.44.16-.36v.65c0,.22.02.39.06.52v-.13c0-.13-.02-.26-.06-.39Zm-.13,2.47c-.09-.17-.13-.1-.13.23v.68s.13-.91.13-.91Zm-.07,4.1l-.07,1.76v-.65c0-.09,0-.16,0-.23s.01-.14.03-.23c.02-.09.03-.3.03-.65Zm.33-4.75v-.46s-.19.52-.19.52l.19-.06Zm-.17,21.98v-1.17c-.04.09-.06.24-.06.46s0,.44.03.68c.02.24.05.51.1.81-.04-.13-.06-.39-.06-.78Zm.15-12.68c-.04-.13-.05-.28-.03-.46.02-.17-.01-.19-.1-.07.04.35.04.72,0,1.11-.04.39-.02.67.06.85l.07-1.43Zm.18,9.17c-.09-.26-.12-.49-.1-.68.02-.2-.01-.25-.1-.16v.81c0,.46-.05.71-.13.75l.19.33c-.04-.35-.04-.65,0-.91.04-.26.09-.3.13-.13Zm-.02-26.86c-.04-.3-.08-.34-.1-.1-.02.24-.03.49-.03.75,0-.04.01-.05.03-.03.02.02.05-.03.1-.16v-.46Zm14.64-7.52c.26,0,.49.1.68.29.19.2.29.4.29.62v5.53c0,.3-.11.55-.3.75-.2.19-.42.29-.68.29h-6.83c-.26-.01-.48.1-.65.31-.17.22-.26.43-.26.65v8.52c-.02.61.29.91.89.91h6.83c.26.01.49.11.68.31.19.2.29.45.29.75v5.53c0,.3-.11.53-.3.68-.2.15-.42.23-.68.23h-6.83c-.61-.01-.91.33-.91,1.03l-.02,10.6c0,.69.3,1.04.91,1.04l9.36.02c.22,0,.41.1.58.29.17.2.26.4.26.62v5.66c-.01.61-.29.91-.86.91l-16.32-.03c-.61,0-.91-.31-.91-.91l.07-43.57c0-.69.26-1.04.78-1.04l13.92.02Zm-14.24,39.38v.85s-.07-.33-.07-.33c-.04,0-.08-.01-.1-.03-.02-.02-.03.01-.03.1v.39s0-.39,0-.39v-.88c0-.28.05-.44.13-.49-.04.09-.07.33-.07.72s.04.56.13.52v-.46Zm.12,5.46c-.09-.09-.13-.09-.13,0,0,.13-.02.17-.07.13.09.09.17.13.26.13-.17,0-.27-.03-.29-.1-.02-.06-.01-.12.03-.16v-.46c0,.17.02.3.07.39.04,0,.06-.06.06-.2v-.29c0-.11.02-.18.07-.23,0,.48,0,.72.03.72s.01.02-.03.06Zm.21-44.93h1.85c.71,0,1.31.03,1.79.07-.22,0-.52.01-.91.03-.39.02-.77.03-1.14.03h-1.4c-.56,0-.63-.05-.2-.13Zm-.23,21.65c-.04-.35-.05-.59-.03-.72.02-.13.03-.3.03-.52.04.09.06.26.06.52s-.02.5-.07.72Zm.13-1.11c-.09-.56-.1-.88-.03-.94.07-.06.12-.27.16-.62.04.48.03.76-.03.85-.06.09-.1.33-.1.72Zm1.52,24.39c-.26-.09-.48-.13-.65-.13-.09,0-.15-.01-.2-.03-.04-.02-.11-.03-.2-.03-.09.04-.17.06-.26.06h-.13c0,.09.09.13.26.13h.33c.26-.04.54-.04.85,0h.19s-.19,0-.19,0Zm-1.29-7.42l.06.07-.07.91-.07-.07.07-.91Zm2.52,7.74l.97-.06.65.2-1.62-.13Zm1.51-44.87l-1.3-.07c.39,0,.62.01.68.03.07.02.27.03.62.03Zm.26-.19l-.65-.07-.07.06h.72Zm.98,34.4v-.19s-.02-.06-.06-.07l.06.26Zm0-4.49c0,.09-.01.19-.03.29-.02.11-.01.23.03.36v-.65Zm.2-.06c.04-.13.05-.19.03-.19h-.06s-.04-.04-.07-.13c-.02-.09-.01-.26.03-.52,0-.48.02-.89.07-1.24.04-.35.11-.48.2-.39-.04.43-.07.9-.07,1.4s-.04.86-.13,1.07Zm0,3.32l-.07.85v-.26s.07-.59.07-.59Zm.04-24.77v-.06s0,1.04,0,1.04c0-.09.01-.26.03-.52s.01-.3-.03-.13v-.33Zm.83,9.3s-.07-.05-.07-.03.02.05.07.1c.09.09.16.13.23.13s.12.02.16.07c-.13,0-.26-.07-.39-.2-.22-.09-.35-.28-.39-.59-.04-.3-.09-.5-.13-.59,0,.04-.01.11-.03.19-.02.09-.01.17.03.26,0,.13.02.25.06.36.04.11.09.21.13.29-.13-.09-.22-.23-.26-.42-.04-.19-.06-.38-.06-.55.04-.13.06-.27.07-.42v-.42c.09-.65.05-.87-.13-.65.04-.17.08-.47.1-.88.02-.41.08-.51.16-.29-.09.52-.09,1.17,0,1.95v.98c.04.3.19.54.45.72.09,0,.19.02.33.07-.13,0-.24-.02-.33-.07Zm.42,20.29c.22-.09.23-.15.03-.2-.2-.04-.34-.15-.42-.33-.09-.17-.12-.41-.1-.72.02-.3.06-.5.1-.59-.04-.04-.09-.1-.13-.16-.04-.07-.08-.09-.1-.07s-.04.13-.07.33c-.02.19-.01.53.03,1.01-.04-.43-.06-.74-.06-.91s.01-.3.03-.39c.02-.09.03-.17.03-.26s-.04-.26-.13-.52c0,.43-.01.85-.03,1.24-.02.39-.03.63-.03.72-.04-.17-.05-.34-.03-.49.02-.15.03-.31.03-.49-.13.26-.15.61-.07,1.04.09.22.22.39.39.52.17.13.35.22.52.26Zm-.73-29.98v-.2c.13-.17.28-.32.46-.45-.22.17-.37.39-.46.65Zm.25,2.93c.04-.22.08-.43.1-.65.02-.22.05-.43.1-.65,0,.48-.01.78-.03.91-.02.13-.08.26-.16.39Zm.23,14.96s.04-.07.13-.07c-.04,0-.07.01-.07.03s-.02.03-.07.03Zm.06,4.62c.09-.17.13-.22.13-.13l-.13.13Zm2.16-5.85h-.46c-.35.09-.58.15-.68.19-.11.04-.4.02-.88-.07.3-.04.57-.06.81-.06s.49-.02.75-.06h.46Zm-1.53,21.13s.02-.08.2-.1c.17-.02.38-.03.62-.03h.75c.26,0,.46,0,.58,0-.22.09-.54.1-.97.03-.43-.07-.82-.03-1.17.1Zm.08-46.04c.22,0,.35.01.39.03.04.02.11.03.2.03-.3,0-.5-.02-.58-.07Zm.65-.13c-.22-.09-.19-.12.1-.1.28.02.51.03.68.03-.17,0-.32.02-.42.06-.11.04-.23.04-.36,0Zm2.1,25.56c-.61-.04-1.02-.09-1.24-.13-.22-.04-.54-.11-.98-.2.61-.09,1.01-.08,1.2,0,.2.09.25.17.16.26.43.04.67.04.71,0,.04-.04.17-.07.39-.06l-.26.13Zm-1.58-25.43h1.5c-.22,0-.42.01-.62.03-.19.02-.49.01-.88-.03Zm.56,17.43h-.33c-.13,0-.22-.02-.26-.07h1.17c.22,0,.2.01-.07.03-.26.02-.43.03-.52.03Zm1.32,27.77l.2.07-.2.06.91.07c-.61.09-1.13.08-1.56,0-.43-.09-.8-.15-1.11-.2.26,0,.65.03,1.17.1.52.07.71.03.59-.1Zm.81-20.22c-.22,0-.49.01-.81.03-.33.02-.53.01-.62-.03h1.43Zm0,1.11h-.2s-1.11-.07-1.11-.07l1.3.07Zm-.28-26.01c-.13,0-.26-.01-.39-.03-.13-.02-.3-.03-.52-.03h.36c.15,0,.34.02.55.07Zm-.17,25.03c.22,0,.54.02.98.07.43.04.63.11.58.2.04-.04-.21-.09-.75-.13-.54-.04-1.03-.09-1.46-.13h.65Zm.75,20.74l.91.07-.06.07-.91-.07.06-.06Zm2.5-20.22c-.35.04-.67.05-.97.03-.3-.02-.63-.03-.98-.03.35,0,.68.01,1.01.03.33.02.66.01,1.01-.03h-.07s.2,0,.2,0c-.09,0-.16-.01-.23-.03-.06-.02-.14-.03-.23-.03.04,0,.09.01.13.03.04.02.09.03.13.03Zm-1.29-7.03h-.26s.26.07.26.07v-.07Zm1.45-10.92c-.35.09-.6.1-.75.03-.15-.07-.32-.12-.49-.16.22-.04.4-.05.55-.03.15.02.31.03.49.03.35,0,.59-.15.72-.45-.09.26-.23.42-.42.49-.19.07-.23.1-.1.1Zm-.99,10.01c.22,0,.37,0,.46-.03.09-.02.14-.04.16-.06.02-.02.05-.03.1-.03s.15.02.33.07c-.09.09-.13.15-.13.19-.22-.09-.38-.12-.49-.1-.11.02-.25.01-.42-.03Zm.49,19.83h.07s.07,0,.07,0h-.13Zm.55-16.58l-.07.52v-.49c0-.06.02-.08.07-.03l.07-.39c.04.52.05.74.03.65-.02-.09-.05-.17-.1-.26Zm.13.33c.04.3.06.73.06,1.27s0,.77,0,.68c-.09-.09-.12-.38-.1-.88.02-.5.03-.86.03-1.07Zm1.1,3.32l.07-.52v.39c0,.13-.05.35-.13.65-.13.52-.46.84-.98.97.3-.09.56-.28.78-.58.22-.3.3-.61.26-.91Zm-.81-18.92v.85s-.13-.39-.13-.39l.13-.45Zm-.16,19.7s.14,0,.29-.13c.15-.13.25-.35.29-.65v-1.5c-.09.3-.13.6-.13.88s-.04.6-.13.94c.09-.17.13-.39.13-.65,0,.22-.02.43-.07.65-.04.22-.17.37-.39.45Zm.23-18.27c.09-.09.13-.26.13-.52,0,.26-.04.43-.13.52Zm.17,16.06c0,.09-.01.18-.03.29-.02.11-.03.21-.03.29-.04.09-.06.1-.06.03s-.02.08-.07.42c.04.09.08.08.1-.03.02-.11.03-.25.03-.42,0-.04.01-.1.03-.16.02-.06.03-.21.03-.42Zm.03-18.6c.04-.09.07-.22.07-.39v-.46s0-.52,0-.52c0,.48,0,.73.03.75.02.02.04-.05.07-.23.02-.17.04-.38.07-.62.02-.24.03-.38.03-.42,0,.61-.02.99-.07,1.14-.04.15-.11.4-.2.75Zm.43,16.58l.2-.58c-.04.35-.09.55-.13.62-.04.06-.07.05-.07-.03Zm.17,17.88c.22,0,.31,0,.29,0-.02,0-.08-.02-.16-.07l-.13.06Zm.46-1.43s-.09.06-.26.06c.04,0,.08,0,.1-.03.02-.02.08-.03.16-.03Zm.25,3.45s-.01-.02-.03.07c-.02.09-.06.24-.1.45.09-.17.13-.35.13-.52Zm.13.91v-.65s0-.46,0-.46v.46s0,.65,0,.65Zm.12,2.99c.04-.09.06-.26.07-.52-.04.04-.06.11-.06.2s-.02.15-.07.2c0,.04-.01.06-.03.06s-.03-.04-.03-.13c.04-.17.07-.44.07-.81s.04-.55.13-.55c-.09.48-.09.87,0,1.17s.06.43-.07.39Zm.53-4.88c0-.39.02-.56.07-.52.04-.22.02-.48-.06-.78.09.22.13.38.13.49s-.02.21-.07.29c0,.09-.01.16-.03.23-.02.06-.03.16-.03.29v.46s0-.46,0-.46Zm.07-1.43c.09.22.12.42.1.62-.02.2-.01.4.03.62,0-.22.01-.41.03-.58.02-.17-.01-.37-.1-.59l-.07-.07Zm0,4.42c.04.13.09.13.13,0,.04-.13.07-.34.07-.62s-.01-.59-.03-.91-.03-.6-.03-.81v.49c0,.24,0,.49,0,.75s-.01.5-.03.72c-.02.22-.06.35-.1.39Zm.39-.32l.07-.45-.13-.39.06.85Z"/><path class="cls-1" d="m95.81,25.83c-.35,0-.56-.03-.65-.1-.09-.07-.11-.12-.07-.16l2.67.2c.26-.04.44-.06.55-.06s.17,0,.2-.03-.08-.05-.29-.1l1.04.13-.07-.07h.78c.26-.04.53,0,.81.1.28.11.51.25.68.42.22.22.39.46.52.72,0,.09.04.22.13.39v.46s0,.72,0,.72c0,.52-.01,1.03-.03,1.53-.02.5-.06.99-.1,1.46-.05,1-.07,1.99-.07,2.99s.04,2.04.12,3.12v-.06s-.07.59-.07.59v.32c0,.09-.02.28-.07.59-.35.87-.96,1.3-1.82,1.3-.26,0-.46.03-.59.1-.13.06-.39.12-.78.16.09-.04.05-.08-.1-.1-.15-.02-.34-.03-.55-.03h-.68c-.24,0-.42-.02-.55-.07-.3.04-.38.08-.23.1.15.02.27.06.36.1-1.13.04-2.23.04-3.32,0h-1.69c-.35-.09-.65-.09-.91,0h-.26s-.13-.07-.13-.07l-.06-.39.06.39h.06s.2,0,.2,0c.13,0,.26,0,.39-.03.13-.02.24-.03.33-.03.22,0,.39,0,.52-.03.13-.02.28-.03.46-.03h.78c.26,0,.63-.02,1.11-.06-.95-.04-1.73-.05-2.34,0h-.98s-.33,0-.33,0h-.19s-.07,0-.07-.13c-.04-.04-.05-.07-.03-.06.02,0,0-.02-.03-.06,0,.04.02.06.07.07.04.04.09.07.13.07l.07.07s.02,0-.07-.03c-.09-.02-.13-.05-.13-.1l-.07-.07s.02.06.07.07v.13s.02.09.06.13h.13c.04-.26.06-.29.06-.1v.81c0,.35-.01.68-.04,1.01-.02.33,0,.51.1.55,0,.35-.01.68-.03,1.01-.02.33-.06.66-.1,1.01-.04.22-.07.56-.07,1.04-.09.22-.09.35,0,.39v.13s-.06,0-.06,0c-.04.04-.09.07-.13.07.04,0,.09-.02.13-.07.04,0,.08-.01.1-.03.02-.02.05-.03.1-.03l.07-.13c0,.09-.02.13-.07.13-.13.04-.24.11-.33.19.04-.04.09-.17.13-.39-.04-.04.04-.07.26-.06v.13c.43.04.69.02.78-.06.52.09,1.12.13,1.79.13s1.38.04,2.11.13l.13-.06c.17,0,.28.02.33.07.13-.09.4-.13.81-.13s.62-.04.62-.13c-.22,0-.52-.01-.91-.03-.39-.02-.54-.01-.46.03-.3-.04-.4-.08-.29-.1.11-.02.31-.03.62-.03h.98c.35,0,.63,0,.84,0-.43.09-.49.13-.16.13h.81c.09,0,.1,0,.03,0s-.12-.02-.16-.07c.74-.04,1.28,0,1.63.13.35.13.76.11,1.24-.06l.26.13c.39,0,.72-.04.98-.13.04.17.26.17.65,0,.43-.17.69-.24.78-.19.22-.17.33-.27.33-.29s-.03-.02-.1,0c-.07.02-.12.04-.16.06-.04.02-.02.01.07-.03.22-.17.44-.37.68-.58.24-.22.47-.45.68-.71.48-.56.72-.97.72-1.23.22-.35.37-.78.46-1.3.04-.22.05-.44.03-.68-.02-.24,0-.47.03-.68l-.13-.07c0-.22.01-.46.03-.72.02-.26.03-.5.03-.71l-.07.06v.13c.04-.87.07-1.66.07-2.37s.02-1.44.07-2.18c-.09.09-.14.16-.16.23-.02.06-.03.29-.03.68-.09-.65-.09-1.48,0-2.5.09-1.02.13-2.03.13-3.02l-.07.13.07-1.11c0,.09-.01.12-.03.1-.02-.02-.06-.03-.1-.03v-3.06c.05-.48.08-.9.1-1.27.02-.37.01-.66-.03-.88,0,.13-.01.16-.03.1-.02-.06-.05-.12-.1-.16-.04-.04-.08-.07-.1-.07s-.01.13.03.39c-.09-.87-.5-1.72-1.23-2.57-.74-.85-1.58-1.34-2.53-1.47h.07c-.13-.04-.26-.07-.39-.07s-.28-.02-.46-.07l-.06.06h.65c-.43,0-.86-.01-1.27-.03-.41-.02-.79-.06-1.14-.1-.09.04-.18.09-.29.13-.11.04-.29.06-.55.06,0-.04-.14-.05-.42-.03-.28.02-.62.03-1.01.03-.26,0-.46.02-.59.06-.09,0-.22-.01-.39-.03-.17-.02-.35-.1-.52-.23-.22-.09-.36-.22-.42-.39-.06-.17-.12-.33-.16-.46-.04-.17-.06-.39-.06-.65-.04-.09-.05-.03-.03.16.02.2,0,.19-.03-.03,0-.74.01-1.51.04-2.31.02-.8.03-1.64.04-2.5.04-.43.07-.87.07-1.3v-1.3s0-1.37,0-1.37c.04-.13.09-.28.13-.45.04-.17.13-.32.26-.45.17-.17.35-.28.52-.32.17-.04.33-.09.46-.13.09.09.3.15.65.2.35.04.75.08,1.2.1.46.02.94.03,1.46.04s1,.02,1.43.07c.09-.04.09-.08,0-.1-.09-.02-.23-.03-.42-.03h-.58c-.2,0-.36-.02-.49-.07.26,0,.42,0,.49-.03.06-.02.13-.04.19-.06.07-.02.18-.04.36-.06.17-.02.48,0,.91.03h-.39c.26,0,.4,0,.42,0s.03.02.03.06.04.07.13.07h.71s.07-.13.07-.13l.91.2c.39,0,.77,0,1.14-.03.37-.02.75-.03,1.14-.03.17,0,.33-.09.46-.26.04-.09.05-.21.03-.36-.02-.15-.03-.31-.03-.49v-2.05c0-.67-.02-1.35-.06-2.05,0-.09,0-.11.03-.06.02.04.05.15.1.33v-.91s.07-.13.07-.26c0-.09-.02-.13-.07-.13,0-.13-.04-.24-.13-.33-.09-.13-.35-.2-.78-.2h-.52c-.17,0-.35.02-.52.06l.39.07h-1.33c-.33,0-.64-.02-.94-.07-.3-.04-.65-.09-1.04-.13-.39-.04-.91-.07-1.56-.07.3,0,.7.01,1.2.03.5.02.79,0,.88-.1-.13-.04-.45-.07-.94-.07s-.86.02-1.07.06l.19-.19c.22.09.53.13.94.13s.79.02,1.14.07c-.22-.04-.33-.09-.32-.13.35.04.74.07,1.17.07s.89.02,1.37.07h-1.37c.26.09.73.11,1.4.06.67-.04,1.14-.04,1.4,0,0-.04-.04-.08-.13-.1-.09-.02-.15-.03-.2-.03s-.05,0-.03-.03.14-.05.36-.1c.35.04.58.15.72.33.13.17.22.33.26.46,0,.17-.01.3-.03.39-.02.09-.03.17-.03.26-.04.13-.09.3-.13.52-.04.22-.09.59-.13,1.11l-.06-.33c0,.35-.03.67-.1.98-.06.3-.06.69.03,1.17.09,0,.13-.14.13-.42s.02-.51.07-.68c.04.09.02.34-.07.75-.09.41-.11.81-.07,1.2.09-.35.15-.86.2-1.53.04-.67.07-1.31.07-1.92,0,.26.04.26.13,0,0,.43-.01.86-.03,1.27-.02.41-.03.84-.04,1.27l-.07,1.3c0,.22-.01.43-.03.65-.02.22-.12.39-.29.52-.13.17-.3.26-.52.26h-.65c-.22,0-.43-.01-.65-.03-.22-.02-.43-.03-.65-.03h-1.27c-.41,0-.83.02-1.27.06.43.04.64.08.62.1s-.12.03-.29.03h-.52c-.17,0-.22.02-.13.06-.13-.09-.41-.11-.85-.07-.43.04-.89.04-1.37,0-.09.04-.04.08.13.1.17.02.36.04.55.07.2.02.36.03.49.03s.11.02-.06.06c-.43-.04-.9-.08-1.4-.1-.5-.02-1.03-.06-1.59-.1-.13,0-.26-.01-.39-.03-.13-.02-.26-.01-.39.03-.22.04-.37.24-.46.58-.04.26-.07.53-.07.81v.88c.04-.09.06-.23.06-.42s.02-.31.07-.36c-.05.74-.12,1.54-.23,2.41-.11.87-.1,1.56.03,2.08.09-.35.14-.73.17-1.14.02-.41.08-.81.16-1.2v.32c0,.13.02.3.06.52l.07-.52c0,.48-.01.81-.03,1.01-.02.19-.06.36-.1.49-.04.13-.09.24-.13.32-.04.09-.09.26-.13.52l.19,1.11v1.5c0,.26,0,.49.03.68.02.2.1.34.23.42.17.09.36.13.55.13s.4.02.62.07c.3,0,.67.05,1.11.13h.42c.2,0,.38,0,.55-.03.17-.02.29-.04.36-.06.06-.02.03-.05-.1-.1-.26-.04-.49-.08-.68-.1-.2-.02-.42-.05-.68-.1-.13-.04-.26-.07-.39-.07s-.28-.02-.45-.07h-.59s-.32,0-.32,0h-.2s-.04.02,0,.06c.04.04.17.07.39.07.17,0,.31.01.42.03.11.02.08.03-.1.03-.09-.04-.2-.05-.33-.03-.13.02-.24.01-.33-.03-.22,0-.35-.09-.39-.26-.09-.22-.12-.46-.1-.72.02-.26.05-.48.1-.65v1.04c0,.35.1.54.32.59,0-.04-.04-.11-.13-.2-.13-.13-.15-.3-.06-.52.09.35.15.52.19.52s.12.01.23.03c.11.02.23.03.36.03s.26,0,.39-.03c.13-.02.24-.03.33-.03h-.13c.43,0,.77.01,1.01.03.24.02.44.03.62.03h.62c.24,0,.57,0,1.01,0,.04.09-.08.13-.36.13s-.64.02-1.07.06c.35,0,.71.01,1.11.03.39.02.78.03,1.17.03.87.09,1.65.37,2.34.85.69.48,1.28,1.04,1.75,1.69.48.65.84,1.32,1.1,2.02-.09-.3-.16-.59-.23-.85-.06-.26-.16-.52-.29-.78.13.22.26.49.39.81s.22.64.26.94c.09.3.13.56.13.78s.04.3.13.26c-.04-.3-.06-.52-.06-.65v-.29c0-.06,0-.12,0-.16v-.33s-.06-.07-.06-.07c0-.09-.02-.21-.06-.36-.04-.15-.02-.16.07-.03.04.26.09.54.13.85.04.3.06.63.06.98-.04.35-.07.66-.07.94s-.02.55-.07.81c.04-.22.08-.18.1.1.02.28.05.45.1.49,0,.26-.01.41-.03.46-.02.04-.04.03-.07-.03-.02-.06-.05-.21-.1-.42,0,.26-.03.56-.1.91-.07.35-.06.63.03.85.04.22.07.28.1.19.02-.09.03-.22.03-.39s.01-.36.03-.55c.02-.19.05-.31.1-.36l-.2,2.93.07-.06c-.04.09-.08.23-.1.42-.02.2-.01.38.03.55.04.13.08.08.1-.16.02-.24.01-.47-.03-.68.08.78.07,1.49-.04,2.11-.11.63-.1,1.27.03,1.92l-.07.85s.01.09.03.13c.02.04.03.02.03-.06l-.07.85c-.04.39-.06.64-.03.75.02.11.04.16.07.16.02,0,.05-.02.1-.06.04-.04.07,0,.07.13v-.06c.04.22.07.4.1.55.02.15.03.14.03-.03l-.13,1.63c-.04.17-.08.43-.1.78-.02.35-.06.69-.1,1.04-.04.39-.12.71-.23.94-.11.24-.21.34-.29.29-.17.56-.2.78-.07.65-.17.3-.26.47-.26.49,0,.02.02.06.06.1,0,.04-.02.11-.06.2-.04.09-.1.19-.16.32-.06.13-.19.3-.36.52.04,0,.17-.15.39-.45l-.52.71v.06s-.01.06-.03.06-.03.02-.03.06c-.04-.04-.17.05-.39.29-.22.24-.41.44-.59.62.09-.09.2-.15.33-.19s.24-.11.33-.19c-.22.17-.41.32-.59.45-.17.13-.46.32-.85.58.26-.09.46-.17.59-.26-.35.22-.55.32-.62.32h-.16c-.09,0-.17.02-.26.06-.09.04-.35.15-.78.32.48-.13.95-.39,1.43-.78-.39.26-.7.4-.91.42-.22.02-.37.03-.46.03s-.16-.01-.23-.03c-.07-.02-.21-.03-.42-.03-.91-.09-1.86-.1-2.86-.04-1,.06-1.84,0-2.54-.17-.13.09-.18.13-.16.13s-.1.04-.36.13c.56.04,1.02.08,1.37.1.35.02.65.08.91.16.56.04.92.04,1.07,0,.15-.04.26-.09.33-.13.06-.04.19-.08.39-.1.2-.02.6-.01,1.2.03-.09.09-.28.14-.59.16-.3.02-.63,0-.98-.03-.04.09.1.14.42.16.33.02.62.05.88.1-.74-.05-1.52-.05-2.34,0-.82.04-1.47.06-1.95.06-.22-.04-.54-.08-.98-.1-.43-.02-.78-.03-1.04-.03-.39-.04-.7-.09-.94-.13-.24-.04-.42-.09-.55-.13-.13-.04-.11-.09.07-.13-.39,0-.66,0-.81.03-.15.02-.28.04-.39.06-.11.02-.24.04-.39.06-.15.02-.42-.01-.81-.1.13.04.16.08.1.1-.07.02-.15.04-.26.06-.11.02-.2.03-.26.03s-.03.02.1.07c.26-.09.72-.09,1.37,0,.65.09,1.15.15,1.5.2l-2.15.13c.26-.04.27-.09.03-.13-.24-.04-.42-.07-.55-.07l-.33.13s-.3-.07-.78-.07c-.13,0-.3-.03-.52-.1s-.39-.21-.52-.42c-.22-.3-.32-.67-.32-1.11-.04-.52-.06-1.04-.06-1.56s.04-.91.13-1.17c0,.35,0,.65.03.91.02.26-.01.48-.1.65,0,.35.02.52.06.52s.08-.03.1-.1c.02-.06.05-.13.1-.19.04-.07.09-.03.13.1.04-.48.06-1.02.03-1.63-.02-.61-.03-1.21-.03-1.82v-.98c0-.13.01-.28.03-.46.02-.17.08-.35.16-.52.09-.22.24-.35.46-.39.22-.04.39-.06.52-.06.13.04.27.07.42.07h.42c-.09,0-.22,0-.39-.03-.17-.02-.33-.03-.46-.03-.17-.04-.34-.04-.49,0-.15.04-.27.06-.36.06.3-.22.59-.28.85-.19h.58c.22,0,.44.01.68.03.24.02.47.03.68.03.43.09.88.14,1.33.16.46.02.92.06,1.4.1l-.32-.13c.39.04.64.07.75.07s.21,0,.29-.03c.09-.02.21-.03.36-.03h.81s-.09.01-.13.03c-.04.02.04.03.26.03.35,0,.55,0,.62-.03.06-.02.09-.04.06-.06-.02-.02-.02-.04,0-.06s.14-.03.36-.03c.43.09.72.12.88.1.15-.02.29-.05.42-.1.09,0,.22-.04.39-.13.09-.04.17-.1.26-.16s.15-.16.2-.29l-.07.06v-.58c.04-.17.04-.39,0-.65v-1.43c-.04-.48-.07-.95-.09-1.43-.02-.48-.05-.95-.09-1.43,0,.04,0,.14.03.29.02.15.03.31.03.49s.01.33.03.46c.02.13.05.17.1.13l.07-2.28s-.01-.12-.03-.23c-.02-.11-.03-.21-.03-.29s-.01-.14-.03-.16c-.02-.02-.05.03-.1.16,0,.17.01.32.03.46.02.13.03.26.03.39l-.13-.33c.04-.52.09-.8.13-.84.04-.04.08,0,.1.13.02.13.05.3.1.52.04.22.09.33.13.33-.04-.61-.03-1.05.03-1.33.07-.28.1-.6.1-.94-.04-.09-.08-.07-.1.06-.02.13-.06.26-.1.39-.04.13-.08.23-.1.29-.02.06-.05-.03-.1-.29-.04-.17-.05-.42-.03-.75.02-.33.03-.66.03-1.01.04-.17.07-.35.07-.52v-.52c.04-.26,0-.46-.13-.59-.13-.04-.25-.07-.36-.07s-.29.02-.55.06h-1.5c-.48,0-.89,0-1.24.03-.35.02-.52.08-.52.16.04-.04-.02-.08-.2-.1-.17-.02-.39-.03-.65-.03l.26.07c-.74.09-1.24.06-1.5-.07-.17-.09-.34-.15-.49-.2-.15-.04-.34-.11-.55-.2,0,.09.15.17.45.26-.61-.13-1.09-.34-1.46-.62-.37-.28-.68-.6-.94-.94-.3-.35-.56-.72-.78-1.11s-.43-.85-.65-1.37c0,.13.04.26.13.39,0,.09-.03.03-.1-.16-.07-.2-.12-.47-.16-.81.04.26.15.5.32.72-.09-.56-.19-1.27-.32-2.11-.13-.85-.17-1.7-.13-2.57,0,.04-.01.14-.03.29-.02.15-.03.29-.03.42s-.01.22-.03.26c-.02.04-.03-.02-.03-.2,0-.26.01-.48.03-.65.02-.17.05-.33.1-.46.04-.13.08-.28.1-.45.02-.17.01-.43-.03-.78-.04.3-.1.47-.16.49-.06.02-.1.18-.1.49-.04-.43-.07-.8-.1-1.11-.02-.3.01-.52.1-.65,0-.26-.04-.39-.13-.39.09-.26.12-.59.1-.98-.02-.39-.05-.74-.1-1.04l-.06.13c.22-.56.27-1.06.16-1.5-.11-.43-.14-1.02-.09-1.76l-.13.26c.04-.3.08-.67.1-1.11.02-.43-.01-.91-.1-1.43l-.07.52v-1.63c0-.13,0-.27-.03-.42-.02-.15-.01-.31.03-.49.09-.35.17-.59.26-.71,0-.09-.02-.1-.07-.03-.04.06-.08.11-.1.13-.02.02-.03-.01-.03-.1s.07-.33.2-.72c.09-.17.25-.44.49-.81.24-.37.4-.66.49-.88-.09-.09-.22.07-.39.45-.09.09-.12.12-.1.1.02-.02.08-.05.16-.1-.17.17-.3.32-.39.45.13-.26.24-.45.33-.58.09-.13.17-.25.26-.36.09-.11.18-.22.29-.32.11-.11.27-.29.49-.55.09-.09.03-.06-.16.06s-.34.24-.42.32c.56-.61,1.19-1.12,1.89-1.56.69-.43,1.78-.39,3.25.14-.09-.09-.2.05-.33.42-.13.37-.55.61-1.27.71-.72.11-1.03.16-.94.16s-.07.13-.46.39l-.98.65c-.3.35-.52.68-.65,1.01-.13.32-.24.64-.33.94-.09.3-.12.56-.1.78.02.22.03.43.03.65,0,.48-.01.72-.03.72s-.04-.07-.07-.19c-.02-.13-.04-.25-.06-.36-.02-.11-.05,0-.1.29,0,.26,0,.44.03.55.02.11.04.18.07.23.02.04.04.09.06.13.02.04.03.15.03.33l-.26.45c0,.3,0,.49.03.55.02.06.04.08.06.03.02-.04.03-.08.03-.1s0,.05,0,.23l.06.39c.04-.22.08-.4.1-.55.02-.15.05-.27.1-.36-.04.09-.08.35-.1.78-.02.43-.01.76.03.98.04-.26.07-.44.07-.55v-.19s0,.05,0,.23v1.92c0,.5,0,.98.03,1.43.02.46.04.92.06,1.4.02.48.03,1.06.03,1.76l.07-.26c0,.17-.01.31-.03.42-.02.11-.01.25.03.42l.06-.2c0,.09-.01.32-.03.68-.02.37-.03.79-.03,1.27v.72c0,.26-.02.52-.07.78,0,.26,0,.49.03.68s.05.4.1.62v-.78c0,.22.01.43.03.65.02.22.05.43.1.65l.13-.2c-.04.26.11.68.45,1.27.35.59.78,1.05,1.3,1.4l.07-.06.58.39-.13-.2c.61.39,1.41.57,2.41.52Zm-6.49-10.09c0,.13-.02.19-.06.19v-.13s.06-.06.06-.06Zm.27-7.22c-.09.09-.15.17-.2.26-.04.09-.04.48,0,1.17.09.04.13.02.13-.06s.04,0,.13.26c.04-.22.05-.42.03-.62-.02-.2-.03-.34-.03-.42-.04.13-.06.27-.03.42.02.15,0,.25-.03.29-.09-.56-.09-1,0-1.3l.13-.32-.13.32Zm-.19-.98v.59s.2-.52.2-.52l-.2-.07Zm.32,5.92c.04-.09.06-.22.07-.39-.04-.04-.06-.11-.06-.2v-.06c-.04-.48-.07-.86-.1-1.14-.02-.28-.08-.18-.16.29v.85s0-.33,0-.33l.07-.06c.04.3.04.56,0,.78-.04.22-.07.43-.07.65.04-.13.08-.36.1-.68.02-.33.08-.44.16-.36v.65c0,.22.02.39.06.52v-.13c0-.13-.02-.26-.06-.39Zm-.13,2.47c-.09-.13-.13-.03-.13.29v.62s.13-.91.13-.91Zm-.07,4.16c0,.35-.01.56-.03.65-.02.09-.03.15-.03.2v.23c0,.11.02.34.06.68-.04-.35-.05-.66-.03-.94.02-.28.03-.55.03-.81Zm.33-4.81v-.46s-.2.52-.2.52l.2-.06Zm.14-8.39c-.04-.3-.08-.35-.1-.13-.02.22-.03.46-.03.72,0-.04,0-.05.03-.03.02.02.05-.01.1-.1v-.46Zm16.79-5.5c.26,0,.48.1.65.29.17.2.26.4.26.62v5.66c0,.22-.1.42-.27.62-.17.2-.39.29-.65.29l-9.3-.02c-.56,0-.85.35-.85,1.04v8.32c-.02.69.27,1.04.83,1.04h5.14c.65,0,1.28.18,1.88.53.61.35,1.15.78,1.62,1.3.48.52.85,1.11,1.13,1.76.28.65.42,1.3.42,1.95l-.03,16.45c0,.61-.14,1.24-.43,1.89-.28.65-.66,1.26-1.14,1.82-.48.56-1.02,1.03-1.63,1.4-.61.37-1.24.55-1.89.55l-11.9-.02c-.52,0-.78-.35-.78-1.04v-5.4c.01-.69.27-1.04.79-1.04l9.36.02c.26,0,.49-.1.68-.29.2-.19.29-.4.29-.62l.02-10.86c0-.22-.1-.42-.29-.62-.19-.2-.42-.29-.68-.29h-5.2c-.65,0-1.28-.16-1.88-.47-.61-.3-1.14-.72-1.59-1.24-.45-.52-.81-1.13-1.07-1.82-.26-.69-.39-1.41-.39-2.15l.02-14.18c0-.65.15-1.3.46-1.95.3-.65,1.8-1.84,4.49-3.57l11.9.02Zm-16.72,44.97c-.09-.09-.13-.09-.13,0s.02.17.06.26c.04.09.15.17.32.26.3.09.62.11.94.07.33-.04.6-.06.81-.06h-1.24c-.35,0-.56-.05-.65-.13-.13-.22-.17-.35-.13-.39Zm.36.72c-.19,0-.36-.09-.49-.26.13.17.3.3.52.39l.39-.13h-.42Zm.89-7.93c-.17,0-.33-.01-.46-.03-.13-.02-.3-.01-.52.03l-.13.06c.22-.09.4-.11.55-.06.15.04.31.07.49.07l.06-.06Zm-.81-18.21c-.04-.35-.05-.57-.03-.68.02-.11.03-.27.03-.49.04.09.06.25.06.49s-.02.47-.07.68Zm.03,23.34v.72c.04-.09.09-.22.13-.39.04-.17.06-.15.06.07-.04.13-.08.39-.1.78-.02.39-.06.56-.1.52.04-.39.03-.75-.03-1.07-.06-.32-.05-.53.03-.62Zm.29-19.83c-.09-.09-.16-.21-.23-.36-.07-.15-.1-.16-.1-.03.17.3.38.63.62.98.24.35.44.54.62.59-.39-.39-.69-.78-.91-1.17Zm-.19-4.55c-.04-.26-.06-.47-.06-.62s.01-.27.03-.36c.02-.09.05-.17.1-.26.04-.09.06-.22.07-.39.04.48.03.76-.03.85-.07.09-.1.35-.1.78Zm.22,26.14h.65s.39,0,.39,0h-.39s-.65,0-.65,0Zm.85-.13c-.09,0-.26-.04-.52-.13.22.04.37.08.45.1.09.02.11.03.07.03Zm.66-6.05l-.26-.07.26-.06h-.91c.61-.09,1.12-.1,1.53-.03.41.07.77.12,1.07.16-.26,0-.64-.03-1.14-.1-.5-.07-.68-.03-.55.1Zm.31,6.83c.43,0,.63.02.58.07.09.04.22.05.39.03.17-.02.32-.01.46.03-.48.04-.77.04-.88,0-.11-.04-.29-.09-.55-.13h-.39s.39,0,.39,0Zm1.43.2h-1.24s1.3,0,1.3,0h-.06Zm1.38-7.87s-.02.08-.2.1c-.17.02-.38.03-.62.03h-.75c-.26,0-.46,0-.58,0,.17-.09.49-.1.94-.03s.86.03,1.2-.1Zm.19-37.72c1.43,0,2.41.03,2.93.07-.22,0-.52.01-.91.03-.39.02-.78.03-1.17.03s-.74-.01-1.04-.03c-.3-.02-.24-.05.2-.1Zm-.27,46.17s.08-.01.1-.03c.02-.02.08-.03.16-.03,0,.04-.02.06-.07.06h-.2Zm.46-1.43h-.26s.13.06.13.06l.13-.06Zm.26-36.09c0-.09.01-.21.03-.36.02-.15.03-.18.03-.1-.04.22-.07.41-.07.59v.52c0-.09.01-.26.03-.52.02-.26.01-.3-.03-.13Zm.7,9.11s-.07.04-.07.13c.13.13.26.2.39.2-.13,0-.26-.07-.39-.2-.17-.22-.26-.46-.26-.72s-.02-.46-.06-.59c-.04.09-.06.25-.07.49s.04.45.13.62c-.17-.3-.24-.62-.19-.94.04-.33.07-.62.07-.88.04-.26.05-.47.03-.62-.02-.15-.08-.16-.16-.03.04-.17.08-.47.1-.88.02-.41.08-.51.16-.29-.09.52-.09,1.17,0,1.95v1.01c0,.33.1.58.32.75l.26.13c-.09,0-.17-.04-.26-.13Zm-.18-9.75s0-.09.03-.13c.02-.04.03-.09.03-.13.13-.17.3-.26.52-.26-.3,0-.5.17-.59.52Zm.25,2.93c.09-.56.15-1,.2-1.3,0,.48-.01.78-.03.91-.02.13-.08.26-.16.39Zm.72,35.31h.07s.06,0,.06,0h-.13Zm1.44-45.84l-1.3-.07c.39,0,.62.01.68.03.07.02.27.03.62.03Zm.28,24.91c-.26.09-.49.12-.68.1-.19-.02-.25.01-.16.1h.81c.46,0,.7.05.75.13.09-.09.2-.13.33-.13-.35-.04-.65-.08-.91-.1-.26-.02-.3-.05-.13-.1Zm-.02-25.1l-.65-.07-.06.06h.71Zm-.78,38.1c.3.04.57.08.81.1.24.02.53.03.88.03-.22.04-.4.06-.55.06h-.49s-.65-.2-.65-.2Zm.88-20.94h-.33c-.13,0-.2-.02-.2-.07h1.11c.22,0,.2.01-.06.03-.26.02-.43.03-.52.03Zm1.48,11.06c-.04-.09-.06-.33-.06-.72v-1.17c-.04.09-.06.24-.06.46s0,.44.03.68c.02.24.04.43.06.59.02.15.03.21.03.16Zm.65.78v.85s-.07-.33-.07-.33c-.04,0-.08-.01-.1-.03-.02-.02-.03.01-.03.1v.39s0-.39,0-.39v-.88c0-.28.04-.44.13-.49-.04.09-.07.33-.07.72s.04.56.13.52v-.46Zm.05,5.98c0-.26-.01-.39-.03-.39s-.04.06-.07.16c-.02.11-.04.2-.06.26-.02.06-.03-.01-.03-.23v.65c-.04-.26-.06-.44-.03-.55.02-.11.04-.2.07-.26.02-.06.03-.13.03-.2v-.36s.07.46.07.46c.04.17.06.1.06-.23s.02-.51.07-.55c.04.26.04.59,0,.98-.04.39-.07.48-.07.26Zm.06,2.15c0,.09-.01.15-.03.2-.02.04-.03.09-.03.13,0-.04.01-.09.03-.13.02-.04.03-.11.03-.2.09-.43.1-.73.03-.88-.07-.15-.05-.4.03-.75.09.39.12.69.1.91-.02.22-.08.45-.16.72Zm.34-10.14l.06.13-.07.85-.07-.07.07-.91Zm.31-27.25c.22,0,.36.01.42.03.06.02.12.03.16.03-.26,0-.46-.02-.58-.07Zm.65-.13c-.22-.09-.18-.12.1-.1.28.02.53.03.75.03-.22,0-.37.02-.46.06-.09.04-.22.04-.39,0Zm.03,18.79c-.09,0-.15-.02-.19-.07.04.04.11.07.19.07Zm.55-18.66h1.5c-.22,0-.42.01-.62.03-.2.02-.49.01-.88-.03Zm1.35,7.74c-.35,0-.6-.02-.75-.07-.15-.04-.32-.09-.49-.13.39-.04.73-.04,1.01,0,.28.04.6.09.94.13-.26,0-.48-.01-.65-.03-.17-.02-.2.01-.07.1Zm-1.25,10.08c.22.09.37.14.45.16.09.02.15.03.2.03h.1s.08.02.16.07l-.13.13c-.09-.09-.21-.15-.36-.2-.15-.04-.29-.11-.42-.2Zm.8,27.18c.35-.13.64-.37.88-.71.24-.35.49-.58.75-.71-.13.13-.25.26-.36.39-.11.13-.21.24-.29.32.04-.04.22-.21.52-.49.3-.28.56-.59.78-.94-.09.26-.15.42-.2.49-.04.06-.11.14-.2.23l-.91.91.98-.91s.05.04.03.13c-.02.09-.01.15.03.2-.13.04-.31.17-.55.39-.24.22-.49.41-.75.58-.26.22-.48.35-.65.39-.17.04-.2-.04-.06-.26Zm1.51-44.93c-.13,0-.27-.01-.42-.03-.15-.02-.31-.03-.49-.03h.36c.15,0,.33.02.55.07Zm-.34,7.61c.22,0,.39-.02.52-.06-.09.04-.26.06-.52.06Zm.63,13.27c.09.17.13.33.13.46-.17-.3-.22-.46-.13-.46-.04-.04-.11-.15-.19-.33.35.39.48.55.39.49-.09-.07-.15-.12-.2-.16Zm.8-13.52c-.09.04-.21.05-.36.03-.15-.02-.32-.03-.49-.03l.46-.13c.17.09.3.13.39.13Zm-.54,13.72c.09.09.17.23.26.42.09.2.17.4.26.62.13.39.19.61.19.65-.04-.09-.15-.35-.32-.78-.17-.43-.3-.74-.39-.91Zm-.03,20.68l.07-.13s-.02-.07-.07-.07v.2Zm.33-.45c.04-.09.08-.17.1-.26.02-.09.05-.17.1-.26-.04.13-.09.25-.13.36-.04.11-.09.23-.13.36,0-.09.02-.15.07-.19Zm.14-3.64c0,.09-.01.19-.03.29-.02.11-.01.23.03.36v-.65Zm.2-.06c.04-.13.05-.2.03-.2h-.06s-.04-.04-.07-.13c-.02-.09-.01-.26.03-.52,0-.48.02-.89.07-1.24.04-.35.11-.48.2-.39-.04.43-.07.9-.07,1.4s-.05.86-.13,1.07Zm.16-17.1c-.04-.09-.08-.19-.1-.33-.02-.13-.05-.24-.1-.33.22.35.31.56.29.65-.02.09-.05.09-.1,0Zm-.14,7.67c0,.22,0,.5.03.85.02.35-.01.54-.1.58l.07-1.43Zm-.07,2.41v.52c.04.3.1.52.16.65.06.13.03.41-.1.85l-.06-1.5v-.52Zm.52-1.23c-.04.61-.09,1.01-.13,1.2-.04.2-.11.53-.2,1.01-.09-.61-.09-1.02,0-1.24.09-.22.17-.28.26-.19.04-.39.04-.62,0-.68-.04-.07-.07-.21-.06-.42l.13.33Zm-.39-.07c.04-.43.09-.92.13-1.46.04-.54.11-.79.2-.75-.09-.04-.15.15-.2.58-.04.43-.07.76-.07.98s-.02.43-.07.65Zm.5,12.03c-.13.26-.22.45-.26.58.04-.13.13-.32.26-.58Zm-.1-18.66c.04.13.06.33.06.59-.04.09-.08.09-.1,0-.02-.09-.03.07-.03.46.09.09.13-.07.13-.46,0-.17-.02-.37-.06-.59Zm.16-16c.04-.09.07-.22.07-.39v-.46s0-.46,0-.46c0,.48,0,.73.03.75.02.02.04-.06.07-.26.02-.19.04-.41.07-.65.02-.24.03-.38.03-.42,0,.61-.02.99-.07,1.14-.04.15-.11.4-.2.75Zm-.03,18.27s.11-.33.2-.84v-.75c0-.28-.04-.55-.13-.81.04.3.05.61.03.91-.02.3-.06.61-.1.91l.07-.58-.07,1.17Zm.06,2.41l.07-2.02-.06.06v-.13s-.07.39-.07.39l.07-.26v1.95Zm.31,6.11s0-.1.03-.16c.02-.06.01-.16-.03-.29v.46Zm.14-5.27v.19s-.07,1.11-.07,1.11l.07-1.3Zm-.02,10.08c.09-.17.13-.22.13-.13l-.13.13Zm.09-14.18l.07-.52-.07,1.63v-1.11Z"/></g></svg>