<?xml version="1.0" encoding="utf-8"?>
<!-- Generator: Adobe Illustrator 27.6.1, SVG Export Plug-In . SVG Version: 6.00 Build 0)  -->
<svg version="1.1" id="Layer_1" xmlns="http://www.w3.org/2000/svg" xmlns:xlink="http://www.w3.org/1999/xlink" x="0px" y="0px"
	 viewBox="0 0 16 16" style="enable-background:new 0 0 16 16;" xml:space="preserve">
<style type="text/css">
	.st0{fill:#FFFFFF;}
</style>
<g>
	<path fill="#fff" d="M12.2,2.9c-0.5,0-0.9,0.4-0.9,0.9s0.4,0.9,0.9,0.9c0.5,0,1-0.4,0.9-0.9C13.1,3.3,12.7,2.9,12.2,2.9z"/>
	<path fill="#fff" d="M8.1,4C5.9,4,4.1,5.8,4.1,7.9s1.8,3.9,3.9,3.9S12,10.2,12,7.9C12,5.8,10.2,4,8.1,4z M8.1,10.4
		c-1.4,0-2.5-1.1-2.5-2.5c0-1.4,1.1-2.5,2.5-2.5s2.5,1.2,2.5,2.5C10.6,9.3,9.5,10.4,8.1,10.4z"/>
	<path fill="#fff" d="M11.2,0H4.8C2.2,0,0,2.1,0,4.8v6.3c0,2.7,2.2,4.8,4.8,4.8h6.4c2.6,0,4.8-2.1,4.8-4.8l0-6.4
		C16,2.1,13.8,0,11.2,0z M14.5,11.2c0,1.8-1.4,3.3-3.3,3.3H4.8c-1.8,0-3.3-1.4-3.3-3.3V4.8C1.5,3,3,1.5,4.8,1.5h6.4
		c1.8,0,3.3,1.5,3.3,3.3V11.2z"/>
</g>
</svg>
