<?xml version="1.0" encoding="UTF-8"?><svg id="Layer_2" xmlns="http://www.w3.org/2000/svg" viewBox="0 0 81.67 47.14"><defs><style>.cls-1{fill:#fff;}</style></defs><g id="Layer_1-2"><path class="cls-1" d="m.07,1.43l-.07.65v-.81c0-.11.04-.27.13-.49.09-.22.23-.38.42-.49.2-.11.36-.16.49-.16h.58-.33c-.22,0-.41.04-.58.13-.3.09-.5.28-.58.58-.04.09-.07.19-.07.29v.29Zm.13,4.16l-.2.72c.04-.48.09-.74.13-.78.04-.04.06-.02.06.06Zm20.03,33.94c.17.39.25.66.23.81-.02.15-.05.21-.1.16l-.84-3.19s-.1-.08-.16-.23c-.07-.15-.12-.28-.16-.39-.04-.11-.08-.17-.1-.2-.02-.02,0,.1.1.36l-.26-1.24-.06.13c-.87-2.43-1.58-4.78-2.15-7.06-.56-2.28-1.32-4.63-2.28-7.06v.13l-.39-1.5-.2-.71v-.2l-.06-.06v-.06s.02.09.06.13v.06-.13c-.13-.26-.19-.5-.19-.72v-.55c0-.15.04-.34.13-.55.04-.04.11-.15.2-.33,0-.04-.03-.01-.1.1-.07.11-.08.12-.03.03l.07-.06v-.13c.09-.17.15-.35.2-.52,0,.13.04.12.13-.03.09-.15.2-.35.33-.59.13-.24.26-.49.39-.75.13-.26.24-.46.33-.59.09-.17.13-.27.13-.29s-.02,0-.07.06c-.04.06-.09.13-.13.2-.04.06-.09.12-.13.16.61-1.34,1.21-2.57,1.82-3.67.61-1.11,1.26-2.37,1.95-3.8-.3.74-.55,1.31-.75,1.72-.2.41-.36.77-.49,1.07-.13.3-.27.61-.42.91-.15.3-.34.69-.55,1.17.3-.56.55-1.03.75-1.4.2-.37.37-.74.52-1.11.15-.37.33-.75.52-1.14s.46-.89.81-1.5l-.65,1.11c.09-.35.24-.74.46-1.17.22-.43.44-.85.68-1.24.24-.39.43-.75.58-1.07.15-.33.23-.55.23-.68.43-.74.85-1.41,1.24-2.02.09-.09.14-.18.16-.29.02-.11.08-.21.16-.29,0-.09.04-.17.13-.26l.13-.13h.2c.09.04.17.06.26.06h.13l-.07.06c0,.09-.02.15-.07.2v.26h-.71l.39.13.26.06v.06-.13c.04-.09.06-.15.06-.2,0,.04-.02.11-.06.2v.13h-1.63v-.13c-.61,0-.93.02-.98.06-.35-.09-.69-.13-1.04-.13h-1.17c-.22,0-.42-.01-.62-.03-.2-.02-.4-.03-.62-.03s-.42,0-.62-.03c-.2-.02-.32-.01-.36.03v.07h-.06v.06c-.04.09-.07.17-.07.26-.13.17-.22.35-.26.52-.22.48-.3.74-.26.78.04-.13.12-.28.23-.46.11-.17.22-.35.33-.52.11-.17.18-.31.23-.42.04-.11.04-.14,0-.1h-.07.07l.06.06s-.06.09-.06.13-.01.08-.03.1c-.02.02-.03.06-.03.1-.17.35-.37.71-.58,1.07-.22.37-.37.66-.46.88l.13-.33c-.13.22-.25.4-.36.55-.11.15-.21.29-.29.42,0,.09,0,.1.03.03.02-.07.05-.12.1-.16-.35.78-.66,1.33-.94,1.66-.28.32-.51.79-.68,1.4l-.26.19-.52,1.24c-.09,0-.18.09-.29.26-.11.17-.22.37-.33.59-.11.22-.22.42-.33.62-.11.2-.21.29-.29.29-.17.35-.26.53-.26.55,0,.02.03,0,.1-.06.06-.06.12-.13.16-.19.04-.07.02-.03-.06.1-.13.35-.32.72-.55,1.11-.24.39-.47.77-.68,1.14-.22.37-.41.71-.59,1.01-.17.3-.26.52-.26.65l-.07.06c.09-.09.09-.08,0,.03-.09.11-.13.14-.13.1v.06h-.06c0,.09-.07.15-.2.2l-.13.06h-.26c-.13.04-.25.02-.36-.06-.11-.09-.21-.17-.29-.26-.04-.17-.06-.3-.06-.39v-2.44c0-.28.02-.55.06-.81l-.13-.07c0-.3.01-.61.03-.91.02-.3.03-.59.03-.85l-.07.06v.13c.04-1.04.07-1.99.07-2.86s.02-1.73.06-2.6c-.09.09-.14.17-.16.26-.02.09-.03.37-.03.85-.04-.39-.06-.85-.03-1.37.02-.52.03-1.08.03-1.69.04-.17.06-.48.06-.91v-.39h.13s.07-.02.07-.06l.07-.06-.13.26-.06-.06h-1.37l.2.06-1.37-.06c.13,0,.17.01.13.03s-.06.05-.06.1H1.37s-.09-.02-.13-.06c0-.09-.01-.14-.03-.16-.02-.02-.03-.05-.03-.1l.07.06s.09.06.13.06h.06v.33c0,.35-.02.61-.06.78,0,.35-.04.74-.13,1.17,0-.17,0-.22.03-.13.02.09.04.17.06.26.02.09.04.12.07.1s.05-.21.1-.55c-.09,1.21-.13,2.54-.13,3.97s-.02,2.8-.07,4.1l-.06,1.04v.13l.06-.78c0,.52-.01,1.02-.03,1.5-.02.48-.05.93-.1,1.37.04.09.09.21.13.36.04.15.07.38.07.68-.04,0-.05.17-.03.52.02.35.04.76.07,1.24.02.48.03.97.03,1.46s-.02.9-.06,1.2c0,.09,0,.03,0-.16s.02-.18.06.03c0,1.65-.03,3.58-.1,5.79-.06,2.21-.05,4.29.03,6.24-.09.09-.15.34-.2.75-.04.41-.08.89-.1,1.43-.02.54-.03,1.13-.03,1.76s-.02,1.2-.07,1.72c.04.13.08.14.1.03.02-.11.03-.27.03-.49v-.72c0-.26.02-.46.07-.59,0,.3,0,.5.03.59.02.09.04.17.07.26.02.09.04.23.06.42.02.2.01.55-.03,1.07v-.46.49s-.02.04-.06.06c-.04.02-.07.09-.07.2v.81l.13.07-.2,1.17c.04.91.05,1.81.03,2.7-.02.89-.01,1.7.03,2.44,0,.09.02.13.07.13h2.93c.39,0,.8-.02,1.24-.06.26.09.15.13-.33.13h.58c.17,0,.37.02.59.06.17,0,.37.01.58.03.22.02.37.01.46-.03.09-.04.13-.16.13-.36v-1.24c0-.19-.02-.4-.06-.62l-.07.46v-1.59c0-.41.02-.8.07-1.17.04-.37.09-.79.13-1.27.04-.48.07-1.11.07-1.89,0,.35-.01.83-.03,1.46-.02.63.01.99.1,1.07.04-.13.07-.51.07-1.14s-.02-1.07-.07-1.33l.2.26c-.09.22-.13.57-.13,1.07s-.02.99-.07,1.46c.04-.09.07-.15.07-.19s.02-.11.06-.2c-.04.43-.06.9-.06,1.4s-.02,1.05-.07,1.66v-1.63c-.09.35-.11.91-.06,1.69.04.78.04,1.34,0,1.69.09-.04.13-.18.13-.42s.04-.12.13.36c.04.17.02.35-.07.52-.09.17-.19.28-.33.33-.17.09-.3.12-.39.1-.09-.02-.17-.03-.26-.03-.17,0-.31-.01-.42-.03-.11-.02-.21-.03-.29-.03-.22-.04-.45-.09-.68-.13-.24-.04-.68-.09-1.33-.13l.46-.07c-.39,0-.77-.03-1.14-.1-.37-.07-.86-.06-1.46.03,0,.09.17.13.52.13s.63.02.85.06h-.39c-.17,0-.37-.02-.58-.06-.09,0-.2-.01-.33-.03-.13-.02-.26-.03-.39-.03-.26,0-.43-.02-.52-.06.04.13.24.2.58.2.17,0,.35.01.52.03.17.02.35.03.52.03.39.04.79.06,1.2.06h1.14c-.26,0-.26.04,0,.13-.48,0-.98-.01-1.5-.03-.52-.02-1.04-.03-1.56-.03-.35,0-.61-.02-.78-.06-.3-.04-.46-.24-.46-.58,0-.26,0-.52.03-.78.02-.26.03-.52.03-.78.09-2.12.09-4.18,0-6.18-.04.52-.08.77-.1.75-.02-.02-.03-.14-.03-.36v-.68c0-.24-.02-.29-.06-.16.09-.13.11-.47.06-1.01-.04-.54-.04-1.09,0-1.66-.04-.09-.08-.03-.1.16-.02.2-.04.42-.06.68-.02.26-.03.47-.03.62s-.02.12-.07-.1c.04-1.08.12-2.3.23-3.64.11-1.34.14-2.69.1-4.03-.04.09-.08.24-.1.46-.02.22-.03.37-.03.46.04-.91.12-1.89.23-2.93.11-1.04.1-1.86-.03-2.47-.09.43-.14.89-.16,1.37-.02.48-.08.95-.16,1.43v-.46c0-.17-.02-.37-.07-.59l-.13.65c0-.52,0-.91.03-1.17.02-.26.05-.47.1-.62.04-.15.1-.29.16-.42.07-.13.12-.35.16-.65l-.2-1.37c-.04-1.21-.04-2.36,0-3.45.04-1.08.13-2.02.26-2.8v-.55c0-.24-.01-.47-.03-.68-.02-.22-.04-.37-.06-.46-.02-.09-.06-.04-.1.13-.09.61-.16,1.16-.23,1.66-.07.5-.1,1.36-.1,2.57.04.09.08.04.1-.13.02-.17.03-.36.03-.55s0-.36.03-.49c.02-.13.03-.11.03.06-.04.48-.04,1.1,0,1.85.04.76.02,1.35-.07,1.79v-2.67c-.09.04-.11.26-.07.65s.02.69-.06.91c-.09-.35-.1-.83-.03-1.46.07-.63.05-1.22-.03-1.79v.2-1.95c0-.22.01-.47.03-.75.02-.28.03-.68.03-1.2.09-.09.13.06.13.42s.02.79.07,1.27c0-1.69.05-3.59.16-5.69.11-2.1.08-4-.1-5.69l-.2,2.02c0-.3.01-.65.03-1.04.02-.39.03-.76.03-1.11s-.01-.64-.03-.88c-.02-.24-.06-.33-.1-.29v.72c0,.13-.01.23-.03.29s-.04.13-.06.2c-.02.06-.03.18-.03.36v.06c0,.09-.01.22-.03.39-.02.17-.03.17-.03,0,.04-.3.08-.63.1-.98.02-.35.03-.69.03-1.04l.07-.52v-.29c0-.11.04-.25.13-.42.09-.17.21-.3.36-.39.15-.09.27-.13.36-.13h.52c-.13,0-.17-.01-.13-.03s.13-.04.26-.06c.13-.02.26-.04.39-.07.13-.02.22-.03.26-.03.3,0,.47.01.49.03.02.02,0,.04-.07.07-.07.02-.23.05-.49.1.35,0,.72.03,1.14.1.41.06.75.05,1.01-.03.22-.04.28-.08.2-.1-.09-.02-.23-.03-.42-.03s-.41-.01-.65-.03c-.24-.02-.4-.05-.49-.1l3.58.19-.13-.06c.13.04.35.06.65.06.13,0,.28.06.46.2.17.13.28.28.33.46.04.13.08.16.1.1.02-.06-.03-.21-.16-.42-.17-.22-.39-.34-.65-.36-.26-.02-.43-.03-.52-.03h.36c.15,0,.33.04.55.13.22.13.36.3.42.52.06.22.07.37.03.46v.62c0,.2-.02.4-.07.62-.09.87-.06,1.65.07,2.34l-.07,1.04s.01.09.03.13c.02.04.03.02.03-.06l-.07,1.04c-.04.48-.05.77-.03.88.02.11.04.16.07.16.02,0,.05-.02.1-.06.04-.04.07,0,.07.13v-.06c.04.3.08.53.1.68.02.15.03.12.03-.1l-.13,2.02c-.04.22-.08.53-.1.94-.02.41-.05.82-.1,1.24-.04.41-.09.77-.13,1.07-.04.3-.09.46-.13.46v.39s-.07-.02-.07-.06v-.06c.17-.3.25-.47.23-.49-.02-.02-.04-.04-.06-.06-.02-.02,0-.11.06-.26.07-.15.23-.49.49-1.01l-.33.52c.22-.52.39-.8.52-.85-.04-.04-.06-.13-.06-.26.09.04.22-.11.39-.46.17-.35.3-.63.39-.85l-.52.65c.17-.22.31-.43.42-.65.11-.22.27-.56.49-1.04l-.39.52c.17-.35.3-.55.39-.62s.14-.11.16-.13.07-.09.13-.2c.07-.11.21-.38.42-.81l-.72,1.63c.26-.43.46-.75.59-.94.13-.19.24-.33.33-.39.09-.06.16-.12.23-.16.06-.04.16-.17.29-.39.61-.95,1.15-1.98,1.63-3.09.48-1.11,1-1.98,1.56-2.63,0-.13-.01-.2-.03-.2s0-.15.1-.46c-.35.61-.63,1.08-.85,1.43-.22.35-.43.65-.65.91-.35.56-.55.93-.62,1.11-.07.17-.1.31-.1.42s-.04.27-.13.49c-.09.22-.33.63-.72,1.24-.04-.09.03-.3.23-.65.2-.35.4-.69.62-1.04-.09-.09-.23.03-.42.36s-.38.62-.55.88c.43-.74.86-1.57,1.27-2.5.41-.93.75-1.64,1.01-2.11l.65-.98.33-.65c.17-.26.37-.46.59-.59l.52-.13c.17,0,.33.01.46.03.13.02.28.03.46.03.26.04.48.08.65.1.17.02.15.08-.06.16.43,0,.75-.01.94-.03.2-.02.36-.04.49-.06.13-.02.29-.03.49-.03s.51.02.94.06c-.17-.04-.21-.08-.1-.1.11-.02.23-.04.36-.06.13-.02.24-.03.33-.03s.04-.02-.13-.06c-.35.09-.9.09-1.66,0-.76-.09-1.38-.15-1.85-.19l2.67-.13c-.17,0-.25.01-.23.03.02.02.08.04.16.06.09.02.21.04.36.06.15.02.27.03.36.03l.33-.13c.09.09.39.13.91.13.17-.04.43-.06.78-.06h.46c.09.04.2.05.33.03.13-.02.35.08.65.29.09.09.13.16.13.23s.02.14.07.23v.33l-.13.39c-.04.13-.11.28-.2.46-.09.17-.16.33-.23.46-.07.13-.14.26-.23.39-.3.61-.56,1.02-.78,1.24.22-.39.39-.74.52-1.04.13-.3.28-.52.46-.65.13-.35.18-.54.16-.59-.02-.04-.07-.03-.13.03-.07.06-.13.13-.2.19-.06.07-.08.01-.03-.16-.3.52-.62,1.1-.94,1.72-.33.63-.65,1.29-.98,1.98-.32.69-.67,1.37-1.04,2.02-.37.65-.73,1.26-1.07,1.82.17-.22.37-.51.59-.88.22-.37.37-.57.46-.62-.39.87-.89,1.77-1.5,2.7-.61.93-1.19,1.9-1.76,2.89l.39-.26c-.26.39-.43.65-.52.78s-.14.25-.16.36c-.02.11-.07.24-.13.39-.07.15-.21.45-.42.88v-.16c0-.06-.04.01-.13.23-.22.35-.34.56-.36.65-.02.09-.01.13.03.13h.1s-.03.13-.16.39c-.17.22-.29.4-.36.55-.07.15-.14.27-.23.36-.09.13-.13.28-.13.46,0,.04.04.2.13.46.13.3.26.74.39,1.3v-.2c.26,1,.62,2.06,1.07,3.19.46,1.13.86,2.19,1.2,3.19,0-.04-.03-.15-.1-.33-.07-.17-.14-.36-.23-.55-.09-.2-.16-.36-.23-.49s-.1-.17-.1-.13l.78,2.67c.04.09.12.28.23.58.11.3.14.28.1-.06-.04-.22-.1-.4-.16-.55-.07-.15-.12-.29-.16-.42l.2.33c.17.61.26.95.26,1.04s-.05.04-.16-.13c-.11-.17-.22-.37-.33-.59-.11-.22-.19-.33-.23-.33.22.65.36,1.15.42,1.5.06.35.18.74.36,1.17.04.09.05.06.03-.1-.02-.15-.04-.31-.07-.49-.02-.17-.03-.29-.03-.36s.07.03.2.29c.09.17.18.44.29.81.11.37.23.77.36,1.2.13.43.24.85.33,1.24.09.39.15.72.2.98.17.26.37.67.58,1.24.22.56.41,1.13.58,1.69.17.56.33,1.04.46,1.43s.24.58.33.58c-.04-.04-.04.03,0,.23.04.2.13.45.26.75l-.06-.39c.17.43.29.78.36,1.04.07.26.11.49.13.68.02.19.04.39.07.58.02.2.08.42.16.68.04-.04.05-.13.03-.26-.02-.13-.03-.24-.03-.33.22.61.38,1.16.49,1.66.11.5.23.99.36,1.46.04.13.11.37.2.71,0,.09.02.22.06.39.04.17,0,.37-.13.58-.13.17-.3.26-.52.26h-.88c-.15,0-.32.02-.49.06.09,0,.15.01.2.03.04.02.13,0,.26-.03.13.09-.26.09-1.17,0l.91-.13c-.65-.17-1.49-.2-2.5-.07-1.02.13-2.05.17-3.09.13.04,0,.15.01.33.03.17.02.34.03.49.03s.25.01.29.03c.04.02-.02.03-.19.03-.35,0-.61-.01-.78-.03-.17-.02-.37-.06-.59-.1-.09-.04-.18-.09-.29-.13-.11-.04-.23-.13-.36-.26-.13-.13-.19-.26-.19-.39,0-.09-.02-.17-.07-.26-.04-.09-.09-.17-.13-.26.09.39.11.59.06.59,0,.09.02.21.07.36.04.15.2.29.46.42-.22-.09-.39-.22-.52-.39-.09-.09-.13-.17-.13-.26,0-.04-.01-.08-.03-.1-.02-.02-.03-.05-.03-.1v-.06c.04.17.05.23.03.16-.02-.06-.01-.08.03-.03h-.06c-.09-.26-.15-.46-.2-.59-.13-.3-.2-.58-.2-.85l-.13-.26-.07-.06c-.09-.35-.21-.75-.36-1.2-.15-.46-.29-.86-.42-1.2v.19c-.04-.69-.18-1.28-.42-1.76-.24-.48-.49-1.13-.75-1.95v.33c-.09-.35-.21-.78-.36-1.3-.15-.52-.36-1.08-.62-1.69l.13.65c-.13-.48-.33-1.07-.58-1.79s-.43-1.31-.52-1.79c-.04-.09-.06-.09-.06,0v.2s-.02.02-.07-.06c-.04-.09-.13-.33-.26-.72-.04-.22-.13-.55-.26-1.01-.13-.46-.26-.79-.39-1.01v.2c0,.09.04.24.13.46.09.13.12.17.1.13-.02-.04-.03-.09-.03-.13l.13.52c-.26-.56-.39-.92-.39-1.07s-.11-.53-.33-1.14c-.09-.13-.11-.08-.06.16.04.24.06.4.06.49l-.13-.58-.13-.33v-.13l.07.06s.02.09.06.13c.04.04.09.08.13.1.04.02.09.05.13.1.17.09.34.12.49.1.15-.02.27-.05.36-.1l.2-.2.06-.13-.32.58-.59,1.11v.06s-.05,0-.03-.03,0,.01-.03.1l-.07.06c0,.09-.02.13-.07.13,0,.22-.02.37-.06.46-.04.04-.07,0-.07-.13s-.04-.11-.13.06c0-.3.02-.5.07-.58l.06-.13v-.13h.07v-.06l.2-.39c.13-.35.04-.3-.26.13-.04.09-.06.14-.06.16s-.04.08-.13.16c0,.04-.01.09-.03.13-.02.04-.03.09-.03.13-.09.26-.13.43-.13.52,0-.3.09-.61.26-.91,0-.04-.01-.07-.03-.07s-.03.04-.03.13l.39-.85c-.3.52-.45.71-.42.55.02-.15.09-.37.2-.65.11-.28.17-.49.2-.62.02-.13-.12.09-.42.65.09-.13.16-.27.23-.42.07-.15.14-.29.23-.42l.26-.26h.07c.22.52.35.8.39.85.04.04.11.15.19.33l-.26-.85c0-.17-.04-.3-.13-.39,0-.09-.07-.13-.2-.13-.09,0-.15.02-.2.06.09-.09.17-.13.26-.13l.19.19c.04.09.07.14.07.16s.02.08.07.16c.04.09.06.15.06.2s.02.09.07.13c0,.09,0,.12.03.1.02-.02.03-.08.03-.16s.01-.14.03-.16c.02-.02.12.21.29.68.3,1.13.63,2.01.98,2.63.35.63.63,1.23.85,1.79.17.56.25.85.23.85s-.08-.08-.16-.23c-.09-.15-.15-.27-.2-.36-.04-.09-.02.04.07.39.09.3.15.5.2.58.04.09.08.15.1.2.02.04.04.1.06.16.02.06.08.18.16.36v.59c.13.35.21.55.23.62.02.06.04.08.06.03.02-.04.03-.08.03-.1s.02.08.06.29c.13.26.2.38.2.36,0-.02-.02-.1-.07-.23-.04-.13-.08-.28-.1-.46-.02-.17-.03-.3-.03-.39.04.17.13.5.26.98.13.48.26.82.39,1.04-.09-.26-.15-.48-.2-.65-.04-.13-.06-.21-.06-.23s.04.08.13.29c.26.87.49,1.59.68,2.18.2.59.39,1.14.58,1.66.2.52.38,1.05.55,1.59.17.54.39,1.2.65,1.98v-.26c.09.17.13.33.13.46l.07.13v.06s-.05.02-.29.19c-.24.17-.27.2-.1.07l.06-.07s-.02.07-.06.07c.04,0,.09-.02.13-.07.04-.04.06-.08.06-.1,0-.02.02-.05.07-.1v-.13h.06l.2.07h1.17c.61.04,1.22.06,1.85.06h1.72l-1.11-.13,1.95.13-.2-.2c.09.04.18.06.29.06s.27.02.49.07h.65c0-.09,0-.07,0,.06s.02.22.06.26l.07.26s-.15-.06-.33-.06h-.26v-.06s-.05-.02-.03.06c.02.09.03.11.03.06v-.06l-.07-.19c-.04-.09-.08-.2-.1-.33-.02-.13-.05-.24-.1-.33-.09-.22-.16-.44-.23-.68-.06-.24-.14-.47-.23-.68l-.06.06-.33-1.11.06.39c-.17-.52-.33-1.08-.46-1.69-.13-.61-.33-1.21-.58-1.82ZM.13,15.87v.39c0,.17-.02.26-.07.26v-1.37c0-.26,0-.24.03.06.02.3.03.52.03.65Zm.33,11.51c-.09.61-.15,1.13-.2,1.56-.04-.61-.04-.98,0-1.11.04-.13.11-.28.2-.46Zm-.07-16.52c0-.26-.01-.44-.03-.55-.02-.11-.03-.17-.03-.19s-.01-.05-.03-.1c-.02-.04-.03-.13-.03-.26l.2.06-.07,1.04ZM1.37.72s-.1-.01-.16-.03c-.06-.02-.14-.03-.23-.03-.35.09-.52.35-.52.78,0,.26-.01.55-.03.88-.02.33-.01.64.03.94.09-.35.13-.7.13-1.07s.04-.75.13-1.14c-.09.13-.13.26-.13.39s-.02.26-.07.39c.04-.13.05-.26.03-.39s.01-.26.1-.39c.09-.17.21-.28.36-.33.15-.04.27-.04.36,0Zm-.72,44.28c-.04.13-.08.28-.1.46s.01.37.1.58c.04.13.1.22.16.26.06.04.14.09.23.13.09.04.17.04.26,0-.22,0-.38-.04-.49-.13-.11-.09-.16-.17-.16-.26-.09-.26-.13-.37-.13-.32,0-.04-.01-.03-.03.03-.02.06,0,.18.1.36,0,.17.11.3.33.39.26.09.43.13.52.13h.52c-.22,0-.38.01-.49.03-.11.02-.27-.01-.49-.1-.17-.09-.29-.19-.36-.29-.07-.11-.1-.21-.1-.29-.04-.22-.04-.38,0-.49.04-.11.09-.27.13-.49Zm-.06-4.03c0-.39.02-.68.06-.88.04-.2.09-.38.13-.55.04.48.04.89,0,1.24-.04.35-.09.72-.13,1.11,0-.3.01-.56.03-.78.02-.22-.01-.26-.1-.13ZM.65,3.19c0-.13.01-.26.03-.39.02-.13.03-.26.03-.39,0-.04,0-.05,0-.03s0,.03.03.03.04-.03.07-.1c.02-.06.03-.21.03-.42-.04-.09-.08-.06-.1.06-.02.13-.03.28-.03.46,0,.09-.01.18-.03.29-.02.11-.03.27-.03.49Zm0,38.69c0,.26.02.48.07.65-.04-.13-.07-.35-.07-.65Zm7.02,3.71c0,.48-.22.72-.65.72H1.3c-.39,0-.58-.24-.58-.72V1.37c0-.39.2-.59.58-.59h5.72c.43,0,.65.2.65.59v13.4c0,.26.09.3.26.13L14.96,1.37c.17-.39.5-.59.98-.59h6.83c.39,0,.5.2.33.59l-8.32,16.39c-.13.17-.21.38-.23.62-.02.24,0,.44.1.62l8.58,26.73c.04.39-.11.58-.46.58h-7.02c-.52,0-.78-.19-.78-.58l-5.66-17.56c-.13-.35-.3-.35-.52,0l-.85,1.76c-.17.3-.26.69-.26,1.17v14.5ZM.78,19.05s.01.06.03.06.03-.04.03-.13,0-.16.03-.23c.02-.06.03-.12.03-.16,0,.22-.02.35-.07.39v.78c0,.3.02.54.07.72.04-.09.05-.27.03-.55-.02-.28-.01-.49.03-.62.04.26.05.58.03.98-.02.39-.04.75-.07,1.07-.02.33-.03.58-.03.75s.06.17.19,0c0,.13-.01.3-.03.52-.02.22-.04.42-.06.62-.02.19-.04.34-.07.42-.02.09-.05.06-.1-.07.04-.61.05-1.4.03-2.37-.02-.98-.05-1.7-.1-2.18-.04-.04-.06-.15-.06-.33v.13c0,.09.02.15.06.19Zm0,11.83l.07.26v.65l-.07-.91Zm.07,12.81l.07-1.11.13.52-.2.58ZM1.11,5.46v-2.34s.07.16.07.36v.68c0,.26-.01.51-.03.75-.02.24-.03.42-.03.55Zm.13,24.65c-.04.17-.06.11-.03-.2.02-.3.03-.52.03-.65l-.07,1.3c.04.09.07.05.07-.1v-.36Zm.06-24.25l.07-.59c0,.3-.01.49-.03.55s-.03.08-.03.03l-.06.52c-.04-.65-.06-.92-.03-.81.02.11.05.21.1.29Zm0,5.59v.33-.39.06ZM4.29.65l-2.47-.06.06.06h-.13l.46.06-.33-.06h2.41Zm2.34.59c-.22-.04-.38-.07-.49-.07h-.36c-.22,0-.59-.02-1.11-.06-.52-.04-.76-.11-.72-.19-.04.04.02.08.2.1.17.02.4.04.68.07.28.02.58.04.91.06.33.02.62.05.88.1Zm-1.37.06c.26,0,.6-.01,1.01-.03.41-.02.64.01.68.1l-1.69-.06Zm.07-1.11h.13l1.37.06-1.5-.06Zm1.3.65c.43,0,.69.07.78.2.04.04.07.2.07.46-.04.17-.08.35-.1.52-.02.17-.05.39-.1.65-.04-.35-.05-.64-.03-.88.02-.24.03-.4.03-.49.04-.13.11-.2.2-.2-.09-.13-.2-.19-.33-.19h-.33c-.09.04-.26.06-.52.06l.33-.13Zm.33,9.23c0,.09-.01.2-.03.33-.02.13-.01.3.03.52v-.85Zm.2,0c.04-.13.05-.21.03-.23-.02-.02-.04-.03-.06-.03s-.04-.05-.07-.16c-.02-.11-.01-.34.03-.68,0-.61.02-1.12.07-1.53.04-.41.11-.55.2-.42-.04.52-.07,1.08-.07,1.69s-.04,1.06-.13,1.37Zm-.07-7.93l.07,1.82c.13-.48.16-.81.1-1.01-.07-.2-.12-.47-.16-.81v-.65.65Zm0,12.68v.33l.07.13c.17.26.41.37.71.33-.3.09-.52-.02-.65-.33-.09-.09-.13-.17-.13-.26v-.46l.07-.52c0,.13-.01.25-.03.36-.02.11-.03.25-.03.42Zm.26,21.33l.06-1.56c0,.48-.01.75-.03.81-.02.07-.03.32-.03.75Zm.2.33l.06-.85-.06-.07v.91Zm.19-5.4v2.24c0,.89-.02,1.64-.06,2.24,0-.26-.01-.63-.03-1.11-.02-.48-.03-.94-.03-1.4s.01-.88.03-1.27.05-.63.1-.72Zm.2-16.65v.46c0-.09-.09-.13-.26-.13h.06s.09.06.13.06l.07.06v-.46Zm-.13,25.62c0,.26-.01.43-.03.52-.02.09-.03.15-.03.19,0-.35.02-.58.07-.72Zm-.07,4.42c0-.17.01-.35.03-.52.02-.17.03-.39.03-.65v.52c0,.17-.02.39-.07.65Zm.07-2.93v1.76c0-.22-.01-.44-.03-.68-.02-.24-.01-.6.03-1.07Zm.13-.65c.09-.3.12-.27.1.1-.02.37-.03.66-.03.88,0-.22-.02-.39-.07-.52-.04-.13-.04-.28,0-.46Zm.2-35.89s0-.11.03-.2c.02-.09,0-.19-.03-.33v.52Zm.13,5.79c.09-.17.13-.22.13-.13l-.13.13Zm.2,4.62c.17-.17.23-.23.16-.16-.06.06-.08.05-.03-.03h.06v-.2l-.06.13v.06c.09-.09.08-.08-.03.03-.11.11-.14.16-.1.16v.07-.07Zm1.89-5.01c0-.26-.07-.3-.2-.13-.13.17-.28.41-.46.72-.17.3-.36.62-.55.94s-.34.53-.42.62v.23c0,.11.02.15.07.13.04-.02.13-.13.26-.33.13-.19.33-.55.58-1.07-.22.48-.38.8-.49.98-.11.17-.2.3-.26.39-.07.09-.13.18-.2.29-.07.11-.12.31-.16.62.22-.48.44-.92.68-1.33.24-.41.4-.66.49-.75l-.52,1.04c.22-.22.41-.57.58-1.07.17-.5.37-.92.59-1.27Zm.46,24.19l.26.65v-.65h-.26Zm.33-.98c-.13-.35-.16-.38-.1-.1.07.28.14.58.23.88,0-.09,0-.11.03-.06.02.04.01,0-.03-.13l-.13-.59Zm.26,2.02c-.04.09-.08.21-.1.36-.02.15.12.62.42,1.4.09,0,.12-.05.1-.16-.02-.11.05,0,.23.29-.09-.3-.16-.55-.23-.75-.07-.19-.12-.36-.16-.49.04.22.1.4.16.55.07.15.08.27.03.36-.09-.3-.17-.59-.26-.85-.09-.26-.15-.5-.2-.71v-.39c-.09,0-.09.13,0,.39Zm1.95,5.66c0-.22-.04-.37-.13-.46-.04-.04-.07-.11-.07-.19,0-.04-.02-.06-.07-.06-.22-.52-.39-.94-.52-1.27s-.15-.21-.07.36l.33.98c-.09-.22-.12-.34-.1-.36.02-.02.03-.05.03-.1.13.35.22.64.26.88.04.24.11.49.2.75,0-.13-.04-.39-.13-.78s-.09-.54,0-.46c.04.13.09.26.13.39.04.13.09.24.13.33l.2.58.06-.13s-.08-.11-.1-.2c-.02-.09-.08-.17-.16-.26Zm.26-38.69l-.06.06s-.02.07-.07.07l.13-.13Zm.26,41.49v.26c-.04-.17-.04-.26,0-.26Zm.26-.72l-.13-.52v.65l.13-.13Zm0,.85c-.09-.17-.09-.07,0,.32.09.39.15.65.2.78l-.2-1.1Zm.84-27.38c-.13.26-.28.52-.46.78-.22.26-.33.63-.33,1.11-.04-.13-.05-.25-.03-.36.02-.11.05-.23.1-.36,0-.09.04-.22.13-.39l.07-.06.06-.06-.06.06.06-.13.46-.59Zm-.58,3.51s-.06-.11-.06-.2c0,.04,0,.08.03.1.02.02.03.05.03.1.09.43.18.76.29.98.11.22.18.5.23.85-.22-.39-.35-.74-.39-1.04-.04-.3-.09-.56-.13-.78ZM15.54.26c-.17.04-.28.09-.33.13-.04.04-.09.06-.13.06.26-.13.41-.19.46-.19Zm.52,46.49c-.39.09-.69.04-.91-.13.17.09.35.13.52.13h.39Zm-.84-24.06c.13.35.2.51.2.49s-.01-.09-.03-.2c-.02-.11-.03-.21-.03-.29s.04-.02.13.19l-.2-.71c.13.26.21.46.23.58s.03.24.03.33v.29c0,.11.04.25.13.42l-.2-.52c-.09-.09-.12-.1-.1-.03.02.06.05.16.1.29.04.13.08.26.1.39.02.13.03.22.03.26-.13-.3-.25-.69-.36-1.17-.11-.48-.12-.59-.03-.33Zm.58-21s-.02-.06-.07-.06l.07.06Zm1.95,43.89c-.35.04-.61.06-.78.06s-.3-.01-.39-.03c-.09-.02-.18-.06-.29-.1s-.27-.06-.49-.06h.62c.15,0,.28.01.39.03.11.02.23.04.36.07.13.02.33.03.59.03Zm-.52-31.8c-.09.04-.09-.03,0-.23.09-.2.2-.43.33-.72.13-.28.26-.56.39-.85.13-.28.24-.49.33-.62,0,.26-.15.61-.46,1.04-.3.43-.5.89-.58,1.37Zm-.07-13.01h1.56-1.56Zm.98,9.23l.26-.2-.13.2.59-.91c-.3.69-.6,1.25-.88,1.66-.28.41-.53.79-.75,1.14.09-.13.2-.31.33-.55.13-.24.26-.46.39-.65.13-.19.22-.37.26-.52.04-.15.02-.21-.07-.16Zm-.65,19.57l-.26-.98.13.33.07.06v-.13c-.04-.09-.07-.16-.07-.23s-.02-.14-.06-.23c.09.26.13.41.13.46.09.35.19.69.33,1.04.13.35.17.54.13.59-.04-.13-.13-.41-.26-.85-.13-.43-.22-.63-.26-.59l.13.52ZM18.99.98c-.52,0-.76-.02-.72-.06-.13-.04-.29-.05-.49-.03-.2.02-.36.01-.49-.03.56-.04.9-.03,1.01.03.11.06.33.1.68.1h.52-.52Zm-1.24,31.08v-.06l-.33-1.11.06.06.26,1.11Zm1.24,13.66c-.39.04-.66.05-.81.03-.15-.02-.36-.03-.62-.03.09-.04.28-.07.58-.07s.58.02.85.07Zm-1.04.98l2.08.06h-1.04s-.13-.01-.26-.03c-.13-.02-.39-.03-.78-.03Zm.39-16.39c.09.09.21.36.36.81.15.46.31.92.49,1.4,0-.13-.04-.33-.13-.58-.09-.26-.17-.52-.26-.78-.09-.26-.18-.48-.29-.65-.11-.17-.16-.24-.16-.2Zm1.04-21.2l.59-.98-.07.13-.52.91v-.06Zm.39,26.21c.13.3.23.56.29.78.06.22.12.24.16.06,0-.04-.03-.15-.1-.33-.06-.17-.13-.37-.2-.58-.06-.22-.12-.41-.16-.59-.04-.17-.04-.26,0-.26l-.26-.33c.13.35.23.68.29,1.01.07.32.05.4-.03.23ZM22.56.91c.17-.04.17-.09,0-.13-.17-.04-.42-.06-.75-.06s-.69.01-1.11.03c-.41.02-.75.03-1.01.03h1.5c.3,0,.58.01.84.03.26.02.43.05.52.1Zm-1.37.72s-.13-.05-.26-.03c-.13.02-.3.03-.52.03h-.52,1.3Zm-1.04.13c-.09,0-.06.01.07.03.13.02.3.05.52.1-.17-.09-.37-.13-.59-.13Zm2.02-1.24l-.59-.07-.46.13,1.04-.06Zm-.33,1.82c.09-.17.15-.31.19-.42.04-.11.11-.21.2-.29-.09.09-.2.21-.33.36-.13.15-.13.12,0-.1.04-.09.11-.21.2-.36.09-.15.17-.31.26-.49.04-.04.07-.08.07-.1,0-.02.04-.01.13.03.17.04.33.06.46.06-.04-.04-.09-.01-.13.1-.04.11-.07.18-.07.23.09-.26.14-.37.16-.33.02.04-.08.04-.29,0h-.13s-.06-.02-.06-.06v.06s-.02.09-.07.13c-.09.26-.15.43-.2.52-.13.35-.26.56-.39.65Zm1.43,43.57c.09.09.09.18,0,.29-.09.11-.2.18-.33.23-.17,0-.22.02-.13.07.17,0,.33-.07.46-.2.09-.09.13-.24.13-.46,0-.17-.02-.3-.07-.39-.04-.09-.06-.2-.06-.33-.13-.48-.26-.78-.39-.91.09.3.16.57.23.81.07.24.12.53.16.88Z"/><path class="cls-1" d="m28.94,20.81c0-.22.03-.37.1-.46.06-.09.12-.11.16-.07l-.2,1.76s.07.17.07.39.04.2.13-.06l-.13.65h.06c.09,1.39.04,2.71-.13,3.97-.17,1.26-.15,2.58.07,3.97v-.06l-.2,1.63c0,.17.03.3.1.39.07.09.12.26.16.52-.09-.13-.12,0-.1.39.02.39-.01.67-.1.85.04.17.08.21.1.1.02-.11.05-.18.1-.23.09.78.09,1.51,0,2.18-.09.67-.09,1.44,0,2.31-.09-.43-.14-.77-.16-1.01-.02-.24-.03-.44-.03-.62s-.01-.35-.03-.52c-.02-.17-.03-.41-.03-.72-.04.35-.07.63-.07.85s.01.43.03.65c.02.22.03.44.03.68v.94l.07-.72c.13.39.15.88.06,1.46-.09.58-.06.92.07,1.01,0,.48-.04.92-.13,1.33-.09.41-.13.88-.13,1.4l.26-.46v.98h-.13c-.09.35-.07.52.06.52-.09.26-.13.43-.13.52v.13l-.07.06v-.06h.39c.13,0,.24.02.33.06l.06-.06c.13,0,.2.02.2.06.09-.09.27-.13.55-.13s.42-.04.42-.13c-.13,0-.33-.01-.58-.03-.26-.02-.37-.01-.33.03-.22-.04-.28-.08-.2-.1.09-.02.23-.03.42-.03h1.2c-.3.09-.35.13-.13.13h.58l-.13-.06c.48-.04.82,0,1.04.13.22.13.5.11.85-.06l.13.13h.39l.07-.07h.07v.26-.06l-.07-.06h.07s.06-.09.06-.13.04-.06.13-.06c.04-.35.03-.42-.03-.23-.07.2-.1.23-.1.1-.04-.39-.02-.86.07-1.4.09-.54.09-.88,0-1.01.09-.35.12-.69.1-1.04-.02-.35-.01-.65.03-.91l-.13-.06c0-.17,0-.34.03-.49.02-.15.03-.29.03-.42l-.06.06c.04-.56.06-1.07.06-1.53s.02-.92.07-1.4c-.09.04-.14.09-.16.13-.02.04-.03.2-.03.46-.09-.43-.09-.99,0-1.66.09-.67.13-1.33.13-1.98l-.06.13.06-.78c0,.09-.01.12-.03.1-.02-.02-.05-.03-.1-.03,0-.65.01-1.31.03-1.98.02-.67.1-1.18.23-1.53,0,.09-.01.11-.03.06-.02-.04-.05-.09-.1-.13-.04-.04-.08-.05-.1-.03-.02.02-.03.12-.03.29.09-.65.13-1.35.13-2.11s.02-1.51.07-2.24l.07-.59-.07-.06v.46c0-.3,0-.58.03-.85.02-.26.05-.5.1-.72-.04-.09-.09-.16-.13-.23-.04-.06-.07-.18-.07-.36.04,0,.05-.09.03-.26-.02-.17-.04-.39-.07-.65-.02-.26-.03-.52-.03-.78s.02-.48.06-.65c-.04-.09-.05-.08-.03.03.02.11,0,.12-.03.03,0-.91.03-1.96.1-3.15.06-1.19.05-2.31-.03-3.35.17-.09.26-.48.26-1.17s.04-1.32.13-1.89c-.09-.17-.12-.1-.1.23.02.33-.01.55-.1.68,0-.17-.01-.28-.03-.33-.02-.04-.04-.09-.07-.13-.02-.04-.04-.12-.06-.23-.02-.11-.01-.29.03-.55v.26-.29s.02-.03.07-.03.06-.02.06-.06v-.46l-.13-.06.2-.58c-.04-1-.05-1.95-.03-2.86s-.01-1.8-.1-2.67c0-.04,0-.05.03-.03.02.02.05.1.1.23,0-.39.03-.81.1-1.27.06-.46.05-.92-.03-1.4l-.06.26v-.46c0-.13-.02-.22-.07-.26,0-.13-.06-.24-.2-.33-.09-.09-.26-.14-.52-.16-.26-.02-.59-.05-.98-.1.22,0,.49.01.81.03.33.02.51-.01.55-.1-.09-.04-.29-.06-.62-.06s-.58.02-.75.06l.2-.19c.09.09.27.12.55.1.28-.02.53.01.75.1l-.13-.13c.22.04.41.19.58.42.17.24.22.53.13.88,0-.39-.07-.65-.2-.78.09.17.13.43.13.78v.91c.09,0,.13-.06.13-.2s.04-.06.13.2c0,.39-.01.66-.03.81-.02.15-.04.27-.06.36-.02.09-.06.2-.1.33-.04.13-.09.37-.13.72l-.06-.2c0,.22-.03.42-.1.62-.07.2-.05.47.03.81.09-.04.13-.15.13-.33s.02-.33.07-.46c.04.09.02.26-.07.52-.09.26-.11.52-.06.78.09-.22.15-.55.2-1.01.04-.46.06-.86.06-1.2,0,.13.04.11.13-.07-.09,1.13-.16,2.25-.23,3.38-.06,1.13-.05,2.23.03,3.32l.06-.39c0,.26.01.46.03.59.02.13.05.15.1.06-.09.09-.11.27-.06.55.04.28.04.58,0,.88.04.04.08.01.1-.1.02-.11.04-.23.06-.36.02-.13.03-.24.03-.33s.02-.06.06.06c-.04.56-.12,1.21-.23,1.95-.11.74-.14,1.47-.1,2.21.04-.09.07-.18.07-.29s.02-.18.06-.23c-.04.48-.12,1-.23,1.56-.11.56-.1,1.02.03,1.37.09-.22.14-.47.16-.75.02-.28.08-.55.16-.81,0,.22.02.41.06.59l.07-.33c0,.3-.01.52-.03.65-.02.13-.05.23-.1.29-.04.06-.09.13-.13.2-.04.06-.09.18-.13.36l.2.78c.04.65.04,1.27,0,1.85-.04.58-.13,1.1-.26,1.53,0,.13,0,.36.03.68.02.33.08.38.16.16.09-.35.16-.65.23-.91.07-.26.1-.74.1-1.43-.04-.04-.08-.01-.1.1-.02.11-.03.22-.03.33s-.01.19-.03.26c-.02.07-.03.06-.03-.03.04-.3.04-.66,0-1.07-.04-.41-.02-.73.06-.94v1.43c.09,0,.11-.11.07-.33-.04-.22-.02-.39.06-.52.09.22.1.5.03.85-.07.35-.06.65.03.91v-.06c-.04.56-.05.91-.03,1.04.02.13,0,.48-.03,1.04-.09.04-.13-.02-.13-.19s-.02-.41-.06-.72c-.04.91-.11,1.93-.2,3.06-.09,1.13-.04,2.17.13,3.12l.2-1.11c0,.35-.02.75-.07,1.2-.04.46,0,.66.13.62-.04-.39-.04-.57,0-.55.04.02.09-.08.13-.29v-.26c0-.09.02-.09.07,0-.09.3-.14.66-.16,1.07-.02.41-.06.79-.1,1.14.04-.17.08-.16.1.03.02.19.05.31.1.36-.04.35-.08.43-.1.26-.02-.17-.06-.28-.1-.33,0,.22-.03.43-.1.65-.07.22-.05.41.03.58.04.13.08.16.1.1.02-.06.03-.15.03-.26s.01-.23.03-.36c.02-.13.05-.22.1-.26l-.19,1.95.06-.06c-.13.22-.15.43-.06.65.04.09.08.05.1-.1.02-.15,0-.31-.03-.49.09.52.08.99-.03,1.4-.11.41-.1.83.03,1.27l-.06.58v.06l.06-.06-.06.59c-.04.26-.05.42-.03.49.02.07.04.09.07.07.02-.02.05-.04.1-.07.04-.02.06.01.06.1v-.06c.09.43.13.56.13.39l-.13,1.04c-.04.13-.08.3-.1.52-.02.22-.06.43-.1.65-.04.22-.09.41-.13.59-.04.17-.09.26-.13.26,0,.13.01.25.03.36.02.11.05.12.1.03v.33c.09.04.13.11.13.2v.58s.06-.11.06-.33c.04.17.05.29.03.36-.02.06-.03.12-.03.16h.07l.06.13c-.09,0-.13.1-.13.29s.02.36.07.49l.13-.46c0,.09-.01.16-.03.23-.02.06-.03.14-.03.23v.26c0,.09-.02.24-.06.46.09-.09.13-.17.13-.26s.02-.15.07-.19c-.04.3-.09.49-.13.55s-.09.1-.13.1c0-.04-.04.02-.13.19-.04.09-.09.17-.13.26-.04.09-.15.19-.33.33.39-.26.58-.67.58-1.24-.09.39-.19.64-.33.75-.13.11-.24.16-.33.16-.09.04-.26.06-.52.06-.61-.09-1.23-.1-1.85-.03-.63.06-1.18,0-1.66-.16-.09.09-.12.13-.1.13s-.08.04-.29.13c.39.04.69.08.91.1.22.02.41.08.58.16.39.04.63.04.71,0,.09-.04.16-.09.23-.13.06-.04.15-.08.26-.1.11-.02.36-.01.75.03-.04.09-.16.14-.36.16-.19.02-.4.01-.62-.03-.04.09.03.14.23.16.2.02.4.05.62.1-.48-.04-.99-.04-1.53,0-.54.04-.97.07-1.27.07-.13-.04-.34-.08-.62-.1-.28-.02-.51-.03-.68-.03l-.65-.13c-.22-.04-.37-.1-.46-.16-.09-.06-.04-.1.13-.1-.3-.09-.49-.18-.55-.29-.07-.11-.14-.21-.23-.29-.04-.09-.08-.2-.1-.33-.02-.13,0-.3.1-.52-.04.09-.08.1-.1.03-.02-.06-.04-.13-.07-.2-.02-.06-.03-.12-.03-.16s-.02-.02-.07.06c.04.09.05.21.03.36-.02.15-.03.36-.03.62.04.13.09.27.13.42.04.15.13.27.26.36.17.22.39.37.65.46-.22,0-.43-.07-.65-.2-.22-.13-.37-.3-.46-.52-.09-.22-.14-.4-.16-.55-.02-.15-.05-.31-.1-.49.04.13.09.15.13.06,0-.09,0-.16.03-.23.02-.06.03-.12.03-.16l-.13-.19c.09-.04.12-.21.1-.49-.02-.28-.04-.59-.07-.91-.02-.33-.03-.66-.03-1.01s.04-.61.13-.78c0,.22.01.41.03.59.02.17-.01.32-.1.46,0,.22.02.33.06.33s.08-.02.1-.06c.02-.04.05-.09.1-.13.04-.04.09-.02.13.06.09-.65.1-1.41.03-2.28-.06-.87-.03-1.65.1-2.34-.04.13-.06.31-.06.55s-.04.38-.13.42c-.09-.52-.08-1.08.03-1.69.11-.61.21-1.21.29-1.82l-.19.26c.04-.26.06-.43.06-.52s-.01-.15-.03-.2c-.02-.04-.03-.12-.03-.23v-.55s.08.08.1.1c.02.02.03-.03.03-.16,0-.22-.01-.35-.03-.39-.02-.04-.04-.06-.07-.06h-.07s-.03-.07-.03-.2c.04-.26.07-.44.07-.55s-.02-.21-.07-.29c-.04-.09-.08-.21-.1-.36-.02-.15-.01-.4.03-.75l-.06.13c.09-.56.09-1.16,0-1.79-.09-.63-.15-1.25-.2-1.85.04.04.07.22.07.52s.04.41.13.33l.06-1.5s-.06-.16-.06-.36-.04-.18-.13.03c0,.09,0,.17.03.26.02.09.03.17.03.26l-.13-.19c.04-.35.09-.53.13-.55.04-.02.08.01.1.1.02.09.05.2.1.33.04.13.09.2.13.2-.04-.35-.03-.62.03-.81.06-.19.1-.4.1-.62-.04-.04-.08-.03-.1.03-.02.06-.06.15-.1.26-.04.11-.08.17-.1.2s-.05-.03-.1-.16c-.04-.22-.04-.61,0-1.17.04-.56.11-.98.2-1.24-.09-.17-.14-.42-.16-.75-.02-.33-.03-.64-.03-.94s-.01-.57-.03-.81c-.02-.24-.08-.36-.16-.36.09.09.13-.09.13-.52l-.06.2c-.09-.52-.07-.85.06-.98.13-.13.17-.35.13-.65-.04,0-.06.03-.06.1s-.02.12-.07.16c-.09-.69-.06-1.28.07-1.76.13-.48.15-1.04.06-1.69v.2c-.09.09-.09-.11,0-.59l.13.46c.17-.35.19-.79.06-1.33-.13-.54-.17-1.12-.13-1.72-.04.09-.07.25-.07.49s-.02.25-.06.03c0-.35.04-.57.13-.68.09-.11.11-.4.07-.88-.04.22-.1.34-.16.36-.06.02-.1.12-.1.29-.09-.61-.09-1,0-1.17,0-.13-.04-.2-.13-.2.09-.22.12-.44.1-.68-.02-.24-.05-.47-.1-.68l-.06.13c.22-.35.27-.67.16-.98-.11-.3-.14-.69-.1-1.17l-.13.2c.04-.22.08-.47.1-.75.02-.28-.01-.6-.1-.94l-.07.33c.04-.26.04-.61,0-1.04-.04-.43-.02-.76.07-.98,0-.04-.01-.04-.03,0-.02.04-.06.08-.1.1-.04.02-.08.01-.1-.03-.02-.04-.03-.17-.03-.39.04-.13.09-.33.13-.59.04-.26.02-.46-.07-.58-.13,0-.15.13-.06.39,0,.09,0,.11,0,.06s.02-.06.06-.06l-.13.26c-.04-.35-.03-.55.03-.62.07-.06.08-.27.03-.62-.04-.09-.08-.08-.1.03-.02.11-.05.21-.1.29.04-.26.06-.49.06-.68s.02-.44.07-.75c.09-.52.28-.74.58-.65-.04.22-.04.29,0,.23.04-.07.13-.16.26-.29l.13-.13s.04.04.13,0c-.22.13-.35.33-.39.59.09-.22.16-.35.23-.39.06-.04.1-.04.1,0s-.02.11-.06.2c-.04.09-.07.17-.07.26-.09.26-.06.39.07.39,0-.04.04-.17.13-.39-.09.17,0,.72.26,1.63-.09.61-.05,1.11.1,1.5.15.39.23.76.23,1.11,0,.3-.01.46-.03.46s-.04-.05-.07-.16c-.02-.11-.04-.18-.06-.23-.02-.04-.05.02-.1.2,0,.35.02.51.07.49.04-.02.09.08.13.29l-.26.33c0,.39.03.52.1.39.07-.13.08-.11.03.06l.06.26c.04-.17.08-.3.1-.39.02-.09.05-.15.1-.2-.04.09-.08.26-.1.52-.02.26-.01.46.03.59.04,0,.07-.12.07-.36s0-.21,0,.1v1.2c0,.33,0,.64.03.94.02.3.04.61.07.91.02.3.03.67.03,1.11l.07-.13c0,.09-.01.17-.03.26-.02.09-.01.17.03.26l.06-.06c0,.13-.02.54-.06,1.24-.04.69-.07,1.34-.07,1.95l.13-.59-.13,1.04.2-.13c-.09.22-.12.57-.1,1.07.02.5,0,1.01-.03,1.53l.13-.07-.07.65.07-.26c0,.35-.03.68-.1,1.01s-.08.66-.03,1.01Zm-1.56-9.43l.06-.13s-.02.09-.06.13Zm.32-4.88c-.09.04-.15.1-.19.16-.04.06-.04.31,0,.75.09.04.13.03.13-.03s.04,0,.13.16c.04-.13.05-.25.03-.36-.02-.11-.03-.21-.03-.29-.09.3-.11.46-.07.46-.09-.35-.09-.63,0-.85.04-.04.09-.11.13-.2-.04,0-.09.06-.13.2Zm-.19-.65v.39l.19-.33-.19-.06Zm.33,3.9s.06-.13.06-.26c-.04-.04-.06-.09-.06-.13v-.06c-.04-.3-.08-.55-.1-.75-.02-.2-.08-.12-.16.23v.52-.19l.07-.07c.04.22.04.39,0,.52-.04.13-.07.28-.07.46.04-.09.08-.24.1-.46.02-.22.08-.3.16-.26v.46c0,.13.02.24.06.33v-.06c0-.09-.02-.17-.06-.26Zm-.13,1.63c-.09-.09-.13-.03-.13.16v.42l.13-.58Zm-.06,2.67l-.07,1.17v-.59s.01-.1.03-.16c.02-.06.03-.21.03-.42Zm0,21.46s.08-.01.1.1c.02.11.03.25.03.42v.91c-.09-.13-.1-.35-.03-.65.06-.3.03-.56-.1-.78Zm.13,2.73l-.07.58.07.06.07-.58-.07-.06Zm0,5.53l-.07.26.13.26-.07-.52Zm.13-17.88c-.04-.09-.06-.25-.06-.49v-.81c-.09.13-.11.39-.07.78.04.39.09.56.13.52Zm.07-14.96v-.26l-.2.33.2-.07Zm0,6.11c-.04-.09-.05-.18-.03-.29.02-.11-.01-.12-.1-.03.04.22.04.46,0,.72-.04.26-.02.43.06.52l.07-.91Zm.2,6.05c-.09-.22-.12-.39-.1-.52.02-.13-.01-.15-.1-.07v.55c0,.28-.04.45-.13.49l.19.2c-.04-.22-.04-.4,0-.55.04-.15.09-.18.13-.1Zm-.07-17.62c-.04-.22-.08-.25-.1-.1-.02.15-.03.31-.03.49,0-.04,0-.05.03-.03.02.02.05-.01.1-.1v-.26Zm.07,38.04c-.13-.17-.2-.03-.2.42s.02.84.06,1.14c.04-.13.05-.4.03-.81-.02-.41,0-.66.1-.75ZM34.14.72c.22,0,.41.1.58.29.17.2.26.4.26.62v43.57c0,.69-.28,1.04-.84,1.04h-5.2c-.61,0-.91-.35-.91-1.04V1.63c0-.22.09-.42.26-.62.17-.19.39-.29.65-.29h5.2Zm-5.59,45.45c-.3-.09-.46-.28-.46-.59.09.35.26.54.52.59h-.07Zm-.06-8.58l-.07.13-.07-.13-.06.58c-.09-.39-.09-.73,0-1.01.09-.28.15-.53.2-.75,0,.22-.03.49-.1.81-.07.33-.03.45.1.36Zm-.13-5.14l.07.65-.2.39.13-1.04Zm-.13,13.01c.04.17.04.28,0,.33.04.09.1.15.16.19.06.04.12.09.16.13-.22-.04-.33-.15-.33-.33v-.59.26Zm.39-15.15c0-.17-.01-.26-.03-.26s-.04.03-.06.1c-.02.07-.04.12-.07.16-.02.04-.03,0-.03-.13v.39c-.09-.35-.09-.53,0-.55.09-.02.11-.14.07-.36l.06.32c.04.09.07.03.07-.16s.02-.31.06-.36c.04.17.04.39,0,.65-.04.26-.06.33-.06.19Zm-.07-3.97v.58l-.06-.19s-.08-.02-.1-.06c-.02-.04-.03-.02-.03.06v.26-.85c0-.17.04-.28.13-.33-.04.09-.07.26-.07.52s.04.37.13.33v-.33Zm.07-11.71c-.04-.22-.05-.37-.03-.46.02-.09.03-.19.03-.33.09.09.09.35,0,.78Zm.06,27.51v.46s.09-.13.13-.26c.04-.13.07-.11.07.07-.04.09-.08.26-.1.52-.02.26-.05.39-.1.39.09-.3.09-.55,0-.75-.09-.2-.09-.34,0-.42Zm.07-28.22c-.09-.35-.1-.55-.03-.62.06-.06.12-.21.16-.42.04.3.03.49-.03.55-.07.06-.1.23-.1.49Zm-.07,17.75v.06-.06c.09-.26.1-.44.03-.55-.07-.11-.06-.27.03-.49.09.22.11.4.06.55-.04.15-.09.31-.13.49Zm.2,12.62v.65-.65Zm.07-43.63h1.2c.46,0,.86.02,1.2.06-.13,0-.33.01-.58.03-.26.02-.52.03-.78.03s-.49,0-.68-.03c-.2-.02-.32-.05-.36-.1Zm.06,24.38l.07.06-.07.59-.06-.06.06-.59Zm0,19.77c0,.13.04.02.13-.33-.09.17-.13.28-.13.33Zm.39,2.02h.06s.09-.06.13-.06l-.06.06h-.13Zm.33-1.43h-.2l.06.06.13-.06ZM31.67,1.04l-.84-.06c.26,0,.41.01.46.03.04.02.17.03.39.03Zm-.71,45.84h-.13.13ZM31.86.85l-.46-.06-.07.06h.52Zm1.95-.26c.13,0,.22.01.26.03.04.02.09.03.13.03-.22,0-.35-.02-.39-.06Zm.46-.13c-.17-.04-.15-.06.06-.06.17.09.37.22.59.39-.13-.13-.24-.19-.33-.19s-.2-.04-.33-.13Zm0,42.33v-.06s-.02-.07-.07-.07l.07.13Zm0-2.93c0,.09-.01.16-.03.23s-.01.14.03.23v-.46Zm.13-14.24v-.2l-.07.13.07.06Zm0,2.99l-.07.33c0-.26.02-.37.07-.33l.07-.26c.04.35.05.49.03.42-.02-.06-.05-.12-.1-.16Zm.07,11.25c.09-.17.08-.23-.03-.16s-.12-.08-.03-.42c0-.35.02-.63.07-.85.04-.22.11-.28.19-.19-.04.26-.06.55-.06.88s-.04.58-.13.75Zm0-6.18c0,.13,0,.3.03.52.02.22-.01.35-.1.39l.07-.91Zm-.07,1.56v.32c.04.22.1.37.16.46.07.09.03.26-.1.52l-.07-.98v-.32Zm.07,6.76l-.07.58v-.19l.07-.39Zm0-26.73v.65c0-.09,0-.2.03-.33.02-.13,0-.15-.03-.06v-.26Zm.06,13.53c.04.22.07.51.07.88s0,.51,0,.42c-.09-.09-.12-.29-.1-.62.02-.33.03-.55.03-.68Zm.39,5.59c-.04.43-.09.71-.13.81-.04.11-.11.34-.19.68-.09-.39-.09-.66,0-.81.09-.15.17-.18.26-.1.04-.3.04-.47,0-.49-.04-.02-.07-.1-.07-.23l.13.13Zm-.39,0c.04-.13.07-.28.07-.46,0-.13.02-.34.06-.62.04-.28.11-.4.2-.36-.09-.09-.14.07-.16.46-.02.39-.08.72-.16.98Zm.07-33.62c.35.17.52.48.52.91-.04-.13-.09-.27-.13-.42-.04-.15-.17-.31-.39-.49Zm.33,20.68s-.07.02-.07.06-.01.08-.03.1c-.02.02-.03.05-.03.1,0-.13.02-.19.07-.19v-.46c0-.17-.02-.3-.07-.39-.04.09-.06.19-.06.32v.33c-.09-.3-.08-.67.03-1.11.11-.43.05-.56-.16-.39.04-.13.08-.33.1-.62.02-.28.08-.34.16-.16-.04.35-.05.77-.03,1.27.02.5.05.88.1,1.14.04.04.06.11.06.19-.04,0-.06-.02-.06-.06v-.13Zm-.13-13.27v.59l-.13-.33.13-.26Zm.13,37.2c.09.17.15.21.19.1.04-.11.09-.27.13-.49,0-.22,0-.42.03-.62.02-.19.05-.33.1-.42-.09,0-.16-.03-.23-.1-.07-.06-.1.23-.1.88-.04-.26-.05-.46-.03-.59.02-.13.04-.23.06-.29.02-.06.03-.12.03-.16s-.04-.15-.13-.33c0,.26-.01.52-.03.78-.02.26-.03.41-.03.46v-.59c-.13.17-.14.39-.03.65.11.26.12.5.03.72Zm-.07-30.76v.33l.07.13-.07-.46Zm.2,15.41c0,.09-.01.15-.03.19-.02.04-.03.11-.03.2-.04.09-.06.1-.06.03s-.02.03-.07.29c.09.09.13-.02.13-.33,0-.04.01-.09.03-.13.02-.04.03-.13.03-.26Zm.06-20.42c-.04.22-.08.38-.1.49-.02.11-.06.21-.1.29-.04-.26-.04-.48,0-.65.04-.17.06-.37.06-.58.04.35.09.5.13.46Zm-.13-.46c.04-.13.04-.26,0-.39v.39Zm.07-6.89c0-.09,0-.17.03-.26.02-.09.03-.2.03-.33,0,.22-.02.41-.06.58Zm0,5.2c.04-.09.06-.28.06-.58v-.33c0,.35.01.52.03.52s.04-.05.06-.16c.02-.11.05-.33.1-.68,0,.39-.02.64-.06.75-.04.11-.11.27-.2.49Zm0,24.12c.09-.09.15-.29.2-.62.04-.33.04-.66,0-1.01l-.2,1.24.06-.46-.06.85Zm.06,1.56l.07-1.37-.07.06v-.13l-.06.26.06-.13v1.3Zm.13-16.19c.04-.22.11-.5.19-.85,0,.35-.01.55-.03.62-.02.06-.08.14-.16.23Zm.06,8.91c0,.35.02.5.07.46.04-.04.06,0,.06.13h-.19l.06-.59Zm.13,11.25s.01-.08.03-.1c.02-.02,0-.08-.03-.16v.26Zm.07-8.39l.2-.39c-.04.22-.09.36-.13.42s-.06.05-.06-.03Zm.06,4.94v.13l-.06.72.06-.85Zm0-10.47v-.26c0-.09.02-.13.07-.13v.78c0,.13-.01.12-.03-.03-.02-.15-.03-.27-.03-.36Zm0,17.04c.09-.09.13-.11.13-.06l-.13.06Zm.07-9.23l.07-.39-.07,1.11v-.72Z"/><path class="cls-1" d="m40.77,24.91c0-.26.03-.43.1-.52.07-.09.12-.11.16-.06l-.2,2.08c.04.22.07.36.07.42s0,.11.03.13c.02.02.05-.05.1-.23l-.13.85.06-.06c.09,1.65.04,3.23-.13,4.75-.17,1.52-.15,3.1.07,4.75v-.06l-.2,1.95c0,.17.03.31.1.42.06.11.12.31.16.62-.09-.13-.12.03-.1.49s-.01.79-.1,1.01c.04.22.08.26.1.13.02-.13.05-.22.1-.26.04.91.04,1.78,0,2.6v.65c0,.22-.02.43-.06.65v.2c-.09.04-.16.11-.23.19-.07.09-.08.11-.03.06,0-.04.07-.13.2-.26v-.13s-.01-.08-.03-.1c-.02-.02-.03-.05-.03-.1v-.39c0-.22-.01-.42-.03-.62-.02-.2-.03-.47-.03-.81-.09.74-.11,1.33-.07,1.79s.11.6.2.42h-.2v.19s.07-.02.07-.06.02-.09.07-.13c-.04.04-.07.09-.07.13s-.02.06-.07.06v-.39h.2c.13,0,.27.01.42.03.15.02.31.03.49.03.3,0,.56.01.78.03.22.02.37-.01.46-.1.52,0,1.03.04,1.53.13.5.09,1.07.13,1.72.13l-.58-.26h1.17l.07.13c.3.04.5.02.58-.07.39.09.86.13,1.4.13s1.07.04,1.59.13l.13-.06c.13,0,.22.02.26.06.09-.09.29-.13.62-.13s.49-.04.49-.13c-.17,0-.41,0-.71-.03-.3-.02-.43-.01-.39.03-.22-.04-.28-.08-.2-.1s.25-.03.49-.03h1.4c-.3.09-.34.13-.1.13h.68l-.13-.06c.3,0,.53.01.68.03.15.02.29.03.42.03.26.09.5.02.71-.19l.2.06c.26-.17.46-.33.58-.46.13.13.31.06.55-.2.24-.26.42-.37.55-.32.26-.3.3-.39.13-.26-.17.13-.22.15-.13.06.26-.35.53-.77.81-1.27.28-.5.4-.83.36-1.01.09-.43.13-.78.13-1.04v-.58c0-.17.02-.35.07-.52l-.13-.06c0-.22.01-.41.03-.59.02-.17.03-.35.03-.52h-.07v.13c.04-.69.07-1.31.07-1.85s.02-1.12.07-1.72c-.09.04-.14.1-.16.16-.02.06-.03.25-.03.55-.09-.52-.09-1.17,0-1.95.09-.78.13-1.56.13-2.34l-.07.13.07-.91c0,.09-.01.12-.03.1-.02-.02-.05-.03-.1-.03,0-.74,0-1.52.03-2.34.02-.82.1-1.43.23-1.82,0,.09-.01.11-.03.06-.02-.04-.05-.1-.1-.16-.04-.06-.08-.09-.1-.06-.02.02-.03.14-.03.36.09-.78.13-1.63.13-2.54s.02-1.8.07-2.67v.06l.06-.72-.06-.06v.52c0-.35,0-.68.03-1.01.02-.33.05-.62.1-.88-.04-.09-.09-.16-.13-.23-.04-.06-.07-.21-.07-.42.04-.04.03-.42-.03-1.14-.07-.72-.05-1.29.03-1.72-.04-.04-.05,0-.03.13.02.13,0,.11-.03-.06,0-1.04.03-2.28.1-3.71.07-1.43.05-2.77-.03-4.03.09-.04.15-.19.2-.46.04-.26.06-.56.06-.91.04-.35.05-.7.03-1.07-.02-.37-.08-.73-.16-1.07-.13-.13-.14-.03-.03.29.11.33.12.58.03.75,0-.17-.02-.28-.06-.33-.04-.04-.08-.09-.1-.13-.02-.04-.05-.12-.1-.23-.04-.11-.09-.31-.13-.62-.04.04-.04.15,0,.33-.09-.17-.12-.27-.1-.29s.05-.04.1-.06c.04-.02.05-.07.03-.13-.02-.06-.1-.21-.23-.42h-.13c-.04-.09-.08-.2-.1-.33-.02-.13-.05-.24-.1-.33-.74-.95-1.56-1.56-2.47-1.82-.22-.09-.45-.14-.68-.16-.24-.02-.49-.03-.75-.03h-.78c-.26,0-.52.02-.78.06-.22,0-.15-.04.19-.13-.48,0-.99-.03-1.53-.1-.54-.07-1.1-.05-1.66.03l.33.06h-1.04c-.26,0-.51-.02-.75-.06-.24-.04-.51-.09-.81-.13-.3-.04-.71-.06-1.24-.06.22,0,.53.01.94.03.41.02.64-.01.68-.1-.09-.04-.33-.06-.72-.06s-.67.02-.84.06l.19-.19c.13.09.36.13.68.13s.64.02.94.06c-.13-.04-.22-.09-.26-.13.26.04.56.06.91.06s.69.02,1.04.06h-1.04c.22.09.57.11,1.07.07.5-.04.86-.04,1.07,0,0-.09-.09-.13-.26-.13s-.09-.04.26-.13c.43,0,.74.01.91.03.17.02.32.04.46.06.13.02.27.05.42.1.15.04.44.09.88.13l-.33.06c.26,0,.52.02.78.06.26.04.56.04.91,0,0-.09-.11-.13-.33-.13s-.39-.02-.52-.06c.09-.04.28-.02.58.06.3.09.59.15.85.19-.22-.17-.58-.28-1.11-.33-.52-.04-1-.06-1.43-.06.13,0,.11-.04-.07-.13.35,0,.68.01,1.01.03.33.02.66.05,1.01.1.65.09,1.26.33,1.82.72.61.35,1.11.79,1.5,1.33.39.54.69,1.1.91,1.66-.09-.3-.12-.46-.1-.46s.07.06.13.2c.07.13.13.26.2.39.06.13.1.15.1.06-.04.13-.01.36.1.68.11.33.14.68.1,1.07.04.09.08.06.1-.1.02-.15.03-.31.03-.49s-.01-.3-.03-.39c-.02-.09.01-.06.1.06.04.74,0,1.53-.13,2.37s-.17,1.72-.13,2.63c.04-.09.07-.19.07-.32s.02-.22.06-.26c-.04.61-.12,1.24-.23,1.89-.11.65-.1,1.17.03,1.56.09-.26.14-.54.16-.85.02-.3.08-.63.16-.98,0,.26.02.48.07.65l.06-.39c0,.35-.01.6-.03.75-.02.15-.05.28-.1.39-.04.11-.09.21-.13.29-.04.09-.09.22-.13.39l.2.91c.04.78.04,1.52,0,2.21-.04.69-.13,1.3-.26,1.82,0,.13.01.38.03.75.02.37.08.45.16.23.09-.39.16-.74.23-1.04.07-.3.1-.87.1-1.69-.04-.04-.08-.01-.1.1-.02.11-.03.23-.03.36s-.01.24-.03.33c-.02.09-.03.07-.03-.06.04-.35.04-.76,0-1.24-.04-.48-.02-.85.07-1.11v1.69c.09,0,.11-.13.06-.39-.04-.26-.02-.46.07-.58.09.22.1.53.03.94-.06.41-.05.79.03,1.14v-.13c0,.35-.01.61-.03.78-.02.17-.03.34-.03.49v1.27c-.09.04-.13-.04-.13-.26s-.02-.5-.07-.85c-.04,1.13-.11,2.35-.19,3.67-.09,1.32-.04,2.55.13,3.67l.19-1.3c0,.39-.02.86-.06,1.4-.04.54,0,.79.13.75-.04-.43-.04-.65,0-.65s.09-.13.13-.39v-.29c0-.11.02-.1.07.03-.09.35-.14.77-.16,1.27-.02.5-.05.94-.1,1.33.04-.17.08-.15.1.06.02.22.05.37.1.46-.04.35-.08.43-.1.26-.02-.17-.05-.28-.1-.32,0,.22-.03.46-.1.71-.07.26-.06.5.03.72.04.13.08.16.1.1.02-.06.03-.16.03-.29s0-.27.03-.42c.02-.15.05-.25.1-.29l-.2,2.28.07-.06c-.09.3-.11.56-.07.78.04.09.08.04.1-.13.02-.17.01-.35-.03-.52.09.61.08,1.15-.03,1.63-.11.48-.1.98.03,1.5l-.07.65s.01.09.03.13c.02.04.03.02.03-.07l-.07.65c-.04.3-.05.5-.03.59.02.09.04.12.07.1.02-.02.05-.04.1-.06.04-.02.06.03.06.16v-.06c.04.22.08.37.1.46.02.09.03.06.03-.06l-.13,1.3c-.04.13-.08.32-.1.58-.02.26-.05.52-.1.78-.04.26-.09.5-.13.72-.04.22-.11.33-.19.33,0,.39.02.54.06.46-.09.26-.12.4-.1.42.02.02.04.04.07.06.02.02.02.08,0,.16-.02.09-.1.33-.23.72.04.04.11-.09.2-.39-.09.35-.17.56-.26.65v.19s-.13.04-.26.26c-.13.22-.24.41-.33.58.09-.09.16-.15.23-.19.07-.04.14-.11.23-.2-.13.17-.25.33-.36.46-.11.13-.29.32-.55.58.09-.04.16-.09.23-.13.06-.04.14-.09.23-.13-.22.22-.36.34-.42.36-.06.02-.11.03-.13.03s-.08.02-.16.07c-.09.04-.26.19-.52.46.39-.3.67-.61.84-.91-.26.26-.46.42-.58.49s-.23.11-.29.13c-.06.02-.14.03-.23.03s-.19.02-.33.06c-.74.39-1.45.61-2.15.65-.35.04-.69.05-1.04.03-.35-.02-.65-.08-.91-.16-.09.09-.12.13-.1.13.02,0-.08.04-.29.13.43.04.78.08,1.04.1.26.02.5.08.72.16.48.04.77.04.88,0,.11-.04.21-.11.29-.19.04-.09.13-.15.26-.2.13-.04.43-.13.91-.26,0,.09-.12.18-.36.29-.24.11-.51.16-.81.16-.04.09.08.12.36.1.28-.02.53-.08.75-.16-.61.3-1.26.46-1.95.46-.35.04-.64.06-.88.06h-.62c-.17-.04-.43-.08-.78-.1-.35-.02-.61-.03-.78-.03-.35-.04-.61-.09-.78-.13-.17-.04-.31-.09-.42-.13-.11-.04-.1-.09.03-.13-.3,0-.51.01-.62.03-.11.02-.21.04-.29.06-.09.02-.19.04-.33.06-.13.02-.32-.01-.58-.1.09.04.1.08.03.1-.06.02-.14.04-.23.07-.09.02-.15.03-.19.03s0,.02.13.06c.22-.09.56-.09,1.04,0,.48.09.87.15,1.17.2l-1.69.13c.22-.04.23-.09.03-.13-.2-.04-.34-.06-.42-.06l-.26.13c-.09-.09-.29-.12-.62-.1-.33.02-.69.04-1.11.06-.41.02-.81.03-1.2.03s-.69-.04-.91-.13c.3,0,.56-.01.78-.03.22-.02.37.01.46.1.26,0,.4-.02.42-.06.02-.04,0-.08-.07-.1-.06-.02-.13-.05-.19-.1-.07-.04-.03-.09.1-.13-.35-.04-.76-.06-1.24-.03-.48.02-.95.03-1.43.03h-1.5c-.3,0-.54-.13-.72-.39-.13-.17-.19-.41-.19-.72-.04.17,0,.41.13.72.09.13.18.23.29.29.11.06.18.12.23.16-.22-.04-.4-.15-.55-.33-.15-.17-.25-.37-.29-.58-.09-.22-.11-.41-.07-.59.04-.17.07-.35.07-.52.09-.35.14-.7.16-1.07.02-.37.05-.73.1-1.07l-.19.26c.04-.3.06-.5.06-.59s-.01-.16-.03-.23c-.02-.06-.03-.15-.03-.26v-.68s.08.08.1.1c.02.02.03-.03.03-.16,0-.26-.01-.41-.03-.46-.02-.04-.04-.06-.06-.06s-.04-.01-.07-.03c-.02-.02-.03-.12-.03-.29.04-.3.07-.52.07-.65s-.02-.24-.07-.33c-.04-.09-.08-.22-.1-.39-.02-.17-.01-.48.03-.91l-.06.13c.09-.65.09-1.35,0-2.11-.09-.76-.15-1.51-.2-2.24,0,.04,0,.13.03.26.02.13.03.26.03.39s0,.24.03.33c.02.09.05.11.1.06l.06-1.76c-.04-.09-.06-.23-.06-.42s-.04-.18-.13.03c0,.13,0,.25.03.36.02.11.03.21.03.29l-.13-.26c.04-.39.09-.61.13-.65.04-.04.08,0,.1.1.02.11.05.25.1.42.04.17.09.26.13.26-.04-.48-.03-.82.03-1.04.07-.22.1-.48.1-.78-.04-.04-.08-.02-.1.06-.02.09-.05.19-.1.33-.04.13-.08.22-.1.26-.02.04-.06-.04-.1-.26-.04-.26-.04-.72,0-1.37.04-.65.11-1.13.2-1.43-.09-.22-.14-.51-.16-.88-.02-.37-.03-.75-.03-1.14s-.01-.73-.03-1.01c-.02-.28-.08-.42-.16-.42.09.09.13-.13.13-.65l-.06.26c-.09-.61-.07-.99.06-1.14.13-.15.17-.42.13-.81-.04,0-.06.04-.06.13s-.02.17-.07.26c-.09-.82-.06-1.53.07-2.11.13-.59.15-1.27.06-2.05v.26c-.09.09-.09-.17,0-.78l.13.59c.17-.43.19-.98.06-1.63-.13-.65-.17-1.3-.13-1.95-.04.04-.07.22-.07.52s-.02.32-.06.06c0-.43.04-.72.13-.85.09-.13.11-.46.07-.98-.04.22-.1.35-.16.39-.06.04-.1.17-.1.39-.04-.35-.08-.64-.1-.88-.02-.24.01-.42.1-.55,0-.17-.04-.26-.13-.26.09-.22.12-.49.1-.81-.02-.33-.05-.6-.1-.81l-.07.13c.22-.43.27-.81.16-1.14-.11-.33-.14-.77-.1-1.33l-.13.13c.04-.22.08-.5.1-.85.02-.35-.01-.72-.1-1.11l-.07.39c.04-.35.04-.76,0-1.24-.04-.48-.02-.87.07-1.17-.04-.09-.09-.05-.13.1-.04.15-.09-.03-.13-.55.04-.09.09-.29.13-.62.04-.33.02-.55-.07-.68-.13,0-.15.13-.06.39,0,.09,0,.12,0,.1s.02-.05.06-.1l-.13.33c-.04-.39-.03-.63.03-.72.07-.09.08-.35.03-.78-.04-.09-.08-.05-.1.1-.02.15-.06.25-.1.29l.13-1.56c0-.09,0-.27.03-.55.02-.28.11-.43.26-.46.15-.02.25.03.29.16l.2-.13.07-.06c.43.22.54.29.32.23s-.09-.16.39-.29l.07.33c-.22,1.26-.3,2.04-.26,2.34-.09.74-.05,1.34.1,1.82.15.48.23.91.23,1.3s-.01.58-.03.55c-.02-.02-.04-.09-.07-.19-.02-.11-.04-.2-.06-.26-.02-.06-.05.01-.1.23,0,.43.02.64.06.62.04-.02.09.1.13.36l-.26.32c0,.26.01.41.03.46.02.04.04.05.06.03.02-.02.03-.04.03-.06s0,.03,0,.16c.04.22.07.31.07.29,0-.02,0-.08.03-.16.02-.09.04-.18.07-.29.02-.11.05-.18.1-.23-.04.09-.08.28-.1.59-.02.3-.01.54.03.71.04,0,.07-.13.07-.39s0-.24,0,.07v1.5c0,.39,0,.76.03,1.11.02.35.04.71.07,1.07.02.37.03.81.03,1.33l.07-.2c0,.13-.01.25-.03.36-.02.11-.01.21.03.29l.06-.13c0,.17-.02.67-.06,1.5-.04.82-.07,1.6-.07,2.34l.13-.72-.13,1.24.2-.13c-.09.22-.12.63-.1,1.24.02.61,0,1.21-.03,1.82h.13l-.07.72.07-.26c0,.35-.03.72-.1,1.11-.07.39-.08.8-.03,1.24Zm-1.56-11.25l.07-.13c0,.09-.02.13-.07.13Zm.33-5.79c-.09.09-.15.16-.19.23-.04.07-.04.36,0,.88.09.04.13.03.13-.03s.04.01.13.23c.04-.22.05-.39.03-.52-.02-.13-.03-.24-.03-.33-.04.13-.05.25-.03.36.02.11,0,.19-.03.23-.09-.43-.09-.78,0-1.04l.13-.26-.13.26Zm-.19-.72v.46l.19-.46h-.19Zm.33,4.62c.04-.09.06-.2.06-.33-.04-.04-.06-.09-.06-.13v-.06c-.04-.35-.08-.64-.1-.88-.02-.24-.08-.16-.16.23v.58-.19l.07-.07c.04.22.04.41,0,.59-.04.17-.07.35-.07.52.04-.09.08-.26.1-.52.02-.26.08-.35.16-.26v.52c0,.13.02.24.06.33v-.13s-.01-.08-.03-.1c-.02-.02-.03-.05-.03-.1Zm-.13,1.89c-.09-.09-.13-.01-.13.23v.49l.13-.72Zm-.06,3.25l-.07,1.3v-.65s.01-.1.03-.16c.02-.06.03-.23.03-.49Zm0,25.56s.08,0,.1.13c.02.13.03.29.03.49v1.07c-.09-.17-.1-.43-.03-.78.06-.35.03-.65-.1-.91Zm.26-11.51c-.04-.09-.06-.27-.06-.55v-.94c-.09.13-.11.42-.07.88.04.46.09.66.13.62Zm.07-17.82v-.33l-.2.39.2-.07Zm0,7.28c-.04-.09-.05-.2-.03-.33s-.01-.15-.1-.06c.04.26.04.55,0,.88-.04.33-.02.53.06.62l.07-1.11Zm-.13-19.44s0-.06.03-.06.03-.02.03-.07l-.06.13Zm.32,26.6c-.09-.22-.12-.39-.1-.52.02-.13-.01-.15-.1-.07v.65c0,.35-.04.52-.13.52l.19.26c-.04-.26-.04-.49,0-.68.04-.2.09-.25.13-.16Zm-.26,18.27c.09.3.28.52.58.65h-.13c-.26-.22-.43-.46-.52-.72l.06.06Zm.2-39.21c-.04-.26-.08-.3-.1-.13-.02.17-.03.37-.03.58,0-.04,0-.05.03-.03.02.02.05-.01.1-.1v-.33ZM53.58.78c.69,0,1.35.17,1.98.52.63.35,1.17.78,1.63,1.3.46.52.81,1.11,1.07,1.76.26.65.39,1.3.39,1.95v34.33c0,1.47-.48,2.79-1.43,3.93-.95,1.15-2.17,1.72-3.64,1.72h-12.94c-.52,0-.78-.35-.78-1.04,0-29.26.08-43.99.23-44.19.15-.2.34-.29.55-.29h12.94Zm-13.4,38.04l.07.72-.2.52.13-1.24Zm.13,6.05l-.06.2-.07-.2v.65c-.09-.39-.1-.76-.03-1.11.07-.35.12-.63.16-.85,0,.22-.03.51-.1.88-.07.37-.03.51.1.42Zm.13-8.65c0-.22-.01-.33-.03-.33s-.04.03-.06.1c-.02.06-.04.13-.07.2-.02.06-.03.03-.03-.1v.46c-.09-.39-.09-.61,0-.65.09-.04.11-.19.06-.46l.07.39c.04.13.07.08.07-.16s.02-.38.06-.42c.04.22.04.48,0,.78-.04.3-.06.37-.06.19Zm-.07-4.68v.65l-.07-.26c-.09,0-.13.02-.13.06v.33-1.01c0-.24.04-.38.13-.42-.04.09-.06.28-.06.58s.04.43.13.39v-.32Zm.07-13.98c-.04-.26-.06-.43-.03-.52.02-.09.03-.22.03-.39.04.04.06.16.06.36s-.02.38-.06.55Zm.06,20.29v.13-.13c.09-.3.1-.53.03-.68-.06-.15-.05-.34.03-.55.09.26.11.49.06.68-.04.2-.09.38-.13.55Zm.07-21.13c-.09-.43-.1-.68-.03-.75.07-.06.12-.23.16-.49.04.35.03.55-.03.62-.07.06-.1.27-.1.62Zm.06-16h1.43c.56,0,1.04.02,1.43.06-.17,0-.41.01-.71.03-.3.02-.6.03-.88.03s-.55,0-.81-.03c-.26-.02-.41-.05-.46-.1Zm.2,29.26l.07.07-.07.72-.06-.07.06-.72Zm3.06-28.87l-.98-.06c.3,0,.48.01.52.03.04.02.19.03.46.03Zm.19-.19l-.52-.07-.07.07h.58Zm.2,44.74h.52c-.09-.04-.2-.09-.33-.13s-.11-.06.07-.06c.13.04.35.08.65.1.3.02.46.05.46.1-.35-.09-.64-.09-.88,0-.24.09-.4.09-.49,0Zm1.63.52c.09.09.38.12.88.1.5-.02.81-.01.94.03-.17,0-.38.01-.62.03-.24.02-.47.03-.68.03s-.39-.01-.52-.03c-.13-.02-.13-.08,0-.16Zm.13-9.49v-.06h-.07l.07.06Zm0-1.95s-.01.08-.03.1-.01.08.03.16v-.26Zm.13-9.62v-.13l-.06.13h.06Zm0,2.02l-.06.26c0-.17.02-.26.06-.26l.07-.2c.04.26.05.37.03.33-.02-.04-.05-.09-.1-.13Zm.07,7.61c.09-.09.08-.12-.03-.1-.11.02-.12-.08-.03-.29,0-.22.02-.41.07-.58.04-.17.11-.22.2-.13-.04.17-.07.37-.07.59s-.04.39-.13.52Zm0-4.16c0,.09,0,.21.03.36.02.15-.01.23-.1.23l.07-.59Zm-.07,1.04v.19c.04.13.1.23.16.29.06.06.03.21-.1.42l-.07-.72v-.19Zm.07,4.55l-.07.39v-.13l.07-.26Zm-.07,10.4l.39.06.26-.13-.65.06Zm.07-28.42v.46s0-.12.03-.23c.02-.11.01-.12-.03-.03v-.19Zm.06,9.1c.04.13.07.33.07.59s0,.37,0,.33c-.09-.04-.12-.18-.1-.42.02-.24.03-.4.03-.49Zm0,3.77c.04-.09.07-.17.07-.26s.02-.23.07-.42c.04-.2.11-.29.19-.29-.09-.04-.14.06-.16.32-.02.26-.08.48-.16.65Zm.39,0c-.04.3-.09.49-.13.55-.04.06-.11.21-.2.42-.09-.26-.09-.43,0-.52.09-.09.17-.11.26-.06.04-.22.04-.33,0-.33s-.06-.04-.06-.13l.13.06Zm0-8.71s-.07.02-.07.06l-.06.13c0-.09.02-.13.06-.13,0-.3-.02-.5-.06-.58-.04.04-.07.12-.07.23v.23c-.09-.22-.08-.47.03-.75.11-.28.05-.38-.16-.29.04-.09.08-.22.1-.39.02-.17.08-.22.16-.13-.04.22-.05.5-.03.85.02.35.05.61.1.78.04.04.07.09.07.13-.04-.04-.07-.09-.07-.13Zm-.26-21.65c.17,0,.28.01.33.03.04.02.09.03.13.03-.22,0-.37-.02-.46-.06Zm.13,12.75v.39l-.13-.19.13-.2Zm.26,25.04c-.04-.13-.11-.29-.2-.49-.09-.19-.06-.33.07-.42v.39s0-.15.03-.33c.02-.17.03-.35.03-.52.17.22.21.33.1.33s-.12.2-.03.59c0-.43.03-.63.1-.59.07.04.14.06.23.06-.09.17-.13.39-.13.65v.26c0,.09-.07.11-.2.06Zm-.2-20.74v.26l.07.06-.07-.32Zm.2,10.4c0,.09-.01.13-.03.13s-.03.02-.03.06v.06c0,.22-.04.28-.13.2.04-.17.07-.23.07-.16s.02.05.07-.03c0-.04,0-.08.03-.1.02-.02.03-.08.03-.16Zm.07-13.72c-.09.04-.12.02-.1-.07.02-.09,0-.17-.03-.26,0,.13-.02.26-.07.39-.04.13-.04.28,0,.46.04-.09.08-.15.1-.19.02-.04.05-.15.1-.33Zm.65-6.11c-.52,0-.78.35-.78,1.04v28.61c0,.22.06.42.19.62.13.19.33.29.59.29h3.25c.26,0,.48-.1.65-.29.17-.2.26-.4.26-.62V9.3c0-.69-.3-1.04-.91-1.04h-3.25Zm-.78,5.79s.04-.13,0-.26v.26Zm.19-13.53c-.22-.09-.21-.12.03-.1.24.02.44.03.62.03-.17,0-.3.02-.39.07-.09.04-.17.04-.26,0Zm-.13,8.91c0-.09.01-.15.03-.19.02-.04.03-.11.03-.2,0,.13-.02.26-.07.39Zm0,3.51s.07-.17.07-.39v-.26c0,.22,0,.34.03.36.02.02.04-.01.07-.1.02-.09.05-.24.1-.46,0,.26-.02.42-.06.49-.04.07-.11.19-.2.36Zm0,16.19c.09-.04.15-.17.2-.39.04-.22.04-.43,0-.65l-.2.78.07-.26-.07.52Zm.07,1.04l.06-.91-.06.06v-.06l-.07.13.07-.06v.85Zm-.07,15.28h.78-.78Zm.26-36.94s-.11.22-.19.52c0-.22.06-.39.19-.52Zm-.06,10.79l.2-.59c0,.22-.01.35-.03.39-.02.04-.08.11-.16.2Zm.06,5.98c0,.22.02.31.07.29.04-.02.07.01.07.1h-.2l.06-.39Zm.39,20.03c.17,0,.04-.04-.39-.13.17.09.3.13.39.13Zm-.13-36.74c.09.04.09.06,0,.03-.09-.02-.13.01-.13.1,0-.13.04-.17.13-.13Zm-.13,24.32s0-.08.03-.1c.02-.02,0-.07-.03-.16v.26Zm.33-24.51c-.13,0-.22-.02-.26-.07.04,0,.09.01.13.03.04.02.09.03.13.03Zm-.26,18.86l.2-.33c-.04.22-.09.34-.13.36s-.07.01-.07-.03Zm.07,3.32v.06l-.07.52.07-.59Zm0-29.91h1.17c-.13,0-.27.01-.42.03-.15.02-.4.01-.75-.03Zm0,22.82c0-.13.02-.19.06-.19v.46c0,.09-.01.09-.03,0-.02-.09-.03-.17-.03-.26Zm0,11.51c.09-.09.13-.11.13-.06l-.13.06Zm.06-6.24l.07-.26-.07.78v-.52Zm.85,17.36c.3,0,.43.02.39.06.09.04.19.05.32.03.13-.02.24-.01.33.03-.35.04-.55.04-.62,0-.07-.04-.21-.09-.42-.13h-.33.33Zm.98-45.39c-.09,0-.19-.01-.29-.03-.11-.02-.25-.03-.42-.03.26,0,.5.02.72.06Zm-.39,7.41l.26.06.06-.06h-.33Zm.13-.2c.13,0,.21.02.23.07.02.04.12.04.29,0l-.52-.07Zm1.82.39c-.09-.09-.33-.12-.72-.1-.39.02-.69.03-.91.03.22.04.49.06.81.06h.81Zm-.46,38.56s.08-.01.1-.03c.02-.02.08-.03.16-.03-.04,0-.08.01-.1.03-.02.02-.08.03-.16.03Zm.2-7.22c.09,0,.11-.02.06-.06l-.06.06Zm.19,5.79h-.19l.06.06.13-.06Zm0-7.22s-.02.06-.06.06c0-.04.02-.06.06-.06Zm.33-23.02l.07-.06s-.02.06-.07.06Zm.33-3.25c-.09.04-.15.08-.2.1-.04.02-.04.21,0,.55.09,0,.13-.02.13-.06s.04,0,.13.13c.04-.09.05-.17.03-.26-.02-.09-.03-.15-.03-.19-.04.09-.05.15-.03.19.02.04,0,.09-.03.13-.09-.26-.09-.46,0-.59l.13-.13-.13.13Zm-.2-.46v.26l.2-.2-.2-.06Zm.13,5.53l-.07.78c-.04-.3-.05-.43-.03-.39.02.04.05-.09.1-.39Zm.19-2.93s.07-.09.07-.13c-.04-.04-.07-.09-.07-.13-.04-.22-.08-.39-.1-.52-.02-.13-.08-.09-.16.13v.39c0-.09.02-.15.07-.19.04.13.04.25,0,.36-.04.11-.07.21-.07.29.04-.09.08-.19.1-.32.02-.13.08-.17.16-.13v.26c0,.13.02.22.07.26v-.13l-.07-.13Zm-.13,1.11c-.09-.09-.13-.05-.13.1v.29l.13-.39Zm-.06,16.26c.09-.04.13.08.13.36v.62c-.09-.09-.1-.23-.03-.42.06-.19.03-.38-.1-.55Zm0,7.15c.17-.09.28-.22.33-.39-.04.13-.15.28-.33.46v-.06Zm.13-5.33l-.07.39.07.07.06-.39-.06-.06Zm0,3.71l-.07.2.13.19-.06-.39Zm.39,1.24c-.09.22-.15.28-.19.19-.04.04-.08.1-.1.16-.02.06-.08.1-.16.1.13-.17.22-.26.26-.26s.11-.06.19-.19c.04-.04.07-.13.07-.26,0,.13-.02.22-.07.26Zm-.26-13.27s-.07-.14-.07-.29v-.55c-.09.09-.11.26-.06.52.04.26.09.37.13.33Zm.07-10.01v-.19l-.2.19h.2Zm0,4.1c-.04-.09-.06-.16-.03-.23.02-.06-.01-.08-.1-.03.04.17.04.35,0,.52-.04.17-.02.28.07.33l.07-.59Zm.19,4.03c-.04-.09-.09-.06-.13.06-.04.13-.04.26,0,.39l-.2-.13c.09,0,.13-.1.13-.29v-.36c.09-.09.12-.08.1.03-.02.11.01.21.1.29Zm-.06-11.83v.2c-.09.09-.13.11-.13.06,0-.13,0-.24.03-.33.02-.09.05-.06.1.06Zm.06,25.62c-.09.04-.12.21-.1.49.02.28.01.47-.03.55-.04-.22-.06-.48-.06-.78s.06-.39.19-.26Zm.33-4.03l-.06.13-.07-.13-.07.39c-.09-.26-.09-.48,0-.65.09-.17.15-.35.2-.52,0,.13-.03.31-.1.55-.06.24-.03.31.1.23Zm-.13-3.45l.07.46-.2.26.13-.72Zm.26-1.43c-.04-.26-.09-.29-.13-.1-.04.2-.06.21-.06.03v.26c-.09-.22-.09-.34,0-.36.09-.02.11-.12.06-.29l.07.19c.04.09.06.07.06-.06s.02-.22.07-.26c.04.13.04.28,0,.46-.04.17-.07.22-.07.13Zm-.06-2.67v.39l-.07-.13h-.13v.19-.58c0-.13.04-.2.13-.2-.04.04-.06.15-.06.33s.04.24.13.19v-.19Zm.06-7.87c-.04-.17-.05-.28-.03-.33.02-.04.03-.11.03-.2.09.09.09.26,0,.52Zm.07,18.53v.26s.09-.1.13-.16c.04-.06.07-.05.07.03-.04.09-.08.21-.1.36-.02.15-.05.23-.1.23.09-.22.09-.38,0-.49-.09-.11-.09-.18,0-.23Zm.07-18.99c-.09-.26-.1-.4-.03-.42.07-.02.12-.12.16-.29.04.22.03.34-.03.36-.06.02-.1.14-.1.36Zm-.07,11.9v.07-.07c.09-.17.1-.3.03-.39-.06-.09-.05-.19.03-.32.09.17.11.31.06.42-.04.11-.09.21-.13.29Zm.2,8.45v.52-.52Zm.13-12.88h.07l-.07.39h-.07l.07-.39Zm0,13.27s.04-.02.13-.19c-.09.09-.13.15-.13.19ZM55.4,1.11c-.13-.13-.34-.23-.62-.29-.28-.06-.4-.1-.36-.1l.58.13c-.26-.13-.49-.23-.68-.29s-.32-.1-.36-.1c.52.09.83.17.94.26.11.09.27.22.49.39Zm.58.65c.26.17.43.3.52.39-.04,0-.09-.01-.13-.03-.04-.02-.11-.03-.19-.03-.09-.17-.15-.28-.2-.33Zm1.04.58c-.09-.09-.15-.14-.19-.16-.04-.02-.09-.05-.13-.1.09.04.2.13.33.26Zm0,42.33c-.04.3.15.24.59-.2.17-.17.32-.36.46-.55.13-.19.24-.33.33-.42-.04-.04-.07-.1-.07-.16s-.02-.1-.07-.1-.11.06-.19.19c-.09.13-.24.37-.46.72.13-.3.24-.51.32-.62.09-.11.16-.19.23-.26.06-.06.11-.13.13-.19.02-.06.03-.21.03-.42-.09.3-.22.59-.39.85-.17.26-.3.41-.39.46.17-.26.3-.48.39-.65-.22.13-.37.35-.46.65-.09.3-.24.54-.46.72Zm.39-41.94c.17.22.27.39.29.52s.05.26.1.39c-.22-.26-.37-.49-.46-.68-.09-.2-.2-.4-.33-.62.13.13.24.25.33.36.09.11.11.12.07.03Zm.33,38.95s.06.11.06.19c0-.04.02-.09.07-.13-.04,0-.07-.01-.07-.03,0-.02-.02-.03-.06-.03Zm.19-3.12s-.01.11-.03.2c-.02.09-.01.19.03.33v-.52Zm.07,2.93c0-.13.04-.28.13-.46l-.2.59.07-.13Zm.07-19.96v-.2l-.07.2h.07Zm0,3.58l-.07.39c0-.3.02-.43.07-.39l.06-.32c.04.43.05.61.03.52-.02-.09-.06-.15-.1-.2Zm.06,13.4c.09-.17.08-.22-.03-.13-.11.09-.12-.09-.03-.52,0-.39.02-.73.06-1.01.04-.28.11-.38.2-.29-.04.35-.07.72-.07,1.11s-.04.67-.13.85Zm0-7.35c0,.17.01.39.03.65.02.26-.01.41-.1.46l.06-1.11Zm-.06,1.89v.39c.04.22.1.38.16.49.07.11.03.34-.1.68l-.06-1.17v-.39Zm.06-23.8v.78c0-.09.01-.22.03-.39.02-.17,0-.22-.03-.13v-.26Zm.07,16.13c.04.22.06.54.06.98s0,.61,0,.52c-.09-.04-.12-.27-.1-.68.02-.41.03-.68.03-.81Zm.39,6.7c-.04.48-.09.79-.13.94-.04.15-.11.4-.2.75-.09-.48-.09-.79,0-.94.09-.15.17-.18.26-.1.04-.35.04-.53,0-.55-.04-.02-.07-.14-.07-.36l.13.26Zm-.39-.06c.04-.13.06-.3.06-.52,0-.13.02-.37.07-.71.04-.35.11-.5.2-.46-.09-.09-.14.09-.16.52-.02.43-.08.82-.16,1.17Zm.39-15.41s-.06.02-.06.06c0,.09-.01.14-.03.16-.02.02-.03.05-.03.1,0-.13.02-.22.07-.26v-.55c0-.2-.02-.34-.07-.42-.04.09-.06.22-.06.39v.39c-.04-.17-.06-.39-.03-.65.02-.26.04-.5.07-.71.02-.22.03-.38.03-.49s-.06-.1-.2.03c.04-.13.08-.36.1-.68.02-.33.08-.4.16-.23-.04.39-.05.89-.03,1.5.02.61.05,1.06.1,1.37.04.04.07.13.07.26,0-.04-.01-.08-.03-.1-.02-.02-.03-.08-.03-.16Zm0-7.61l-.06-.13v-.46l.06.58Zm.13,17.88c0,.09-.01.16-.03.23-.02.06-.03.14-.03.23-.04.09-.07.09-.07,0s-.02.02-.06.33c.04.09.08.09.1,0,.02-.09.03-.19.03-.33,0-.04,0-.1.03-.16.02-.06.03-.16.03-.29Zm0,1.76c.09-.04.15-.26.19-.65s.04-.78,0-1.17l-.19,1.37.06-.46-.06.91Zm.06,1.89l.07-1.56-.07.06v-.13l-.06.33.06-.19v1.5Zm.07,10.86c0,.09-.01.16-.03.23s-.03.14-.03.23c0-.09.01-.16.03-.23s.03-.14.03-.23Zm.06-30.11c.04-.39.11-.72.2-.98,0,.35-.01.57-.03.68-.02.11-.08.21-.16.29Zm.07,10.66c0,.35.02.5.06.46.04-.04.07.02.07.2h-.2l.07-.65Zm.13,13.4s0-.1.03-.16c.02-.06.01-.14-.03-.23v.39Zm.07-10.01l.19-.52c-.04.3-.09.48-.13.52-.04.04-.06.04-.06,0Zm.06,5.85v.13l-.06.91.06-1.04Zm0-12.49v-.26c0-.09.02-.15.07-.19v.91c0,.17-.01.16-.03-.03-.02-.2-.03-.34-.03-.42Zm0,20.35c.09-.17.13-.22.13-.13l-.13.13Zm.07-11.05l.06-.46-.06,1.3v-.85Z"/><path class="cls-1" d="m69.12,25.3c-.35,0-.56-.03-.65-.1-.09-.06-.11-.12-.07-.16l2.67.2c.26-.04.44-.06.55-.06s.17-.01.2-.03-.08-.05-.29-.1l1.04.13-.07-.07h.78c.26-.04.53,0,.81.1.28.11.51.25.68.42.22.22.39.46.52.72,0,.09.04.22.13.39v1.17c0,.52-.01,1.03-.03,1.53-.02.5-.06.99-.1,1.46-.04,1-.07,1.99-.07,2.99s.04,2.04.13,3.12v-.06l-.06.59v.32c0,.09-.02.28-.07.59-.35.87-.95,1.3-1.82,1.3-.26,0-.46.03-.59.1-.13.06-.39.12-.78.16.09-.04.05-.08-.1-.1-.15-.02-.34-.03-.55-.03h-.68c-.24,0-.42-.02-.55-.06-.3.04-.38.08-.23.1.15.02.27.06.36.1-1.13.04-2.23.04-3.32,0h-1.69c-.35-.09-.65-.09-.91,0h-.26l-.13-.06-.07-.39.07.39h.26c.13,0,.26-.01.39-.03.13-.02.24-.03.33-.03.22,0,.39-.01.52-.03.13-.02.28-.03.46-.03h.78c.26,0,.63-.02,1.11-.06-.95-.04-1.73-.04-2.34,0h-1.5s-.07,0-.07-.13c-.04-.04-.05-.06-.03-.06.02,0,0-.02-.03-.06,0,.04.02.06.07.06.04.04.09.06.13.06l.07.06s.02,0-.07-.03c-.09-.02-.13-.05-.13-.1l-.07-.06s.02.06.07.06v.13s.02.09.07.13h.13c.04-.26.06-.29.06-.1v.81c0,.35-.01.68-.03,1.01-.02.33,0,.51.1.55,0,.35-.01.68-.03,1.01-.02.33-.06.66-.1,1.01-.04.22-.07.56-.07,1.04-.09.22-.09.35,0,.39v.13h-.06s-.09.07-.13.07c.04,0,.09-.02.13-.07.04,0,.08-.01.1-.03.02-.02.05-.03.1-.03l.07-.13c0,.09-.02.13-.07.13-.13.04-.24.11-.33.2.04-.04.09-.17.13-.39-.04-.04.04-.07.26-.07v.13c.43.04.69.02.78-.06.52.09,1.12.13,1.79.13s1.38.04,2.11.13l.13-.06c.17,0,.28.02.33.06.13-.09.4-.13.81-.13s.62-.04.62-.13c-.22,0-.52-.01-.91-.03-.39-.02-.54-.01-.46.03-.3-.04-.4-.08-.29-.1.11-.02.31-.03.62-.03h1.82c-.43.09-.49.13-.16.13h.81c.09,0,.1,0,.03,0s-.12-.02-.16-.07c.74-.04,1.28,0,1.63.13.35.13.76.11,1.24-.06l.26.13c.39,0,.72-.04.98-.13.04.17.26.17.65,0,.43-.17.69-.24.78-.2.22-.17.33-.27.33-.29s-.03-.02-.1,0c-.07.02-.12.04-.16.06-.04.02-.02.01.07-.03.22-.17.44-.37.68-.58.24-.22.47-.46.68-.72.48-.56.72-.98.72-1.24.22-.35.37-.78.46-1.3.04-.22.05-.44.03-.68-.02-.24-.01-.47.03-.68l-.13-.07c0-.22.01-.46.03-.72.02-.26.03-.5.03-.71l-.07.06v.13c.04-.87.07-1.66.07-2.37s.02-1.44.06-2.18c-.09.09-.14.16-.16.23-.02.06-.03.29-.03.68-.09-.65-.09-1.48,0-2.5.09-1.02.13-2.03.13-3.02l-.07.13.07-1.11c0,.09-.01.12-.03.1-.02-.02-.06-.03-.1-.03v-3.06c.04-.48.08-.9.1-1.27.02-.37,0-.66-.03-.88,0,.13-.01.16-.03.1-.02-.06-.05-.12-.1-.16-.04-.04-.08-.06-.1-.06s-.01.13.03.39c-.09-.87-.5-1.72-1.24-2.57-.74-.85-1.58-1.33-2.54-1.46h.07c-.13-.04-.26-.06-.39-.06s-.28-.02-.46-.06l-.06.06h.65c-.43,0-.86-.01-1.27-.03-.41-.02-.79-.05-1.14-.1-.09.04-.18.09-.29.13-.11.04-.29.06-.55.06,0-.04-.14-.05-.42-.03-.28.02-.62.03-1.01.03-.26,0-.46.02-.58.06-.09,0-.22-.01-.39-.03-.17-.02-.35-.1-.52-.23-.22-.09-.36-.22-.42-.39-.06-.17-.12-.33-.16-.46-.04-.17-.07-.39-.07-.65-.04-.09-.05-.03-.03.16.02.2,0,.19-.03-.03,0-.74.01-1.51.03-2.31.02-.8.03-1.64.03-2.5.04-.43.07-.87.07-1.3v-2.67c.04-.13.09-.28.13-.46.04-.17.13-.33.26-.46.17-.17.35-.28.52-.33.17-.04.33-.09.46-.13.09.09.3.15.65.19.35.04.75.08,1.2.1.46.02.94.03,1.46.03s1,.02,1.43.06c.09-.04.09-.08,0-.1-.09-.02-.23-.03-.42-.03h-.58c-.2,0-.36-.02-.49-.06.26,0,.42-.01.49-.03.06-.02.13-.04.19-.06.07-.02.18-.04.36-.07.17-.02.48,0,.91.03h-.39.42s.03.02.03.06.04.06.13.06h.71l.07-.13.91.19c.39,0,.77,0,1.14-.03.37-.02.75-.03,1.14-.03.17,0,.33-.09.46-.26.04-.09.05-.21.03-.36-.02-.15-.03-.31-.03-.49v-2.05c0-.67-.02-1.35-.07-2.05,0-.09,0-.11.03-.06.02.04.05.15.1.33v-.91s.07-.13.07-.26c0-.09-.02-.13-.07-.13,0-.13-.04-.24-.13-.33-.09-.13-.35-.2-.78-.2h-.52c-.17,0-.35.02-.52.06l.39.07h-1.33c-.33,0-.64-.02-.94-.07-.3-.04-.65-.09-1.04-.13-.39-.04-.91-.06-1.56-.06.3,0,.7.01,1.2.03.5.02.79,0,.88-.1-.13-.04-.45-.07-.94-.07s-.86.02-1.07.07l.19-.2c.22.09.53.13.94.13s.79.02,1.14.07c-.22-.04-.33-.09-.33-.13.35.04.74.06,1.17.06s.89.02,1.37.07h-1.37c.26.09.73.11,1.4.06.67-.04,1.14-.04,1.4,0,0-.04-.04-.08-.13-.1-.09-.02-.15-.03-.2-.03s-.05,0-.03-.03.14-.05.36-.1c.35.04.58.15.72.33.13.17.22.33.26.46,0,.17-.01.3-.03.39-.02.09-.03.17-.03.26-.04.13-.09.3-.13.52-.04.22-.09.59-.13,1.11l-.07-.33c0,.35-.03.67-.1.98-.06.3-.05.69.03,1.17.09,0,.13-.14.13-.42s.02-.51.07-.68c.04.09.02.34-.07.75-.09.41-.11.81-.07,1.2.09-.35.15-.86.2-1.53.04-.67.07-1.31.07-1.92,0,.26.04.26.13,0,0,.43-.01.86-.03,1.27-.02.41-.03.84-.03,1.27l-.06,1.3c0,.22-.01.43-.03.65-.02.22-.12.39-.29.52-.13.17-.3.26-.52.26h-.65c-.22,0-.43,0-.65-.03-.22-.02-.43-.03-.65-.03h-1.27c-.41,0-.83.02-1.27.06.43.04.64.08.62.1s-.12.03-.29.03h-.52c-.17,0-.22.02-.13.06-.13-.09-.41-.11-.85-.06-.43.04-.89.04-1.37,0-.09.04-.04.08.13.1.17.02.36.04.55.07.2.02.36.03.49.03s.11.02-.06.06c-.43-.04-.9-.08-1.4-.1-.5-.02-1.03-.05-1.59-.1-.13,0-.26-.01-.39-.03-.13-.02-.26-.01-.39.03-.22.04-.37.24-.46.58-.04.26-.07.53-.07.81v.88c.04-.09.07-.23.07-.42s.02-.31.06-.36c-.04.74-.12,1.54-.23,2.41-.11.87-.1,1.56.03,2.08.09-.35.14-.73.16-1.14.02-.41.08-.81.16-1.2v.32c0,.13.02.3.07.52l.06-.52c0,.48-.01.81-.03,1.01-.02.19-.05.36-.1.49-.04.13-.09.24-.13.33-.04.09-.09.26-.13.52l.2,1.11v1.5c0,.26,0,.49.03.68.02.2.1.34.23.42.17.09.36.13.55.13s.4.02.62.06c.3,0,.67.04,1.11.13h.42c.2,0,.38-.01.55-.03.17-.02.29-.04.36-.06.06-.02.03-.05-.1-.1-.26-.04-.49-.08-.68-.1-.2-.02-.42-.05-.68-.1-.13-.04-.26-.06-.39-.06s-.28-.02-.46-.06h-1.11s-.04.02,0,.06c.04.04.17.06.39.06.17,0,.31.01.42.03.11.02.08.03-.1.03-.09-.04-.2-.05-.33-.03-.13.02-.24.01-.33-.03-.22,0-.35-.09-.39-.26-.09-.22-.12-.46-.1-.72.02-.26.05-.48.1-.65v1.04c0,.35.11.54.33.58,0-.04-.04-.11-.13-.19-.13-.13-.15-.3-.07-.52.09.35.15.52.2.52s.12.01.23.03c.11.02.23.03.36.03s.26-.01.39-.03c.13-.02.24-.03.33-.03h-.13c.43,0,.77.01,1.01.03.24.02.44.03.62.03h1.63c.04.09-.08.13-.36.13s-.64.02-1.07.07c.35,0,.71.01,1.11.03.39.02.78.03,1.17.03.87.09,1.65.37,2.34.85.69.48,1.28,1.04,1.76,1.69.48.65.85,1.32,1.11,2.02-.09-.3-.16-.59-.23-.85-.06-.26-.16-.52-.29-.78.13.22.26.49.39.81s.22.64.26.94c.09.3.13.56.13.78s.04.3.13.26c-.04-.3-.07-.52-.07-.65v-.78l-.06-.06c0-.09-.02-.21-.07-.36-.04-.15-.02-.16.07-.03.04.26.09.54.13.85.04.3.06.63.06.98-.04.35-.06.66-.06.94s-.02.55-.07.81c.04-.22.08-.18.1.1.02.28.05.45.1.49,0,.26-.01.41-.03.46-.02.04-.04.03-.07-.03-.02-.06-.05-.21-.1-.42,0,.26-.03.56-.1.91-.06.35-.05.63.03.85.04.22.08.28.1.19.02-.09.03-.22.03-.39s0-.36.03-.55c.02-.19.05-.31.1-.36l-.2,2.93.07-.06c-.04.09-.08.23-.1.42-.02.2-.01.38.03.55.04.13.08.08.1-.16.02-.24.01-.47-.03-.68.09.78.08,1.49-.03,2.11-.11.63-.1,1.27.03,1.92l-.07.85s.01.09.03.13c.02.04.03.02.03-.06l-.07.85c-.04.39-.05.64-.03.75.02.11.04.16.07.16.02,0,.05-.02.1-.06.04-.04.07,0,.07.13v-.06c.04.22.08.4.1.55.02.15.03.14.03-.03l-.13,1.63c-.04.17-.08.43-.1.78-.02.35-.05.69-.1,1.04-.04.39-.12.71-.23.94-.11.24-.21.34-.29.29-.17.56-.2.78-.07.65-.17.3-.26.47-.26.49,0,.02.02.06.06.1,0,.04-.02.11-.06.2-.04.09-.1.19-.16.32-.06.13-.18.3-.36.52.04,0,.17-.15.39-.46l-.52.72v.06s-.01.06-.03.06-.03.02-.03.06c-.04-.04-.17.05-.39.29-.22.24-.41.44-.59.62.09-.09.2-.15.33-.2s.24-.11.33-.2c-.22.17-.41.33-.58.46-.17.13-.46.33-.85.58.26-.09.46-.17.59-.26-.35.22-.55.32-.62.32h-.16c-.09,0-.17.02-.26.07-.09.04-.35.15-.78.32.48-.13.95-.39,1.43-.78-.39.26-.69.4-.91.42-.22.02-.37.03-.46.03s-.16-.01-.23-.03c-.07-.02-.21-.03-.42-.03-.91-.09-1.86-.1-2.86-.03-1,.06-1.84.01-2.54-.16-.13.09-.18.13-.16.13s-.1.04-.36.13c.56.04,1.02.08,1.37.1.35.02.65.08.91.16.56.04.92.04,1.07,0,.15-.04.26-.09.33-.13.06-.04.19-.08.39-.1.2-.02.6-.01,1.2.03-.09.09-.28.14-.58.16-.3.02-.63.01-.98-.03-.04.09.1.14.42.16.33.02.62.05.88.1-.74-.04-1.52-.04-2.34,0-.82.04-1.47.06-1.95.06-.22-.04-.54-.08-.98-.1-.43-.02-.78-.03-1.04-.03-.39-.04-.71-.09-.94-.13-.24-.04-.42-.09-.55-.13-.13-.04-.11-.09.07-.13-.39,0-.66,0-.81.03-.15.02-.28.04-.39.06-.11.02-.24.04-.39.07-.15.02-.42-.01-.81-.1.13.04.16.08.1.1-.07.02-.15.04-.26.06-.11.02-.2.03-.26.03s-.03.02.1.06c.26-.09.72-.09,1.37,0,.65.09,1.15.15,1.5.2l-2.15.13c.26-.04.27-.09.03-.13-.24-.04-.42-.06-.55-.06l-.33.13s-.3-.06-.78-.06c-.13,0-.3-.03-.52-.1s-.39-.21-.52-.42c-.22-.3-.33-.67-.33-1.11-.04-.52-.07-1.04-.07-1.56s.04-.91.13-1.17c0,.35.01.65.03.91.02.26-.01.48-.1.65,0,.35.02.52.06.52s.08-.03.1-.1c.02-.06.05-.13.1-.19.04-.07.09-.03.13.1.04-.48.05-1.02.03-1.63-.02-.61-.03-1.21-.03-1.82v-.98c0-.13.01-.28.03-.46.02-.17.08-.35.16-.52.09-.22.24-.35.46-.39.22-.04.39-.06.52-.06.13.04.27.06.42.06h.42c-.09,0-.22-.01-.39-.03-.17-.02-.33-.03-.46-.03-.17-.04-.34-.04-.49,0-.15.04-.27.06-.36.06.3-.22.58-.28.85-.2h.58c.22,0,.44.01.68.03.24.02.47.03.68.03.43.09.88.14,1.33.16.46.02.92.06,1.4.1l-.33-.13c.39.04.64.06.75.06s.21-.01.29-.03c.09-.02.21-.03.36-.03h.81s-.09.01-.13.03c-.04.02.04.03.26.03.35,0,.55-.01.62-.03.06-.02.09-.04.06-.06-.02-.02-.02-.04,0-.06s.14-.03.36-.03c.43.09.72.12.88.1.15-.02.29-.05.42-.1.09,0,.22-.04.39-.13.09-.04.17-.1.26-.16s.15-.16.2-.29l-.07.06v-.58c.04-.17.04-.39,0-.65v-1.43c-.04-.48-.08-.95-.1-1.43-.02-.48-.05-.95-.1-1.43,0,.04,0,.14.03.29.02.15.03.31.03.49s.01.33.03.46c.02.13.05.17.1.13l.07-2.28s-.01-.12-.03-.23c-.02-.11-.03-.21-.03-.29s-.01-.14-.03-.16c-.02-.02-.05.03-.1.16,0,.17.01.32.03.46.02.13.03.26.03.39l-.13-.33c.04-.52.09-.8.13-.85.04-.04.08,0,.1.13.02.13.05.3.1.52.04.22.09.33.13.33-.04-.61-.03-1.05.03-1.33.07-.28.1-.6.1-.94-.04-.09-.08-.06-.1.06-.02.13-.05.26-.1.39-.04.13-.08.23-.1.29-.02.06-.05-.03-.1-.29-.04-.17-.05-.42-.03-.75.02-.33.03-.66.03-1.01.04-.17.07-.35.07-.52v-.52c.04-.26,0-.46-.13-.59-.13-.04-.25-.06-.36-.06s-.29.02-.55.06h-1.5c-.48,0-.89.01-1.24.03-.35.02-.52.08-.52.16.04-.04-.02-.08-.2-.1-.17-.02-.39-.03-.65-.03l.26.06c-.74.09-1.24.06-1.5-.06-.17-.09-.34-.15-.49-.2-.15-.04-.34-.11-.55-.19,0,.09.15.17.46.26-.61-.13-1.09-.33-1.46-.62-.37-.28-.68-.6-.94-.94-.3-.35-.56-.72-.78-1.11s-.43-.85-.65-1.37c0,.13.04.26.13.39,0,.09-.03.03-.1-.16-.07-.2-.12-.47-.16-.81.04.26.15.5.33.72-.09-.56-.2-1.27-.33-2.11-.13-.85-.17-1.7-.13-2.57,0,.04-.01.14-.03.29-.02.15-.03.29-.03.42s-.01.22-.03.26c-.02.04-.03-.02-.03-.2,0-.26,0-.48.03-.65.02-.17.05-.33.1-.46.04-.13.08-.28.1-.46.02-.17,0-.43-.03-.78-.04.3-.1.47-.16.49-.06.02-.1.19-.1.49-.04-.43-.08-.8-.1-1.11-.02-.3.01-.52.1-.65,0-.26-.04-.39-.13-.39.09-.26.12-.59.1-.98-.02-.39-.05-.74-.1-1.04l-.06.13c.22-.56.27-1.06.16-1.5-.11-.43-.14-1.02-.1-1.76l-.13.26c.04-.3.08-.67.1-1.11.02-.43-.01-.91-.1-1.43l-.07.52v-1.63c0-.13-.01-.27-.03-.42-.02-.15-.01-.31.03-.49.09-.35.17-.59.26-.72,0-.09-.02-.1-.07-.03-.04.06-.08.11-.1.13-.02.02-.03-.01-.03-.1s.07-.33.2-.72c.09-.17.25-.44.49-.81.24-.37.4-.66.49-.88-.09-.09-.22.07-.39.46-.09.09-.12.12-.1.1.02-.02.08-.05.16-.1-.17.17-.3.32-.39.46.13-.26.24-.46.33-.59.09-.13.17-.25.26-.36.09-.11.18-.22.29-.33.11-.11.27-.29.49-.55.09-.09.03-.06-.16.06s-.34.24-.42.33c.56-.61,1.19-1.13,1.89-1.56.69-.43,1.78-.39,3.25.13-.09-.09-.2.06-.33.42-.13.37-.55.61-1.27.72-.71.11-1.03.16-.94.16s-.07.13-.46.39l-.98.65c-.3.35-.52.68-.65,1.01-.13.32-.24.64-.33.94-.09.3-.12.56-.1.78.02.22.03.43.03.65,0,.48-.01.72-.03.72s-.04-.06-.07-.19c-.02-.13-.04-.25-.06-.36-.02-.11-.05,0-.1.29,0,.26,0,.44.03.55.02.11.04.18.07.23.02.04.04.09.06.13.02.04.03.15.03.33l-.26.46c0,.3.01.49.03.55.02.06.04.08.06.03.02-.04.03-.08.03-.1s0,.05,0,.23l.06.39c.04-.22.08-.4.1-.55.02-.15.05-.27.1-.36-.04.09-.08.35-.1.78-.02.43-.01.76.03.98.04-.26.07-.44.07-.55v-.19s0,.05,0,.23v1.92c0,.5,0,.98.03,1.43.02.46.04.92.07,1.4.02.48.03,1.06.03,1.76l.07-.26c0,.17-.01.31-.03.42-.02.11-.01.25.03.42l.06-.2c0,.09-.01.32-.03.68-.02.37-.03.79-.03,1.27v.72c0,.26-.02.52-.07.78,0,.26.01.49.03.68s.05.4.1.62v-.78c0,.22.01.43.03.65.02.22.05.43.1.65l.13-.2c-.04.26.11.68.46,1.27.35.58.78,1.05,1.3,1.4l.07-.06.58.39-.13-.19c.61.39,1.41.56,2.41.52Zm-6.5-10.08c0,.13-.02.19-.06.19v-.13l.06-.06Zm.26-7.22c-.09.09-.15.17-.2.26-.04.09-.04.48,0,1.17.09.04.13.02.13-.06s.04,0,.13.26c.04-.22.05-.42.03-.62-.02-.2-.03-.34-.03-.42-.04.13-.05.27-.03.42.02.15,0,.25-.03.29-.09-.56-.09-1,0-1.3l.13-.33-.13.33Zm-.2-.98v.59l.2-.52-.2-.06Zm.33,5.92c.04-.09.06-.22.06-.39-.04-.04-.06-.11-.06-.2v-.06c-.04-.48-.08-.86-.1-1.14-.02-.28-.08-.18-.16.29v.85-.33l.07-.06c.04.3.04.56,0,.78-.04.22-.07.43-.07.65.04-.13.08-.36.1-.68.02-.33.08-.44.16-.36v.65c0,.22.02.39.06.52v-.13c0-.13-.02-.26-.06-.39Zm-.13,2.47c-.09-.13-.13-.03-.13.29v.62l.13-.91Zm-.07,4.16c0,.35-.01.56-.03.65-.02.09-.03.15-.03.2v.23c0,.11.02.34.07.68-.04-.35-.05-.66-.03-.94.02-.28.03-.55.03-.81Zm.33-4.81v-.46l-.2.52.2-.06Zm.13-8.39c-.04-.3-.08-.35-.1-.13-.02.22-.03.46-.03.72,0-.04,0-.05.03-.03.02.02.05-.01.1-.1v-.46ZM80.05.85c.26,0,.48.1.65.29.17.19.26.4.26.62v5.66c0,.22-.09.42-.26.62-.17.2-.39.29-.65.29h-9.3c-.56,0-.85.35-.85,1.04v8.32c0,.69.28,1.04.85,1.04h5.14c.65,0,1.28.17,1.89.52.61.35,1.15.78,1.63,1.3.48.52.86,1.11,1.14,1.76.28.65.42,1.3.42,1.95v16.45c0,.61-.14,1.24-.42,1.89-.28.65-.66,1.26-1.14,1.82-.48.56-1.02,1.03-1.63,1.4-.61.37-1.24.55-1.89.55h-11.9c-.52,0-.78-.35-.78-1.04v-5.4c0-.69.26-1.04.78-1.04h9.36c.26,0,.49-.1.68-.29.2-.2.29-.4.29-.62v-10.86c0-.22-.1-.42-.29-.62-.2-.2-.42-.29-.68-.29h-5.2c-.65,0-1.28-.15-1.89-.46-.61-.3-1.14-.72-1.59-1.24-.46-.52-.81-1.13-1.07-1.82-.26-.69-.39-1.41-.39-2.15V6.37c0-.65.15-1.3.46-1.95.3-.65,1.8-1.84,4.49-3.58h11.9Zm-16.65,45c-.09-.09-.13-.09-.13,0s.02.17.07.26c.04.09.15.17.33.26.3.09.62.11.94.06.33-.04.6-.06.81-.06h-1.24c-.35,0-.56-.04-.65-.13-.13-.22-.17-.35-.13-.39Zm.36.72c-.19,0-.36-.09-.49-.26.13.17.3.3.52.39l.39-.13h-.42Zm.88-7.93c-.17,0-.33-.01-.46-.03-.13-.02-.3-.01-.52.03l-.13.06c.22-.09.4-.11.55-.06.15.04.31.06.49.06l.06-.06Zm-.84-18.21c-.04-.35-.05-.57-.03-.68.02-.11.03-.27.03-.49.04.09.06.25.06.49s-.02.47-.06.68Zm.06,23.34v.72c.04-.09.09-.22.13-.39.04-.17.06-.15.06.06-.04.13-.08.39-.1.78-.02.39-.05.56-.1.52.04-.39.03-.75-.03-1.07-.07-.32-.05-.53.03-.62Zm.26-19.83c-.09-.09-.16-.21-.23-.36-.07-.15-.1-.16-.1-.03.17.3.38.63.62.98.24.35.44.54.62.58-.39-.39-.69-.78-.91-1.17Zm-.2-4.55c-.04-.26-.07-.47-.07-.62s.01-.27.03-.36c.02-.09.05-.17.1-.26.04-.09.06-.22.06-.39.04.48.03.76-.03.85-.07.09-.1.35-.1.78Zm.26,26.14h1.04-1.04Zm.85-.13c-.09,0-.26-.04-.52-.13.22.04.37.08.46.1.09.02.11.03.07.03Zm.65-6.05l-.26-.06.26-.06h-.91c.61-.09,1.12-.1,1.53-.03.41.06.77.12,1.07.16-.26,0-.64-.03-1.14-.1-.5-.06-.68-.03-.55.1Zm.33,6.83c.43,0,.63.02.58.06.09.04.22.05.39.03.17-.02.32-.01.46.03-.48.04-.77.04-.88,0-.11-.04-.29-.09-.55-.13h-.39.39Zm1.43.19h-1.24,1.3-.06Zm1.37-7.87s-.02.08-.2.1c-.17.02-.38.03-.62.03h-1.33c.17-.09.49-.1.94-.03s.86.03,1.2-.1Zm.13-37.72c1.43,0,2.41.02,2.93.06-.22,0-.52.01-.91.03-.39.02-.78.03-1.17.03s-.74-.01-1.04-.03c-.3-.02-.24-.05.2-.1Zm-.2,46.17s.08-.01.1-.03c.02-.02.08-.03.16-.03,0,.04-.02.06-.07.06h-.2Zm.46-1.43h-.26l.13.06.13-.06Zm.2-36.09c0-.09.01-.21.03-.36.02-.15.03-.18.03-.1-.04.22-.07.41-.07.59v.52c0-.09.01-.26.03-.52.02-.26,0-.3-.03-.13Zm.72,9.1s-.07.04-.07.13c.13.13.26.2.39.2-.13,0-.26-.06-.39-.2-.17-.22-.26-.46-.26-.72s-.02-.46-.07-.58c-.04.09-.06.25-.06.49s.04.45.13.62c-.17-.3-.24-.62-.2-.94.04-.33.07-.62.07-.88.04-.26.05-.47.03-.62-.02-.15-.08-.16-.16-.03.04-.17.08-.47.1-.88.02-.41.08-.51.16-.29-.09.52-.09,1.17,0,1.95v1.01c0,.33.11.58.33.75l.26.13c-.09,0-.17-.04-.26-.13Zm-.2-9.75s0-.09.03-.13c.02-.04.03-.09.03-.13.13-.17.3-.26.52-.26-.3,0-.5.17-.58.52Zm.26,2.93c.09-.56.15-1,.2-1.3,0,.48-.01.78-.03.91-.02.13-.08.26-.16.39Zm.78,35.31h.13-.13Zm1.37-45.84l-1.3-.06c.39,0,.62.01.68.03.07.02.27.03.62.03Zm.33,24.91c-.26.09-.49.12-.68.1-.19-.02-.25.01-.16.1h.81c.46,0,.7.04.75.13.09-.09.2-.13.33-.13-.35-.04-.65-.08-.91-.1-.26-.02-.3-.05-.13-.1Zm-.07-25.1l-.65-.06-.06.06h.71Zm-.71,38.11c.3.04.57.08.81.1.24.02.53.03.88.03-.22.04-.4.06-.55.06h-.49l-.65-.19Zm.84-20.94h-.33c-.13,0-.2-.02-.2-.06h1.11c.22,0,.2.01-.06.03-.26.02-.43.03-.52.03Zm1.5,11.05c-.04-.09-.07-.33-.07-.72v-1.17c-.04.09-.07.24-.07.46s.01.44.03.68c.02.24.04.43.06.58.02.15.03.21.03.16Zm.65.78v.85l-.07-.33s-.08-.01-.1-.03c-.02-.02-.03.01-.03.1v.39-1.27c0-.28.04-.44.13-.49-.04.09-.07.33-.07.72s.04.56.13.52v-.46Zm.06,5.98c0-.26-.01-.39-.03-.39s-.04.06-.07.16c-.02.11-.04.2-.06.26-.02.06-.03-.01-.03-.23v.65c-.04-.26-.05-.44-.03-.55.02-.11.04-.2.07-.26.02-.06.03-.13.03-.2v-.36l.07.46c.04.17.06.1.06-.23s.02-.51.07-.55c.04.26.04.59,0,.98-.04.39-.07.48-.07.26Zm.07,2.15c0,.09-.01.15-.03.2-.02.04-.03.09-.03.13,0-.04.01-.09.03-.13.02-.04.03-.11.03-.2.09-.43.1-.73.03-.88-.07-.15-.05-.4.03-.75.09.39.12.69.1.91-.02.22-.08.46-.16.72Zm.33-10.14l.06.13-.06.85-.07-.07.07-.91Zm.26-27.25c.22,0,.36.01.42.03.06.02.12.03.16.03-.26,0-.46-.02-.58-.06Zm.65-.13c-.22-.09-.18-.12.1-.1.28.02.53.03.75.03-.22,0-.37.02-.46.06-.09.04-.22.04-.39,0Zm.06,18.79c-.09,0-.15-.02-.19-.06.04.04.11.06.19.06Zm.52-18.66h1.5c-.22,0-.42.01-.62.03-.2.02-.49.01-.88-.03Zm1.37,7.74c-.35,0-.6-.02-.75-.06-.15-.04-.32-.09-.49-.13.39-.04.73-.04,1.01,0,.28.04.6.09.94.13-.26,0-.48-.01-.65-.03-.17-.02-.2.01-.07.1Zm-1.24,10.08c.22.09.37.14.46.16.09.02.15.03.2.03h.1s.08.02.16.07l-.13.13c-.09-.09-.21-.15-.36-.2-.15-.04-.29-.11-.42-.19Zm.85,27.18c.35-.13.64-.37.88-.72.24-.35.49-.59.75-.72-.13.13-.25.26-.36.39-.11.13-.21.24-.29.33.04-.04.22-.21.52-.49.3-.28.56-.6.78-.94-.09.26-.15.42-.19.49-.04.06-.11.14-.2.23l-.91.91.98-.91s.05.04.03.13c-.02.09-.01.15.03.2-.13.04-.31.17-.55.39-.24.22-.49.41-.75.58-.26.22-.48.35-.65.39-.17.04-.2-.04-.07-.26Zm1.43-44.93c-.13,0-.27,0-.42-.03-.15-.02-.31-.03-.49-.03h.36c.15,0,.33.02.55.06Zm-.33,7.61c.22,0,.39-.02.52-.07-.09.04-.26.07-.52.07Zm.65,13.27c.09.17.13.33.13.46-.17-.3-.22-.46-.13-.46-.04-.04-.11-.15-.2-.33.35.39.48.55.39.49-.09-.06-.15-.12-.2-.16Zm.78-13.53c-.09.04-.21.05-.36.03-.15-.02-.32-.03-.49-.03l.46-.13c.17.09.3.13.39.13Zm-.52,13.72c.09.09.17.23.26.42.09.2.17.4.26.62.13.39.2.61.2.65-.04-.09-.15-.35-.33-.78-.17-.43-.3-.74-.39-.91Zm0,20.68l.07-.13s-.02-.07-.07-.07v.2Zm.33-.46c.04-.09.08-.17.1-.26.02-.09.05-.17.1-.26-.04.13-.09.25-.13.36-.04.11-.09.23-.13.36,0-.09.02-.15.07-.19Zm.13-3.64c0,.09-.01.19-.03.29-.02.11-.01.23.03.36v-.65Zm.2-.06c.04-.13.05-.2.03-.2h-.06s-.04-.04-.07-.13c-.02-.09-.01-.26.03-.52,0-.48.02-.89.07-1.24.04-.35.11-.48.2-.39-.04.43-.07.9-.07,1.4s-.04.86-.13,1.07Zm.13-17.1c-.04-.09-.08-.19-.1-.33-.02-.13-.05-.24-.1-.33.22.35.31.56.29.65-.02.09-.05.09-.1,0Zm-.13,7.67c0,.22,0,.5.03.85.02.35-.01.54-.1.58l.07-1.43Zm-.07,2.41v.52c.04.3.1.52.16.65.06.13.03.41-.1.85l-.07-1.5v-.52Zm.52-1.24c-.04.61-.09,1.01-.13,1.2-.04.2-.11.53-.2,1.01-.09-.61-.09-1.02,0-1.24.09-.22.17-.28.26-.19.04-.39.04-.62,0-.68-.04-.07-.07-.21-.07-.42l.13.33Zm-.39-.06c.04-.43.09-.92.13-1.46.04-.54.11-.79.2-.75-.09-.04-.15.15-.2.58-.04.43-.07.76-.07.98s-.02.43-.06.65Zm.52,12.03c-.13.26-.22.46-.26.58.04-.13.13-.33.26-.58Zm-.13-18.66c.04.13.07.33.07.58-.04.09-.08.09-.1,0-.02-.09-.03.07-.03.46.09.09.13-.07.13-.46,0-.17-.02-.37-.07-.58Zm.13-16c.04-.09.07-.22.07-.39v-.91c0,.48,0,.73.03.75.02.02.04-.06.07-.26.02-.19.04-.41.06-.65.02-.24.03-.38.03-.42,0,.61-.02.99-.07,1.14-.04.15-.11.4-.2.75Zm0,18.27s.11-.33.2-.85v-.75c0-.28-.04-.55-.13-.81.04.3.05.61.03.91-.02.3-.05.61-.1.91l.07-.58-.07,1.17Zm.07,2.41l.06-2.02-.06.06v-.13l-.07.39.07-.26v1.95Zm.33,6.11s0-.1.03-.16c.02-.06.01-.16-.03-.29v.46Zm.13-5.27v.19l-.07,1.11.07-1.3Zm0,10.08c.09-.17.13-.22.13-.13l-.13.13Zm.07-14.18l.06-.52-.06,1.63v-1.11Z"/></g></svg>