<?xml version="1.0" encoding="utf-8"?>
<!-- Generator: Adobe Illustrator 26.0.1, SVG Export Plug-In . SVG Version: 6.00 Build 0)  -->
<svg version="1.1" id="Layer_1" xmlns="http://www.w3.org/2000/svg" xmlns:xlink="http://www.w3.org/1999/xlink" x="0px" y="0px"
	 viewBox="0 0 60 30" style="enable-background:new 0 0 60 30;" xml:space="preserve">
<style type="text/css">
	.st0{fill:#FFFFFF;}
</style>
<path class="st0" d="M56.8,5.2H4.5c-1.1,0-2-0.9-2-2s0.9-2,2-2h52.3c1.1,0,2,0.9,2,2S57.9,5.2,56.8,5.2z"/>
<path class="st0" d="M56.8,17H4.5c-1.1,0-2-0.9-2-2s0.9-2,2-2h52.3c1.1,0,2,0.9,2,2S57.9,17,56.8,17z"/>
<path class="st0" d="M56.8,28.8H4.5c-1.1,0-2-0.9-2-2s0.9-2,2-2h52.3c1.1,0,2,0.9,2,2S57.9,28.8,56.8,28.8z"/>
</svg>
