<?xml version="1.0" encoding="UTF-8"?>
<svg id="Layer_1" xmlns="http://www.w3.org/2000/svg" viewBox="0 0 16 16">
<path d="m14.82,9.61c-.08.29-.15.58-.24.87-.17.55-.46,1.04-.78,1.51-.02.03-.11.05-.15.04-.26-.11-.52-.25-.78-.35-.3-.12-.61-.21-.92-.32-.04-.01-.07-.03-.1-.04.14-.57.22-1.14.28-1.71h-.93c-.01.1-.02.2-.04.3-.06.37-.11.74-.19,1.1-.02.11-.14.11-.24.09-.25-.05-.5-.1-.75-.14-.25-.04-.49-.06-.74-.09-.03,0-.05,0-.08,0-.22,0-.44,0-.67,0v-1.25h-.94c0,.36,0,.71,0,1.07,0,.12-.04.15-.16.16-.5.04-.99.09-1.49.15-.28.03-.56.08-.84.12-.13-.5-.21-1-.26-1.5h-.92c.02.16.03.32.05.49.06.39.14.77.21,1.16,0,.03-.04.09-.07.11-.47.18-.95.35-1.42.52-.07.03-.14.08-.21.11-.18.08-.22.07-.31-.09-.32-.55-.64-1.09-.81-1.71-.05-.19-.09-.39-.14-.59H.19c.1.47.23.93.41,1.38,0,.01.02.02.02.03.24.63.56,1.21.98,1.73.29.37.6.74.94,1.06.67.64,1.44,1.15,2.31,1.52.53.23,1.07.39,1.63.51.26.06.53.07.8.1.03,0,.05.02.08.03h1.25c.13-.02.25-.05.38-.06.73-.09,1.43-.27,2.1-.56.56-.24,1.09-.53,1.58-.89.48-.35.92-.75,1.31-1.2.47-.53.85-1.11,1.17-1.74.31-.61.51-1.26.66-1.92h-1Zm-11.95,3.17c.5-.19,1.01-.38,1.52-.58.29.87.64,1.67,1.19,2.37-.4.08-2.48-1.29-2.71-1.79Zm4.67,2.2c-.18-.1-.35-.17-.49-.27-.58-.4-.96-.97-1.27-1.59-.16-.33-.28-.68-.42-1.01-.04-.1,0-.11.08-.12.55-.09,1.1-.18,1.66-.19.14,0,.28-.03.44-.04v3.23Zm.95,0v-3.24c.74.08,1.47.16,2.22.25-.47,1.22-.96,2.37-2.22,2.99Zm3.88-1.46s-.02.02-.04.03c-.57.47-1.22.8-1.94,1.08.16-.25.32-.46.44-.69.19-.37.37-.74.54-1.12.07-.16.13-.33.19-.5.02-.07.04-.09.11-.06.38.15.77.28,1.16.42.1.04.19.09.32.15-.27.24-.53.47-.78.69Z"/><path d="m1.27,5.96c.19-.67.49-1.3.87-1.89.08-.12.14-.13.27-.07.57.25,1.14.47,1.72.71-.1.41-.17.82-.22,1.24h.95c.05-.34.1-.69.19-1.03.84.1,1.66.19,2.49.28v.74h.94v-.8c.07,0,.14,0,.21,0,.44-.04.88-.07,1.32-.13.27-.03.53-.1.8-.13.05,0,.13.04.15.09.06.13.1.27.12.41.03.14.02.29.04.44,0,.04,0,.08.01.11h.94c-.06-.42-.12-.84-.22-1.24.6-.25,1.19-.49,1.78-.74.09-.04.13-.03.18.05.41.6.72,1.24.92,1.93h.97c-.07-.25-.14-.51-.23-.76-.23-.62-.54-1.19-.91-1.73-.34-.51-.75-.96-1.2-1.38-.45-.42-.97-.77-1.5-1.07-.62-.35-1.27-.6-1.96-.77-.36-.08-.73-.12-1.09-.17-.05,0-.1-.02-.15-.04-.22,0-.45-.02-.67-.02-.24,0-.49.02-.73.02-.2.03-.4.07-.6.1-.52.06-1.01.22-1.49.39-.75.28-1.45.66-2.07,1.17-.09.08-.19.14-.29.22-.03.03-.06.06-.1.1-.9.79-1.58,1.75-2.05,2.85-.15.35-.27.72-.37,1.09h.98Zm11.06-3.51l.04.03s.08.07.12.1c.01,0,.02.02.03.02.2.18.4.37.63.58-.32.14-.62.27-.92.39-.18.07-.37.11-.55.17-.08.03-.1,0-.13-.07-.25-.72-.55-1.42-1-2.05-.05-.07-.1-.15-.17-.25.72.26,1.36.62,1.94,1.07Zm-3.85-1.45c.25.16.49.28.68.45.51.44.86.98,1.13,1.59.07.16.14.31.21.47,0,.01.02.02.02.03.05.14.1.29.16.48-.75.09-1.47.17-2.21.26V1.01Zm-1.05.07s.06-.02.1-.03v3.18c-.75.02-1.47-.09-2.22-.23.08-.23.16-.45.25-.67.2-.48.45-.94.77-1.35.3-.38.63-.73,1.1-.91Zm-1.83.32c-.55.72-.91,1.52-1.2,2.4-.51-.2-1.02-.39-1.54-.59.69-.82,1.9-1.58,2.74-1.81Z"/><path d="m3.31,8.59l-.43-1.48c-.02-.08-.03-.12-.03-.18,0-.14.12-.25.28-.25.15,0,.24.09.27.25l.32,1.37h.01l.33-1.35c.04-.17.15-.27.33-.27s.29.09.32.27l.33,1.35h.01l.32-1.38c.03-.15.12-.24.27-.24.16,0,.27.1.27.25,0,.05-.01.1-.03.18l-.43,1.48c-.06.21-.17.31-.37.31-.21,0-.33-.09-.38-.31l-.32-1.24h-.01l-.32,1.24c-.05.21-.16.3-.37.3s-.31-.09-.37-.3Z"/><path d="m6.93,8.59l-.43-1.48c-.02-.08-.03-.12-.03-.18,0-.14.12-.25.28-.25.15,0,.24.09.27.25l.32,1.37h.01l.33-1.35c.04-.17.15-.27.33-.27s.29.09.32.27l.33,1.35h.01l.32-1.38c.03-.15.12-.24.27-.24.16,0,.27.1.27.25,0,.05,0,.1-.03.18l-.43,1.48c-.06.21-.17.31-.37.31-.21,0-.33-.09-.38-.31l-.32-1.24h-.01l-.32,1.24c-.05.21-.16.3-.37.3s-.31-.09-.37-.3Z"/><path d="m10.55,8.59l-.43-1.48c-.02-.08-.03-.12-.03-.18,0-.14.12-.25.28-.25.14,0,.24.09.27.25l.32,1.37h.01l.33-1.35c.04-.17.15-.27.33-.27s.29.09.32.27l.33,1.35h.01l.32-1.38c.03-.15.12-.24.27-.24.16,0,.27.1.27.25,0,.05,0,.1-.03.18l-.43,1.48c-.06.21-.17.31-.37.31-.21,0-.33-.09-.38-.31l-.32-1.24h-.01l-.32,1.24c-.05.21-.17.3-.37.3s-.31-.09-.37-.3Z"/>
</svg>