<svg id="Layer_1" data-name="Layer 1" xmlns="http://www.w3.org/2000/svg" viewBox="0 0 142.17 32.85"><defs><style>.cls-1{fill:#fff;fill-rule:evenodd;}.cls-2{fill:#79b72c;}.cls-3{fill:#00a194;}.cls-4{fill:#c7d309;}</style></defs><path class="cls-1" d="M90.8,5.84h-.12c-6.33.06-10.24,4.86-10.24,10.88,0,5.78,3.56,10.64,10,10.64h.22c6.29-.08,10.24-4.34,10.24-11C100.92,10.82,97.52,5.84,90.8,5.84Zm-.06,17.1h-.06c-2.69,0-4.36-2.6-4.33-6.33s1.64-6.34,4.33-6.34h0C93.41,10.26,95,13,95,16.57,95,20.34,93.43,22.94,90.74,22.94Zm22.33-17.1H113c-6.33.06-10.24,4.86-10.24,10.88,0,5.78,3.56,10.64,10,10.64H113c6.29-.08,10.24-4.34,10.24-11C123.19,10.82,119.79,5.84,113.07,5.84ZM113,22.94H113c-2.69,0-4.36-2.59-4.33-6.33s1.64-6.34,4.33-6.34,4.33,2.72,4.33,6.31C117.28,20.34,115.7,22.94,113,22.94Zm24.22-7.18V15.7c2.45-.93,3.41-2.63,3.41-4.36A4.66,4.66,0,0,0,137.82,7a11.62,11.62,0,0,0-5.1-1c-.4,0-.82,0-1.27,0a43.33,43.33,0,0,0-6.59.46V26.9a31.2,31.2,0,0,0,5.51.37c.85,0,1.63,0,2.35-.08,3.05-.2,5-.83,6.24-1.78a5.6,5.6,0,0,0,2.35-4.58A5.16,5.16,0,0,0,137.23,15.76Zm-6.83-5.59a9.69,9.69,0,0,1,1.82-.13l.5,0c1.55.12,2.32.86,2.32,2s-.76,1.84-2.32,2.08a8.67,8.67,0,0,1-1.21.09H130.4Zm2.32,13c-.23,0-.47,0-.71,0a10.18,10.18,0,0,1-1.61-.07v-5h1.33a8,8,0,0,1,1,.05c1.59.2,2.72.91,2.72,2.39S134.25,23,132.72,23.15ZM54.9,6.18V27h5.59V9.58C60.49,7,59.07,6.18,54.9,6.18ZM46.76,14.4C44.13,13.42,43,13,43,12s.93-1.54,2.63-1.54a11.65,11.65,0,0,1,4.51,1C51,9.27,51.4,5.87,45.71,5.87c-5.25,0-8.38,2.84-8.38,6.53,0,3.09,2.35,5,5.87,6.27,2.35.81,3.28,1.37,3.28,2.39s-.93,1.69-2.84,1.69a12.52,12.52,0,0,1-5.41-1.29l-1.06,4.6a14.77,14.77,0,0,0,6.13,1.27c6.09,0,8.87-3.06,8.87-6.65C52.17,17.78,50.51,15.8,46.76,14.4Zm28.36,8.29c-3.83,0-6.09-2.36-6.09-6.12,0-4.24,2.78-6.13,6-6.13a10.63,10.63,0,0,1,3.87.74c1-2.25.74-5.31-4.12-5.31-6.21,0-11.6,3.73-11.6,11.06,0,5.55,3.44,10.4,11.23,10.4a13.29,13.29,0,0,0,5.23-.87l-.77-4.36A11.6,11.6,0,0,1,75.12,22.69Z"/><path class="cls-2" d="M2.62.84a2.18,2.18,0,0,0-.81.25,1.92,1.92,0,0,0-1,1.67,2,2,0,0,0,.2.86L10.5,20l3.06-5.3h0l5-8.6-3-5.29Z"/><path class="cls-3" d="M15.49.84l8,13.89h6.1L36.05,3.58a1.87,1.87,0,0,0,.19-.82A1.93,1.93,0,0,0,34.43.84Z"/><path class="cls-4" d="M29.17,14.73H13.56L10.5,20,17,31.17a1.92,1.92,0,0,0,.62.58,1.9,1.9,0,0,0,2.56-.61l9.49-16.41Z"/></svg>